G04 #@! TF.GenerationSoftware,KiCad,Pcbnew,(5.1.4)-1*
G04 #@! TF.CreationDate,2020-11-30T14:55:24+01:00*
G04 #@! TF.ProjectId,emg,656d672e-6b69-4636-9164-5f7063625858,rev?*
G04 #@! TF.SameCoordinates,Original*
G04 #@! TF.FileFunction,Legend,Top*
G04 #@! TF.FilePolarity,Positive*
%FSLAX46Y46*%
G04 Gerber Fmt 4.6, Leading zero omitted, Abs format (unit mm)*
G04 Created by KiCad (PCBNEW (5.1.4)-1) date 2020-11-30 14:55:24*
%MOMM*%
%LPD*%
G04 APERTURE LIST*
%ADD10C,0.120000*%
%ADD11C,0.150000*%
G04 APERTURE END LIST*
D10*
X96180600Y-112741400D02*
X96180600Y-115401400D01*
X108940600Y-112741400D02*
X96180600Y-112741400D01*
X108940600Y-115401400D02*
X96180600Y-115401400D01*
X108940600Y-112741400D02*
X108940600Y-115401400D01*
X110210600Y-112741400D02*
X111540600Y-112741400D01*
X111540600Y-112741400D02*
X111540600Y-114071400D01*
X61974800Y-123497078D02*
X61974800Y-122979922D01*
X60554800Y-123497078D02*
X60554800Y-122979922D01*
X59638000Y-123448578D02*
X59638000Y-122931422D01*
X58218000Y-123448578D02*
X58218000Y-122931422D01*
X62721400Y-121707400D02*
X62721400Y-123407400D01*
X63821400Y-121707400D02*
X62721400Y-121707400D01*
X63821400Y-123407400D02*
X63821400Y-121707400D01*
X71042600Y-122829822D02*
X71042600Y-123346978D01*
X69622600Y-122829822D02*
X69622600Y-123346978D01*
X78767678Y-136627800D02*
X78250522Y-136627800D01*
X78767678Y-138047800D02*
X78250522Y-138047800D01*
X80161200Y-122806722D02*
X80161200Y-123323878D01*
X78741200Y-122806722D02*
X78741200Y-123323878D01*
X66507200Y-129057400D02*
X66507200Y-132507400D01*
X66507200Y-129057400D02*
X66507200Y-127107400D01*
X75377200Y-129057400D02*
X75377200Y-131007400D01*
X75377200Y-129057400D02*
X75377200Y-127107400D01*
X78153522Y-134392600D02*
X78670678Y-134392600D01*
X78153522Y-135812600D02*
X78670678Y-135812600D01*
X78792000Y-126616722D02*
X78792000Y-127133878D01*
X80212000Y-126616722D02*
X80212000Y-127133878D01*
X75227922Y-124662000D02*
X75745078Y-124662000D01*
X75227922Y-123242000D02*
X75745078Y-123242000D01*
X80237400Y-131643622D02*
X80237400Y-132160778D01*
X78817400Y-131643622D02*
X78817400Y-132160778D01*
X68959800Y-123370078D02*
X68959800Y-122852922D01*
X67539800Y-123370078D02*
X67539800Y-122852922D01*
X65457000Y-122852922D02*
X65457000Y-123370078D01*
X66877000Y-122852922D02*
X66877000Y-123370078D01*
X69899600Y-135656822D02*
X69899600Y-136173978D01*
X68479600Y-135656822D02*
X68479600Y-136173978D01*
X76148000Y-136227078D02*
X76148000Y-135709922D01*
X74728000Y-136227078D02*
X74728000Y-135709922D01*
X73989000Y-136201678D02*
X73989000Y-135684522D01*
X72569000Y-136201678D02*
X72569000Y-135684522D01*
X64946600Y-135809222D02*
X64946600Y-136326378D01*
X63526600Y-135809222D02*
X63526600Y-136326378D01*
X59818200Y-135735322D02*
X59818200Y-136252478D01*
X61238200Y-135735322D02*
X61238200Y-136252478D01*
X66346000Y-135633722D02*
X66346000Y-136150878D01*
X67766000Y-135633722D02*
X67766000Y-136150878D01*
X76333280Y-127636798D02*
X76333280Y-127119642D01*
X77753280Y-127636798D02*
X77753280Y-127119642D01*
X71680000Y-122827522D02*
X71680000Y-123344678D01*
X73100000Y-122827522D02*
X73100000Y-123344678D01*
X64416678Y-130989000D02*
X63899522Y-130989000D01*
X64416678Y-132409000D02*
X63899522Y-132409000D01*
X70410000Y-136300978D02*
X70410000Y-135783822D01*
X71830000Y-136300978D02*
X71830000Y-135783822D01*
X67979600Y-145534200D02*
X60239600Y-145534200D01*
X60239600Y-145534200D02*
X60239600Y-148194200D01*
X60239600Y-148194200D02*
X67979600Y-148194200D01*
X67979600Y-148194200D02*
X67979600Y-145534200D01*
X67029600Y-148194200D02*
X67029600Y-154194200D01*
X67029600Y-154194200D02*
X66269600Y-154194200D01*
X66269600Y-154194200D02*
X66269600Y-148194200D01*
X66969600Y-148194200D02*
X66969600Y-154194200D01*
X66849600Y-148194200D02*
X66849600Y-154194200D01*
X66729600Y-148194200D02*
X66729600Y-154194200D01*
X66609600Y-148194200D02*
X66609600Y-154194200D01*
X66489600Y-148194200D02*
X66489600Y-154194200D01*
X66369600Y-148194200D02*
X66369600Y-154194200D01*
X67029600Y-145204200D02*
X67029600Y-145534200D01*
X66269600Y-145204200D02*
X66269600Y-145534200D01*
X65379600Y-145534200D02*
X65379600Y-148194200D01*
X64489600Y-148194200D02*
X64489600Y-154194200D01*
X64489600Y-154194200D02*
X63729600Y-154194200D01*
X63729600Y-154194200D02*
X63729600Y-148194200D01*
X64489600Y-145137129D02*
X64489600Y-145534200D01*
X63729600Y-145137129D02*
X63729600Y-145534200D01*
X62839600Y-145534200D02*
X62839600Y-148194200D01*
X61949600Y-148194200D02*
X61949600Y-154194200D01*
X61949600Y-154194200D02*
X61189600Y-154194200D01*
X61189600Y-154194200D02*
X61189600Y-148194200D01*
X61949600Y-145137129D02*
X61949600Y-145534200D01*
X61189600Y-145137129D02*
X61189600Y-145534200D01*
X66649600Y-142824200D02*
X67919600Y-142824200D01*
X67919600Y-142824200D02*
X67919600Y-144094200D01*
X93931478Y-133501200D02*
X93414322Y-133501200D01*
X93931478Y-132081200D02*
X93414322Y-132081200D01*
X101344800Y-137393178D02*
X101344800Y-136876022D01*
X99924800Y-137393178D02*
X99924800Y-136876022D01*
X102614800Y-123919722D02*
X102614800Y-124436878D01*
X101194800Y-123919722D02*
X101194800Y-124436878D01*
X107194420Y-128429758D02*
X107194420Y-127912602D01*
X105774420Y-128429758D02*
X105774420Y-127912602D01*
X87123200Y-124820178D02*
X87123200Y-124303022D01*
X88543200Y-124820178D02*
X88543200Y-124303022D01*
X111785400Y-142748000D02*
X111785400Y-144018000D01*
X110515400Y-142748000D02*
X111785400Y-142748000D01*
X105055400Y-145060929D02*
X105055400Y-145458000D01*
X105815400Y-145060929D02*
X105815400Y-145458000D01*
X105055400Y-154118000D02*
X105055400Y-148118000D01*
X105815400Y-154118000D02*
X105055400Y-154118000D01*
X105815400Y-148118000D02*
X105815400Y-154118000D01*
X106705400Y-145458000D02*
X106705400Y-148118000D01*
X107595400Y-145060929D02*
X107595400Y-145458000D01*
X108355400Y-145060929D02*
X108355400Y-145458000D01*
X107595400Y-154118000D02*
X107595400Y-148118000D01*
X108355400Y-154118000D02*
X107595400Y-154118000D01*
X108355400Y-148118000D02*
X108355400Y-154118000D01*
X109245400Y-145458000D02*
X109245400Y-148118000D01*
X110135400Y-145128000D02*
X110135400Y-145458000D01*
X110895400Y-145128000D02*
X110895400Y-145458000D01*
X110235400Y-148118000D02*
X110235400Y-154118000D01*
X110355400Y-148118000D02*
X110355400Y-154118000D01*
X110475400Y-148118000D02*
X110475400Y-154118000D01*
X110595400Y-148118000D02*
X110595400Y-154118000D01*
X110715400Y-148118000D02*
X110715400Y-154118000D01*
X110835400Y-148118000D02*
X110835400Y-154118000D01*
X110135400Y-154118000D02*
X110135400Y-148118000D01*
X110895400Y-154118000D02*
X110135400Y-154118000D01*
X110895400Y-148118000D02*
X110895400Y-154118000D01*
X111845400Y-148118000D02*
X111845400Y-145458000D01*
X104105400Y-148118000D02*
X111845400Y-148118000D01*
X104105400Y-145458000D02*
X104105400Y-148118000D01*
X111845400Y-145458000D02*
X104105400Y-145458000D01*
X97994400Y-136749022D02*
X97994400Y-137266178D01*
X99414400Y-136749022D02*
X99414400Y-137266178D01*
X97280800Y-136725922D02*
X97280800Y-137243078D01*
X95860800Y-136725922D02*
X95860800Y-137243078D01*
X90753000Y-136827522D02*
X90753000Y-137344678D01*
X89333000Y-136827522D02*
X89333000Y-137344678D01*
X93041400Y-136901422D02*
X93041400Y-137418578D01*
X94461400Y-136901422D02*
X94461400Y-137418578D01*
X102083800Y-137293878D02*
X102083800Y-136776722D01*
X103503800Y-137293878D02*
X103503800Y-136776722D01*
X104242800Y-137319278D02*
X104242800Y-136802122D01*
X105662800Y-137319278D02*
X105662800Y-136802122D01*
X108282478Y-139140000D02*
X107765322Y-139140000D01*
X108282478Y-137720000D02*
X107765322Y-137720000D01*
X107668322Y-136904800D02*
X108185478Y-136904800D01*
X107668322Y-135484800D02*
X108185478Y-135484800D01*
X108332200Y-132735822D02*
X108332200Y-133252978D01*
X109752200Y-132735822D02*
X109752200Y-133252978D01*
X104742722Y-124334200D02*
X105259878Y-124334200D01*
X104742722Y-125754200D02*
X105259878Y-125754200D01*
X108256000Y-123898922D02*
X108256000Y-124416078D01*
X109676000Y-123898922D02*
X109676000Y-124416078D01*
X109726800Y-127708922D02*
X109726800Y-128226078D01*
X108306800Y-127708922D02*
X108306800Y-128226078D01*
X99137400Y-123922022D02*
X99137400Y-124439178D01*
X100557400Y-123922022D02*
X100557400Y-124439178D01*
X97054600Y-124462278D02*
X97054600Y-123945122D01*
X98474600Y-124462278D02*
X98474600Y-123945122D01*
X96391800Y-123945122D02*
X96391800Y-124462278D01*
X94971800Y-123945122D02*
X94971800Y-124462278D01*
X89460000Y-124868678D02*
X89460000Y-124351522D01*
X90880000Y-124868678D02*
X90880000Y-124351522D01*
X104892000Y-130149600D02*
X104892000Y-128199600D01*
X104892000Y-130149600D02*
X104892000Y-132099600D01*
X96022000Y-130149600D02*
X96022000Y-128199600D01*
X96022000Y-130149600D02*
X96022000Y-133599600D01*
X92726600Y-124779000D02*
X92726600Y-123079000D01*
X92726600Y-123079000D02*
X91626600Y-123079000D01*
X91626600Y-123079000D02*
X91626600Y-124779000D01*
X84129378Y-153186200D02*
X83612222Y-153186200D01*
X84129378Y-151766200D02*
X83612222Y-151766200D01*
X74976222Y-150420000D02*
X75493378Y-150420000D01*
X74976222Y-151840000D02*
X75493378Y-151840000D01*
X80215478Y-151639200D02*
X79698322Y-151639200D01*
X80215478Y-153059200D02*
X79698322Y-153059200D01*
X75001622Y-152528200D02*
X75518778Y-152528200D01*
X75001622Y-153948200D02*
X75518778Y-153948200D01*
X69368600Y-146250922D02*
X69368600Y-146768078D01*
X70788600Y-146250922D02*
X70788600Y-146768078D01*
X58131640Y-111315762D02*
X58131640Y-111832918D01*
X59551640Y-111315762D02*
X59551640Y-111832918D01*
X95048000Y-106252778D02*
X95048000Y-105735622D01*
X96468000Y-106252778D02*
X96468000Y-105735622D01*
X110514200Y-106280478D02*
X110514200Y-105763322D01*
X109094200Y-106280478D02*
X109094200Y-105763322D01*
X84707800Y-106342922D02*
X84707800Y-106860078D01*
X83287800Y-106342922D02*
X83287800Y-106860078D01*
X84784000Y-110619278D02*
X84784000Y-110102122D01*
X83364000Y-110619278D02*
X83364000Y-110102122D01*
X85726000Y-149253400D02*
X89026000Y-149253400D01*
X89026000Y-149253400D02*
X89026000Y-143853400D01*
X85726000Y-149253400D02*
X85726000Y-143853400D01*
X101050400Y-145381800D02*
X95850400Y-145381800D01*
X95850400Y-145381800D02*
X95850400Y-148041800D01*
X95850400Y-148041800D02*
X101050400Y-148041800D01*
X101050400Y-148041800D02*
X101050400Y-145381800D01*
X100100400Y-148041800D02*
X100100400Y-154041800D01*
X100100400Y-154041800D02*
X99340400Y-154041800D01*
X99340400Y-154041800D02*
X99340400Y-148041800D01*
X100040400Y-148041800D02*
X100040400Y-154041800D01*
X99920400Y-148041800D02*
X99920400Y-154041800D01*
X99800400Y-148041800D02*
X99800400Y-154041800D01*
X99680400Y-148041800D02*
X99680400Y-154041800D01*
X99560400Y-148041800D02*
X99560400Y-154041800D01*
X99440400Y-148041800D02*
X99440400Y-154041800D01*
X100100400Y-145051800D02*
X100100400Y-145381800D01*
X99340400Y-145051800D02*
X99340400Y-145381800D01*
X98450400Y-145381800D02*
X98450400Y-148041800D01*
X97560400Y-148041800D02*
X97560400Y-154041800D01*
X97560400Y-154041800D02*
X96800400Y-154041800D01*
X96800400Y-154041800D02*
X96800400Y-148041800D01*
X97560400Y-144984729D02*
X97560400Y-145381800D01*
X96800400Y-144984729D02*
X96800400Y-145381800D01*
X99720400Y-142671800D02*
X100990400Y-142671800D01*
X100990400Y-142671800D02*
X100990400Y-143941800D01*
X79774522Y-141273600D02*
X80291678Y-141273600D01*
X79774522Y-139853600D02*
X80291678Y-139853600D01*
X76753400Y-146075400D02*
X76753400Y-144125400D01*
X76753400Y-146075400D02*
X76753400Y-148025400D01*
X71633400Y-146075400D02*
X71633400Y-144125400D01*
X71633400Y-146075400D02*
X71633400Y-149525400D01*
X84944000Y-144749600D02*
X83684000Y-144749600D01*
X78124000Y-144749600D02*
X79384000Y-144749600D01*
X84944000Y-148509600D02*
X84944000Y-144749600D01*
X78124000Y-150759600D02*
X78124000Y-144749600D01*
D11*
X61239400Y-92317200D02*
X73939400Y-92317200D01*
X61239400Y-86717200D02*
X61239400Y-113717200D01*
X61239400Y-113717200D02*
X73939400Y-113717200D01*
X73939400Y-113717200D02*
X73939400Y-86717200D01*
X61239400Y-86717200D02*
X73939400Y-86717200D01*
X99270400Y-102343800D02*
X99270400Y-102568800D01*
X106520400Y-102343800D02*
X106520400Y-102668800D01*
X106520400Y-109593800D02*
X106520400Y-109268800D01*
X99270400Y-109593800D02*
X99270400Y-109268800D01*
X99270400Y-102343800D02*
X99595400Y-102343800D01*
X99270400Y-109593800D02*
X99595400Y-109593800D01*
X106520400Y-109593800D02*
X106195400Y-109593800D01*
X106520400Y-102343800D02*
X106195400Y-102343800D01*
X99270400Y-102568800D02*
X97845400Y-102568800D01*
D10*
X86044800Y-111800000D02*
X86044800Y-105550000D01*
X91094800Y-111800000D02*
X91094800Y-105550000D01*
X91094800Y-111800000D02*
G75*
G02X86044800Y-111800000I-2525000J0D01*
G01*
X91094800Y-105550000D02*
G75*
G03X86044800Y-105550000I-2525000J0D01*
G01*
X94512200Y-130075678D02*
X94512200Y-129558522D01*
X93092200Y-130075678D02*
X93092200Y-129558522D01*
X62942400Y-128069078D02*
X62942400Y-127551922D01*
X64362400Y-128069078D02*
X64362400Y-127551922D01*
X75621000Y-106723700D02*
X75621000Y-109408700D01*
X75621000Y-109408700D02*
X77541000Y-109408700D01*
X77541000Y-109408700D02*
X77541000Y-106723700D01*
X92207200Y-92546700D02*
X92207200Y-95231700D01*
X94127200Y-92546700D02*
X92207200Y-92546700D01*
X94127200Y-95231700D02*
X94127200Y-92546700D01*
X81808200Y-95210900D02*
X81808200Y-92525900D01*
X81808200Y-92525900D02*
X79888200Y-92525900D01*
X79888200Y-92525900D02*
X79888200Y-95210900D01*
X98492000Y-96553200D02*
X106232000Y-96553200D01*
X106232000Y-96553200D02*
X106232000Y-93893200D01*
X106232000Y-93893200D02*
X98492000Y-93893200D01*
X98492000Y-93893200D02*
X98492000Y-96553200D01*
X99442000Y-93893200D02*
X99442000Y-87893200D01*
X99442000Y-87893200D02*
X100202000Y-87893200D01*
X100202000Y-87893200D02*
X100202000Y-93893200D01*
X99502000Y-93893200D02*
X99502000Y-87893200D01*
X99622000Y-93893200D02*
X99622000Y-87893200D01*
X99742000Y-93893200D02*
X99742000Y-87893200D01*
X99862000Y-93893200D02*
X99862000Y-87893200D01*
X99982000Y-93893200D02*
X99982000Y-87893200D01*
X100102000Y-93893200D02*
X100102000Y-87893200D01*
X99442000Y-96883200D02*
X99442000Y-96553200D01*
X100202000Y-96883200D02*
X100202000Y-96553200D01*
X101092000Y-96553200D02*
X101092000Y-93893200D01*
X101982000Y-93893200D02*
X101982000Y-87893200D01*
X101982000Y-87893200D02*
X102742000Y-87893200D01*
X102742000Y-87893200D02*
X102742000Y-93893200D01*
X101982000Y-96950271D02*
X101982000Y-96553200D01*
X102742000Y-96950271D02*
X102742000Y-96553200D01*
X103632000Y-96553200D02*
X103632000Y-93893200D01*
X104522000Y-93893200D02*
X104522000Y-87893200D01*
X104522000Y-87893200D02*
X105282000Y-87893200D01*
X105282000Y-87893200D02*
X105282000Y-93893200D01*
X104522000Y-96950271D02*
X104522000Y-96553200D01*
X105282000Y-96950271D02*
X105282000Y-96553200D01*
X99822000Y-99263200D02*
X98552000Y-99263200D01*
X98552000Y-99263200D02*
X98552000Y-97993200D01*
X64903878Y-117473800D02*
X64386722Y-117473800D01*
X64903878Y-116053800D02*
X64386722Y-116053800D01*
X58141800Y-107296478D02*
X58141800Y-106779322D01*
X59561800Y-107296478D02*
X59561800Y-106779322D01*
X68090522Y-117499200D02*
X68607678Y-117499200D01*
X68090522Y-116079200D02*
X68607678Y-116079200D01*
X75845600Y-99955878D02*
X75845600Y-99438722D01*
X77265600Y-99955878D02*
X77265600Y-99438722D01*
X77291000Y-111660678D02*
X77291000Y-111143522D01*
X75871000Y-111660678D02*
X75871000Y-111143522D01*
X96595000Y-99092278D02*
X96595000Y-98575122D01*
X95175000Y-99092278D02*
X95175000Y-98575122D01*
X91007000Y-94003122D02*
X91007000Y-94520278D01*
X89587000Y-94003122D02*
X89587000Y-94520278D01*
X83110000Y-93952322D02*
X83110000Y-94469478D01*
X84530000Y-93952322D02*
X84530000Y-94469478D01*
X94903600Y-143687800D02*
G75*
G03X94903600Y-143687800I-2620000J0D01*
G01*
X92283600Y-141107800D02*
X92283600Y-146267800D01*
X92323600Y-141107800D02*
X92323600Y-146267800D01*
X92363600Y-141108800D02*
X92363600Y-146266800D01*
X92403600Y-141109800D02*
X92403600Y-146265800D01*
X92443600Y-141111800D02*
X92443600Y-146263800D01*
X92483600Y-141114800D02*
X92483600Y-146260800D01*
X92523600Y-141118800D02*
X92523600Y-142647800D01*
X92523600Y-144727800D02*
X92523600Y-146256800D01*
X92563600Y-141122800D02*
X92563600Y-142647800D01*
X92563600Y-144727800D02*
X92563600Y-146252800D01*
X92603600Y-141126800D02*
X92603600Y-142647800D01*
X92603600Y-144727800D02*
X92603600Y-146248800D01*
X92643600Y-141131800D02*
X92643600Y-142647800D01*
X92643600Y-144727800D02*
X92643600Y-146243800D01*
X92683600Y-141137800D02*
X92683600Y-142647800D01*
X92683600Y-144727800D02*
X92683600Y-146237800D01*
X92723600Y-141144800D02*
X92723600Y-142647800D01*
X92723600Y-144727800D02*
X92723600Y-146230800D01*
X92763600Y-141151800D02*
X92763600Y-142647800D01*
X92763600Y-144727800D02*
X92763600Y-146223800D01*
X92803600Y-141159800D02*
X92803600Y-142647800D01*
X92803600Y-144727800D02*
X92803600Y-146215800D01*
X92843600Y-141167800D02*
X92843600Y-142647800D01*
X92843600Y-144727800D02*
X92843600Y-146207800D01*
X92883600Y-141176800D02*
X92883600Y-142647800D01*
X92883600Y-144727800D02*
X92883600Y-146198800D01*
X92923600Y-141186800D02*
X92923600Y-142647800D01*
X92923600Y-144727800D02*
X92923600Y-146188800D01*
X92963600Y-141196800D02*
X92963600Y-142647800D01*
X92963600Y-144727800D02*
X92963600Y-146178800D01*
X93004600Y-141207800D02*
X93004600Y-142647800D01*
X93004600Y-144727800D02*
X93004600Y-146167800D01*
X93044600Y-141219800D02*
X93044600Y-142647800D01*
X93044600Y-144727800D02*
X93044600Y-146155800D01*
X93084600Y-141232800D02*
X93084600Y-142647800D01*
X93084600Y-144727800D02*
X93084600Y-146142800D01*
X93124600Y-141245800D02*
X93124600Y-142647800D01*
X93124600Y-144727800D02*
X93124600Y-146129800D01*
X93164600Y-141259800D02*
X93164600Y-142647800D01*
X93164600Y-144727800D02*
X93164600Y-146115800D01*
X93204600Y-141273800D02*
X93204600Y-142647800D01*
X93204600Y-144727800D02*
X93204600Y-146101800D01*
X93244600Y-141289800D02*
X93244600Y-142647800D01*
X93244600Y-144727800D02*
X93244600Y-146085800D01*
X93284600Y-141305800D02*
X93284600Y-142647800D01*
X93284600Y-144727800D02*
X93284600Y-146069800D01*
X93324600Y-141322800D02*
X93324600Y-142647800D01*
X93324600Y-144727800D02*
X93324600Y-146052800D01*
X93364600Y-141339800D02*
X93364600Y-142647800D01*
X93364600Y-144727800D02*
X93364600Y-146035800D01*
X93404600Y-141358800D02*
X93404600Y-142647800D01*
X93404600Y-144727800D02*
X93404600Y-146016800D01*
X93444600Y-141377800D02*
X93444600Y-142647800D01*
X93444600Y-144727800D02*
X93444600Y-145997800D01*
X93484600Y-141397800D02*
X93484600Y-142647800D01*
X93484600Y-144727800D02*
X93484600Y-145977800D01*
X93524600Y-141419800D02*
X93524600Y-142647800D01*
X93524600Y-144727800D02*
X93524600Y-145955800D01*
X93564600Y-141440800D02*
X93564600Y-142647800D01*
X93564600Y-144727800D02*
X93564600Y-145934800D01*
X93604600Y-141463800D02*
X93604600Y-142647800D01*
X93604600Y-144727800D02*
X93604600Y-145911800D01*
X93644600Y-141487800D02*
X93644600Y-142647800D01*
X93644600Y-144727800D02*
X93644600Y-145887800D01*
X93684600Y-141512800D02*
X93684600Y-142647800D01*
X93684600Y-144727800D02*
X93684600Y-145862800D01*
X93724600Y-141538800D02*
X93724600Y-142647800D01*
X93724600Y-144727800D02*
X93724600Y-145836800D01*
X93764600Y-141565800D02*
X93764600Y-142647800D01*
X93764600Y-144727800D02*
X93764600Y-145809800D01*
X93804600Y-141592800D02*
X93804600Y-142647800D01*
X93804600Y-144727800D02*
X93804600Y-145782800D01*
X93844600Y-141622800D02*
X93844600Y-142647800D01*
X93844600Y-144727800D02*
X93844600Y-145752800D01*
X93884600Y-141652800D02*
X93884600Y-142647800D01*
X93884600Y-144727800D02*
X93884600Y-145722800D01*
X93924600Y-141683800D02*
X93924600Y-142647800D01*
X93924600Y-144727800D02*
X93924600Y-145691800D01*
X93964600Y-141716800D02*
X93964600Y-142647800D01*
X93964600Y-144727800D02*
X93964600Y-145658800D01*
X94004600Y-141750800D02*
X94004600Y-142647800D01*
X94004600Y-144727800D02*
X94004600Y-145624800D01*
X94044600Y-141786800D02*
X94044600Y-142647800D01*
X94044600Y-144727800D02*
X94044600Y-145588800D01*
X94084600Y-141823800D02*
X94084600Y-142647800D01*
X94084600Y-144727800D02*
X94084600Y-145551800D01*
X94124600Y-141861800D02*
X94124600Y-142647800D01*
X94124600Y-144727800D02*
X94124600Y-145513800D01*
X94164600Y-141902800D02*
X94164600Y-142647800D01*
X94164600Y-144727800D02*
X94164600Y-145472800D01*
X94204600Y-141944800D02*
X94204600Y-142647800D01*
X94204600Y-144727800D02*
X94204600Y-145430800D01*
X94244600Y-141988800D02*
X94244600Y-142647800D01*
X94244600Y-144727800D02*
X94244600Y-145386800D01*
X94284600Y-142034800D02*
X94284600Y-142647800D01*
X94284600Y-144727800D02*
X94284600Y-145340800D01*
X94324600Y-142082800D02*
X94324600Y-142647800D01*
X94324600Y-144727800D02*
X94324600Y-145292800D01*
X94364600Y-142133800D02*
X94364600Y-142647800D01*
X94364600Y-144727800D02*
X94364600Y-145241800D01*
X94404600Y-142187800D02*
X94404600Y-142647800D01*
X94404600Y-144727800D02*
X94404600Y-145187800D01*
X94444600Y-142244800D02*
X94444600Y-142647800D01*
X94444600Y-144727800D02*
X94444600Y-145130800D01*
X94484600Y-142304800D02*
X94484600Y-142647800D01*
X94484600Y-144727800D02*
X94484600Y-145070800D01*
X94524600Y-142368800D02*
X94524600Y-142647800D01*
X94524600Y-144727800D02*
X94524600Y-145006800D01*
X94564600Y-142436800D02*
X94564600Y-142647800D01*
X94564600Y-144727800D02*
X94564600Y-144938800D01*
X94604600Y-142509800D02*
X94604600Y-144865800D01*
X94644600Y-142589800D02*
X94644600Y-144785800D01*
X94684600Y-142676800D02*
X94684600Y-144698800D01*
X94724600Y-142772800D02*
X94724600Y-144602800D01*
X94764600Y-142882800D02*
X94764600Y-144492800D01*
X94804600Y-143010800D02*
X94804600Y-144364800D01*
X94844600Y-143169800D02*
X94844600Y-144205800D01*
X94884600Y-143403800D02*
X94884600Y-143971800D01*
X89478825Y-142212800D02*
X89978825Y-142212800D01*
X89728825Y-141962800D02*
X89728825Y-142462800D01*
D11*
X81216666Y-118054380D02*
X80883333Y-117578190D01*
X80645238Y-118054380D02*
X80645238Y-117054380D01*
X81026190Y-117054380D01*
X81121428Y-117102000D01*
X81169047Y-117149619D01*
X81216666Y-117244857D01*
X81216666Y-117387714D01*
X81169047Y-117482952D01*
X81121428Y-117530571D01*
X81026190Y-117578190D01*
X80645238Y-117578190D01*
X81645238Y-117530571D02*
X81978571Y-117530571D01*
X82121428Y-118054380D02*
X81645238Y-118054380D01*
X81645238Y-117054380D01*
X82121428Y-117054380D01*
X82883333Y-117530571D02*
X82550000Y-117530571D01*
X82550000Y-118054380D02*
X82550000Y-117054380D01*
X83026190Y-117054380D01*
X83550000Y-117054380D02*
X83550000Y-117292476D01*
X83311904Y-117197238D02*
X83550000Y-117292476D01*
X83788095Y-117197238D01*
X83407142Y-117482952D02*
X83550000Y-117292476D01*
X83692857Y-117482952D01*
X84311904Y-117054380D02*
X84311904Y-117292476D01*
X84073809Y-117197238D02*
X84311904Y-117292476D01*
X84550000Y-117197238D01*
X84169047Y-117482952D02*
X84311904Y-117292476D01*
X84454761Y-117482952D01*
X107353266Y-87514580D02*
X107019933Y-87038390D01*
X106781838Y-87514580D02*
X106781838Y-86514580D01*
X107162790Y-86514580D01*
X107258028Y-86562200D01*
X107305647Y-86609819D01*
X107353266Y-86705057D01*
X107353266Y-86847914D01*
X107305647Y-86943152D01*
X107258028Y-86990771D01*
X107162790Y-87038390D01*
X106781838Y-87038390D01*
X107781838Y-86990771D02*
X108115171Y-86990771D01*
X108258028Y-87514580D02*
X107781838Y-87514580D01*
X107781838Y-86514580D01*
X108258028Y-86514580D01*
X109019933Y-86990771D02*
X108686600Y-86990771D01*
X108686600Y-87514580D02*
X108686600Y-86514580D01*
X109162790Y-86514580D01*
X109686600Y-86514580D02*
X109686600Y-86752676D01*
X109448504Y-86657438D02*
X109686600Y-86752676D01*
X109924695Y-86657438D01*
X109543742Y-86943152D02*
X109686600Y-86752676D01*
X109829457Y-86943152D01*
X110448504Y-86514580D02*
X110448504Y-86752676D01*
X110210409Y-86657438D02*
X110448504Y-86752676D01*
X110686600Y-86657438D01*
X110305647Y-86943152D02*
X110448504Y-86752676D01*
X110591361Y-86943152D01*
X93813380Y-114684133D02*
X94527666Y-114684133D01*
X94670523Y-114731752D01*
X94765761Y-114826990D01*
X94813380Y-114969847D01*
X94813380Y-115065085D01*
X93813380Y-114303180D02*
X93813380Y-113684133D01*
X94194333Y-114017466D01*
X94194333Y-113874609D01*
X94241952Y-113779371D01*
X94289571Y-113731752D01*
X94384809Y-113684133D01*
X94622904Y-113684133D01*
X94718142Y-113731752D01*
X94765761Y-113779371D01*
X94813380Y-113874609D01*
X94813380Y-114160323D01*
X94765761Y-114255561D01*
X94718142Y-114303180D01*
X61691780Y-120556257D02*
X61215590Y-120889590D01*
X61691780Y-121127685D02*
X60691780Y-121127685D01*
X60691780Y-120746733D01*
X60739400Y-120651495D01*
X60787019Y-120603876D01*
X60882257Y-120556257D01*
X61025114Y-120556257D01*
X61120352Y-120603876D01*
X61167971Y-120651495D01*
X61215590Y-120746733D01*
X61215590Y-121127685D01*
X60691780Y-120222923D02*
X60691780Y-119603876D01*
X61072733Y-119937209D01*
X61072733Y-119794352D01*
X61120352Y-119699114D01*
X61167971Y-119651495D01*
X61263209Y-119603876D01*
X61501304Y-119603876D01*
X61596542Y-119651495D01*
X61644161Y-119699114D01*
X61691780Y-119794352D01*
X61691780Y-120080066D01*
X61644161Y-120175304D01*
X61596542Y-120222923D01*
X60691780Y-118699114D02*
X60691780Y-119175304D01*
X61167971Y-119222923D01*
X61120352Y-119175304D01*
X61072733Y-119080066D01*
X61072733Y-118841971D01*
X61120352Y-118746733D01*
X61167971Y-118699114D01*
X61263209Y-118651495D01*
X61501304Y-118651495D01*
X61596542Y-118699114D01*
X61644161Y-118746733D01*
X61691780Y-118841971D01*
X61691780Y-119080066D01*
X61644161Y-119175304D01*
X61596542Y-119222923D01*
X59310542Y-120505457D02*
X59358161Y-120553076D01*
X59405780Y-120695933D01*
X59405780Y-120791171D01*
X59358161Y-120934028D01*
X59262923Y-121029266D01*
X59167685Y-121076885D01*
X58977209Y-121124504D01*
X58834352Y-121124504D01*
X58643876Y-121076885D01*
X58548638Y-121029266D01*
X58453400Y-120934028D01*
X58405780Y-120791171D01*
X58405780Y-120695933D01*
X58453400Y-120553076D01*
X58501019Y-120505457D01*
X59405780Y-119553076D02*
X59405780Y-120124504D01*
X59405780Y-119838790D02*
X58405780Y-119838790D01*
X58548638Y-119934028D01*
X58643876Y-120029266D01*
X58691495Y-120124504D01*
X58405780Y-118695933D02*
X58405780Y-118886409D01*
X58453400Y-118981647D01*
X58501019Y-119029266D01*
X58643876Y-119124504D01*
X58834352Y-119172123D01*
X59215304Y-119172123D01*
X59310542Y-119124504D01*
X59358161Y-119076885D01*
X59405780Y-118981647D01*
X59405780Y-118791171D01*
X59358161Y-118695933D01*
X59310542Y-118648314D01*
X59215304Y-118600695D01*
X58977209Y-118600695D01*
X58881971Y-118648314D01*
X58834352Y-118695933D01*
X58786733Y-118791171D01*
X58786733Y-118981647D01*
X58834352Y-119076885D01*
X58881971Y-119124504D01*
X58977209Y-119172123D01*
X63774580Y-120956295D02*
X62774580Y-120956295D01*
X62774580Y-120718200D01*
X62822200Y-120575342D01*
X62917438Y-120480104D01*
X63012676Y-120432485D01*
X63203152Y-120384866D01*
X63346009Y-120384866D01*
X63536485Y-120432485D01*
X63631723Y-120480104D01*
X63726961Y-120575342D01*
X63774580Y-120718200D01*
X63774580Y-120956295D01*
X63774580Y-119432485D02*
X63774580Y-120003914D01*
X63774580Y-119718200D02*
X62774580Y-119718200D01*
X62917438Y-119813438D01*
X63012676Y-119908676D01*
X63060295Y-120003914D01*
X70657980Y-120403857D02*
X70181790Y-120737190D01*
X70657980Y-120975285D02*
X69657980Y-120975285D01*
X69657980Y-120594333D01*
X69705600Y-120499095D01*
X69753219Y-120451476D01*
X69848457Y-120403857D01*
X69991314Y-120403857D01*
X70086552Y-120451476D01*
X70134171Y-120499095D01*
X70181790Y-120594333D01*
X70181790Y-120975285D01*
X69753219Y-120022904D02*
X69705600Y-119975285D01*
X69657980Y-119880047D01*
X69657980Y-119641952D01*
X69705600Y-119546714D01*
X69753219Y-119499095D01*
X69848457Y-119451476D01*
X69943695Y-119451476D01*
X70086552Y-119499095D01*
X70657980Y-120070523D01*
X70657980Y-119451476D01*
X69657980Y-119118142D02*
X69657980Y-118451476D01*
X70657980Y-118880047D01*
X81373742Y-137917180D02*
X81040409Y-137440990D01*
X80802314Y-137917180D02*
X80802314Y-136917180D01*
X81183266Y-136917180D01*
X81278504Y-136964800D01*
X81326123Y-137012419D01*
X81373742Y-137107657D01*
X81373742Y-137250514D01*
X81326123Y-137345752D01*
X81278504Y-137393371D01*
X81183266Y-137440990D01*
X80802314Y-137440990D01*
X82326123Y-137917180D02*
X81754695Y-137917180D01*
X82040409Y-137917180D02*
X82040409Y-136917180D01*
X81945171Y-137060038D01*
X81849933Y-137155276D01*
X81754695Y-137202895D01*
X83183266Y-137250514D02*
X83183266Y-137917180D01*
X82945171Y-136869561D02*
X82707076Y-137583847D01*
X83326123Y-137583847D01*
X82037180Y-123731257D02*
X81560990Y-124064590D01*
X82037180Y-124302685D02*
X81037180Y-124302685D01*
X81037180Y-123921733D01*
X81084800Y-123826495D01*
X81132419Y-123778876D01*
X81227657Y-123731257D01*
X81370514Y-123731257D01*
X81465752Y-123778876D01*
X81513371Y-123826495D01*
X81560990Y-123921733D01*
X81560990Y-124302685D01*
X81132419Y-123350304D02*
X81084800Y-123302685D01*
X81037180Y-123207447D01*
X81037180Y-122969352D01*
X81084800Y-122874114D01*
X81132419Y-122826495D01*
X81227657Y-122778876D01*
X81322895Y-122778876D01*
X81465752Y-122826495D01*
X82037180Y-123397923D01*
X82037180Y-122778876D01*
X81037180Y-122445542D02*
X81037180Y-121826495D01*
X81418133Y-122159828D01*
X81418133Y-122016971D01*
X81465752Y-121921733D01*
X81513371Y-121874114D01*
X81608609Y-121826495D01*
X81846704Y-121826495D01*
X81941942Y-121874114D01*
X81989561Y-121921733D01*
X82037180Y-122016971D01*
X82037180Y-122302685D01*
X81989561Y-122397923D01*
X81941942Y-122445542D01*
X65114580Y-129819304D02*
X65924104Y-129819304D01*
X66019342Y-129771685D01*
X66066961Y-129724066D01*
X66114580Y-129628828D01*
X66114580Y-129438352D01*
X66066961Y-129343114D01*
X66019342Y-129295495D01*
X65924104Y-129247876D01*
X65114580Y-129247876D01*
X65114580Y-128866923D02*
X65114580Y-128247876D01*
X65495533Y-128581209D01*
X65495533Y-128438352D01*
X65543152Y-128343114D01*
X65590771Y-128295495D01*
X65686009Y-128247876D01*
X65924104Y-128247876D01*
X66019342Y-128295495D01*
X66066961Y-128343114D01*
X66114580Y-128438352D01*
X66114580Y-128724066D01*
X66066961Y-128819304D01*
X66019342Y-128866923D01*
X81272142Y-135554980D02*
X80938809Y-135078790D01*
X80700714Y-135554980D02*
X80700714Y-134554980D01*
X81081666Y-134554980D01*
X81176904Y-134602600D01*
X81224523Y-134650219D01*
X81272142Y-134745457D01*
X81272142Y-134888314D01*
X81224523Y-134983552D01*
X81176904Y-135031171D01*
X81081666Y-135078790D01*
X80700714Y-135078790D01*
X82224523Y-135554980D02*
X81653095Y-135554980D01*
X81938809Y-135554980D02*
X81938809Y-134554980D01*
X81843571Y-134697838D01*
X81748333Y-134793076D01*
X81653095Y-134840695D01*
X83129285Y-134554980D02*
X82653095Y-134554980D01*
X82605476Y-135031171D01*
X82653095Y-134983552D01*
X82748333Y-134935933D01*
X82986428Y-134935933D01*
X83081666Y-134983552D01*
X83129285Y-135031171D01*
X83176904Y-135126409D01*
X83176904Y-135364504D01*
X83129285Y-135459742D01*
X83081666Y-135507361D01*
X82986428Y-135554980D01*
X82748333Y-135554980D01*
X82653095Y-135507361D01*
X82605476Y-135459742D01*
X82214980Y-127619757D02*
X81738790Y-127953090D01*
X82214980Y-128191185D02*
X81214980Y-128191185D01*
X81214980Y-127810233D01*
X81262600Y-127714995D01*
X81310219Y-127667376D01*
X81405457Y-127619757D01*
X81548314Y-127619757D01*
X81643552Y-127667376D01*
X81691171Y-127714995D01*
X81738790Y-127810233D01*
X81738790Y-128191185D01*
X81310219Y-127238804D02*
X81262600Y-127191185D01*
X81214980Y-127095947D01*
X81214980Y-126857852D01*
X81262600Y-126762614D01*
X81310219Y-126714995D01*
X81405457Y-126667376D01*
X81500695Y-126667376D01*
X81643552Y-126714995D01*
X82214980Y-127286423D01*
X82214980Y-126667376D01*
X81214980Y-125762614D02*
X81214980Y-126238804D01*
X81691171Y-126286423D01*
X81643552Y-126238804D01*
X81595933Y-126143566D01*
X81595933Y-125905471D01*
X81643552Y-125810233D01*
X81691171Y-125762614D01*
X81786409Y-125714995D01*
X82024504Y-125714995D01*
X82119742Y-125762614D01*
X82167361Y-125810233D01*
X82214980Y-125905471D01*
X82214980Y-126143566D01*
X82167361Y-126238804D01*
X82119742Y-126286423D01*
X74718942Y-122677180D02*
X74385609Y-122200990D01*
X74147514Y-122677180D02*
X74147514Y-121677180D01*
X74528466Y-121677180D01*
X74623704Y-121724800D01*
X74671323Y-121772419D01*
X74718942Y-121867657D01*
X74718942Y-122010514D01*
X74671323Y-122105752D01*
X74623704Y-122153371D01*
X74528466Y-122200990D01*
X74147514Y-122200990D01*
X75099895Y-121772419D02*
X75147514Y-121724800D01*
X75242752Y-121677180D01*
X75480847Y-121677180D01*
X75576085Y-121724800D01*
X75623704Y-121772419D01*
X75671323Y-121867657D01*
X75671323Y-121962895D01*
X75623704Y-122105752D01*
X75052276Y-122677180D01*
X75671323Y-122677180D01*
X76623704Y-122677180D02*
X76052276Y-122677180D01*
X76337990Y-122677180D02*
X76337990Y-121677180D01*
X76242752Y-121820038D01*
X76147514Y-121915276D01*
X76052276Y-121962895D01*
X81884780Y-132618957D02*
X81408590Y-132952290D01*
X81884780Y-133190385D02*
X80884780Y-133190385D01*
X80884780Y-132809433D01*
X80932400Y-132714195D01*
X80980019Y-132666576D01*
X81075257Y-132618957D01*
X81218114Y-132618957D01*
X81313352Y-132666576D01*
X81360971Y-132714195D01*
X81408590Y-132809433D01*
X81408590Y-133190385D01*
X81884780Y-131666576D02*
X81884780Y-132238004D01*
X81884780Y-131952290D02*
X80884780Y-131952290D01*
X81027638Y-132047528D01*
X81122876Y-132142766D01*
X81170495Y-132238004D01*
X81313352Y-131095147D02*
X81265733Y-131190385D01*
X81218114Y-131238004D01*
X81122876Y-131285623D01*
X81075257Y-131285623D01*
X80980019Y-131238004D01*
X80932400Y-131190385D01*
X80884780Y-131095147D01*
X80884780Y-130904671D01*
X80932400Y-130809433D01*
X80980019Y-130761814D01*
X81075257Y-130714195D01*
X81122876Y-130714195D01*
X81218114Y-130761814D01*
X81265733Y-130809433D01*
X81313352Y-130904671D01*
X81313352Y-131095147D01*
X81360971Y-131190385D01*
X81408590Y-131238004D01*
X81503828Y-131285623D01*
X81694304Y-131285623D01*
X81789542Y-131238004D01*
X81837161Y-131190385D01*
X81884780Y-131095147D01*
X81884780Y-130904671D01*
X81837161Y-130809433D01*
X81789542Y-130761814D01*
X81694304Y-130714195D01*
X81503828Y-130714195D01*
X81408590Y-130761814D01*
X81360971Y-130809433D01*
X81313352Y-130904671D01*
X68676780Y-120403857D02*
X68200590Y-120737190D01*
X68676780Y-120975285D02*
X67676780Y-120975285D01*
X67676780Y-120594333D01*
X67724400Y-120499095D01*
X67772019Y-120451476D01*
X67867257Y-120403857D01*
X68010114Y-120403857D01*
X68105352Y-120451476D01*
X68152971Y-120499095D01*
X68200590Y-120594333D01*
X68200590Y-120975285D01*
X67772019Y-120022904D02*
X67724400Y-119975285D01*
X67676780Y-119880047D01*
X67676780Y-119641952D01*
X67724400Y-119546714D01*
X67772019Y-119499095D01*
X67867257Y-119451476D01*
X67962495Y-119451476D01*
X68105352Y-119499095D01*
X68676780Y-120070523D01*
X68676780Y-119451476D01*
X68676780Y-118975285D02*
X68676780Y-118784809D01*
X68629161Y-118689571D01*
X68581542Y-118641952D01*
X68438685Y-118546714D01*
X68248209Y-118499095D01*
X67867257Y-118499095D01*
X67772019Y-118546714D01*
X67724400Y-118594333D01*
X67676780Y-118689571D01*
X67676780Y-118880047D01*
X67724400Y-118975285D01*
X67772019Y-119022904D01*
X67867257Y-119070523D01*
X68105352Y-119070523D01*
X68200590Y-119022904D01*
X68248209Y-118975285D01*
X68295828Y-118880047D01*
X68295828Y-118689571D01*
X68248209Y-118594333D01*
X68200590Y-118546714D01*
X68105352Y-118499095D01*
X66720980Y-120475457D02*
X66244790Y-120808790D01*
X66720980Y-121046885D02*
X65720980Y-121046885D01*
X65720980Y-120665933D01*
X65768600Y-120570695D01*
X65816219Y-120523076D01*
X65911457Y-120475457D01*
X66054314Y-120475457D01*
X66149552Y-120523076D01*
X66197171Y-120570695D01*
X66244790Y-120665933D01*
X66244790Y-121046885D01*
X65720980Y-120142123D02*
X65720980Y-119523076D01*
X66101933Y-119856409D01*
X66101933Y-119713552D01*
X66149552Y-119618314D01*
X66197171Y-119570695D01*
X66292409Y-119523076D01*
X66530504Y-119523076D01*
X66625742Y-119570695D01*
X66673361Y-119618314D01*
X66720980Y-119713552D01*
X66720980Y-119999266D01*
X66673361Y-120094504D01*
X66625742Y-120142123D01*
X66720980Y-118570695D02*
X66720980Y-119142123D01*
X66720980Y-118856409D02*
X65720980Y-118856409D01*
X65863838Y-118951647D01*
X65959076Y-119046885D01*
X66006695Y-119142123D01*
X69845180Y-138876066D02*
X69368990Y-139209400D01*
X69845180Y-139447495D02*
X68845180Y-139447495D01*
X68845180Y-139066542D01*
X68892800Y-138971304D01*
X68940419Y-138923685D01*
X69035657Y-138876066D01*
X69178514Y-138876066D01*
X69273752Y-138923685D01*
X69321371Y-138971304D01*
X69368990Y-139066542D01*
X69368990Y-139447495D01*
X69845180Y-137923685D02*
X69845180Y-138495114D01*
X69845180Y-138209400D02*
X68845180Y-138209400D01*
X68988038Y-138304638D01*
X69083276Y-138399876D01*
X69130895Y-138495114D01*
X75991980Y-139941057D02*
X75515790Y-140274390D01*
X75991980Y-140512485D02*
X74991980Y-140512485D01*
X74991980Y-140131533D01*
X75039600Y-140036295D01*
X75087219Y-139988676D01*
X75182457Y-139941057D01*
X75325314Y-139941057D01*
X75420552Y-139988676D01*
X75468171Y-140036295D01*
X75515790Y-140131533D01*
X75515790Y-140512485D01*
X75991980Y-138988676D02*
X75991980Y-139560104D01*
X75991980Y-139274390D02*
X74991980Y-139274390D01*
X75134838Y-139369628D01*
X75230076Y-139464866D01*
X75277695Y-139560104D01*
X75087219Y-138607723D02*
X75039600Y-138560104D01*
X74991980Y-138464866D01*
X74991980Y-138226771D01*
X75039600Y-138131533D01*
X75087219Y-138083914D01*
X75182457Y-138036295D01*
X75277695Y-138036295D01*
X75420552Y-138083914D01*
X75991980Y-138655342D01*
X75991980Y-138036295D01*
X73782180Y-139763257D02*
X73305990Y-140096590D01*
X73782180Y-140334685D02*
X72782180Y-140334685D01*
X72782180Y-139953733D01*
X72829800Y-139858495D01*
X72877419Y-139810876D01*
X72972657Y-139763257D01*
X73115514Y-139763257D01*
X73210752Y-139810876D01*
X73258371Y-139858495D01*
X73305990Y-139953733D01*
X73305990Y-140334685D01*
X73782180Y-138810876D02*
X73782180Y-139382304D01*
X73782180Y-139096590D02*
X72782180Y-139096590D01*
X72925038Y-139191828D01*
X73020276Y-139287066D01*
X73067895Y-139382304D01*
X72782180Y-138191828D02*
X72782180Y-138096590D01*
X72829800Y-138001352D01*
X72877419Y-137953733D01*
X72972657Y-137906114D01*
X73163133Y-137858495D01*
X73401228Y-137858495D01*
X73591704Y-137906114D01*
X73686942Y-137953733D01*
X73734561Y-138001352D01*
X73782180Y-138096590D01*
X73782180Y-138191828D01*
X73734561Y-138287066D01*
X73686942Y-138334685D01*
X73591704Y-138382304D01*
X73401228Y-138429923D01*
X73163133Y-138429923D01*
X72972657Y-138382304D01*
X72877419Y-138334685D01*
X72829800Y-138287066D01*
X72782180Y-138191828D01*
X64917580Y-139282466D02*
X64441390Y-139615800D01*
X64917580Y-139853895D02*
X63917580Y-139853895D01*
X63917580Y-139472942D01*
X63965200Y-139377704D01*
X64012819Y-139330085D01*
X64108057Y-139282466D01*
X64250914Y-139282466D01*
X64346152Y-139330085D01*
X64393771Y-139377704D01*
X64441390Y-139472942D01*
X64441390Y-139853895D01*
X63917580Y-138949133D02*
X63917580Y-138282466D01*
X64917580Y-138711038D01*
X60980580Y-139132366D02*
X60504390Y-139465700D01*
X60980580Y-139703795D02*
X59980580Y-139703795D01*
X59980580Y-139322842D01*
X60028200Y-139227604D01*
X60075819Y-139179985D01*
X60171057Y-139132366D01*
X60313914Y-139132366D01*
X60409152Y-139179985D01*
X60456771Y-139227604D01*
X60504390Y-139322842D01*
X60504390Y-139703795D01*
X59980580Y-138227604D02*
X59980580Y-138703795D01*
X60456771Y-138751414D01*
X60409152Y-138703795D01*
X60361533Y-138608557D01*
X60361533Y-138370461D01*
X60409152Y-138275223D01*
X60456771Y-138227604D01*
X60552009Y-138179985D01*
X60790104Y-138179985D01*
X60885342Y-138227604D01*
X60932961Y-138275223D01*
X60980580Y-138370461D01*
X60980580Y-138608557D01*
X60932961Y-138703795D01*
X60885342Y-138751414D01*
X67660780Y-138977666D02*
X67184590Y-139311000D01*
X67660780Y-139549095D02*
X66660780Y-139549095D01*
X66660780Y-139168142D01*
X66708400Y-139072904D01*
X66756019Y-139025285D01*
X66851257Y-138977666D01*
X66994114Y-138977666D01*
X67089352Y-139025285D01*
X67136971Y-139072904D01*
X67184590Y-139168142D01*
X67184590Y-139549095D01*
X66756019Y-138596714D02*
X66708400Y-138549095D01*
X66660780Y-138453857D01*
X66660780Y-138215761D01*
X66708400Y-138120523D01*
X66756019Y-138072904D01*
X66851257Y-138025285D01*
X66946495Y-138025285D01*
X67089352Y-138072904D01*
X67660780Y-138644333D01*
X67660780Y-138025285D01*
X77441062Y-131386817D02*
X77488681Y-131434436D01*
X77536300Y-131577293D01*
X77536300Y-131672531D01*
X77488681Y-131815388D01*
X77393443Y-131910626D01*
X77298205Y-131958245D01*
X77107729Y-132005864D01*
X76964872Y-132005864D01*
X76774396Y-131958245D01*
X76679158Y-131910626D01*
X76583920Y-131815388D01*
X76536300Y-131672531D01*
X76536300Y-131577293D01*
X76583920Y-131434436D01*
X76631539Y-131386817D01*
X77536300Y-130434436D02*
X77536300Y-131005864D01*
X77536300Y-130720150D02*
X76536300Y-130720150D01*
X76679158Y-130815388D01*
X76774396Y-130910626D01*
X76822015Y-131005864D01*
X76869634Y-129577293D02*
X77536300Y-129577293D01*
X76488681Y-129815388D02*
X77202967Y-130053483D01*
X77202967Y-129434436D01*
X72543942Y-120403857D02*
X72591561Y-120451476D01*
X72639180Y-120594333D01*
X72639180Y-120689571D01*
X72591561Y-120832428D01*
X72496323Y-120927666D01*
X72401085Y-120975285D01*
X72210609Y-121022904D01*
X72067752Y-121022904D01*
X71877276Y-120975285D01*
X71782038Y-120927666D01*
X71686800Y-120832428D01*
X71639180Y-120689571D01*
X71639180Y-120594333D01*
X71686800Y-120451476D01*
X71734419Y-120403857D01*
X72639180Y-119451476D02*
X72639180Y-120022904D01*
X72639180Y-119737190D02*
X71639180Y-119737190D01*
X71782038Y-119832428D01*
X71877276Y-119927666D01*
X71924895Y-120022904D01*
X71734419Y-119070523D02*
X71686800Y-119022904D01*
X71639180Y-118927666D01*
X71639180Y-118689571D01*
X71686800Y-118594333D01*
X71734419Y-118546714D01*
X71829657Y-118499095D01*
X71924895Y-118499095D01*
X72067752Y-118546714D01*
X72639180Y-119118142D01*
X72639180Y-118499095D01*
X61121233Y-132259342D02*
X61073614Y-132306961D01*
X60930757Y-132354580D01*
X60835519Y-132354580D01*
X60692661Y-132306961D01*
X60597423Y-132211723D01*
X60549804Y-132116485D01*
X60502185Y-131926009D01*
X60502185Y-131783152D01*
X60549804Y-131592676D01*
X60597423Y-131497438D01*
X60692661Y-131402200D01*
X60835519Y-131354580D01*
X60930757Y-131354580D01*
X61073614Y-131402200D01*
X61121233Y-131449819D01*
X61978376Y-131354580D02*
X61787900Y-131354580D01*
X61692661Y-131402200D01*
X61645042Y-131449819D01*
X61549804Y-131592676D01*
X61502185Y-131783152D01*
X61502185Y-132164104D01*
X61549804Y-132259342D01*
X61597423Y-132306961D01*
X61692661Y-132354580D01*
X61883138Y-132354580D01*
X61978376Y-132306961D01*
X62025995Y-132259342D01*
X62073614Y-132164104D01*
X62073614Y-131926009D01*
X62025995Y-131830771D01*
X61978376Y-131783152D01*
X61883138Y-131735533D01*
X61692661Y-131735533D01*
X61597423Y-131783152D01*
X61549804Y-131830771D01*
X61502185Y-131926009D01*
X71781942Y-139407166D02*
X71829561Y-139454785D01*
X71877180Y-139597642D01*
X71877180Y-139692880D01*
X71829561Y-139835738D01*
X71734323Y-139930976D01*
X71639085Y-139978595D01*
X71448609Y-140026214D01*
X71305752Y-140026214D01*
X71115276Y-139978595D01*
X71020038Y-139930976D01*
X70924800Y-139835738D01*
X70877180Y-139692880D01*
X70877180Y-139597642D01*
X70924800Y-139454785D01*
X70972419Y-139407166D01*
X71877180Y-138930976D02*
X71877180Y-138740500D01*
X71829561Y-138645261D01*
X71781942Y-138597642D01*
X71639085Y-138502404D01*
X71448609Y-138454785D01*
X71067657Y-138454785D01*
X70972419Y-138502404D01*
X70924800Y-138550023D01*
X70877180Y-138645261D01*
X70877180Y-138835738D01*
X70924800Y-138930976D01*
X70972419Y-138978595D01*
X71067657Y-139026214D01*
X71305752Y-139026214D01*
X71400990Y-138978595D01*
X71448609Y-138930976D01*
X71496228Y-138835738D01*
X71496228Y-138645261D01*
X71448609Y-138550023D01*
X71400990Y-138502404D01*
X71305752Y-138454785D01*
X68591180Y-152834933D02*
X69305466Y-152834933D01*
X69448323Y-152882552D01*
X69543561Y-152977790D01*
X69591180Y-153120647D01*
X69591180Y-153215885D01*
X69591180Y-151834933D02*
X69591180Y-152406361D01*
X69591180Y-152120647D02*
X68591180Y-152120647D01*
X68734038Y-152215885D01*
X68829276Y-152311123D01*
X68876895Y-152406361D01*
X90636033Y-133351542D02*
X90588414Y-133399161D01*
X90445557Y-133446780D01*
X90350319Y-133446780D01*
X90207461Y-133399161D01*
X90112223Y-133303923D01*
X90064604Y-133208685D01*
X90016985Y-133018209D01*
X90016985Y-132875352D01*
X90064604Y-132684876D01*
X90112223Y-132589638D01*
X90207461Y-132494400D01*
X90350319Y-132446780D01*
X90445557Y-132446780D01*
X90588414Y-132494400D01*
X90636033Y-132542019D01*
X90969366Y-132446780D02*
X91636033Y-132446780D01*
X91207461Y-133446780D01*
X101296742Y-140975557D02*
X101344361Y-141023176D01*
X101391980Y-141166033D01*
X101391980Y-141261271D01*
X101344361Y-141404128D01*
X101249123Y-141499366D01*
X101153885Y-141546985D01*
X100963409Y-141594604D01*
X100820552Y-141594604D01*
X100630076Y-141546985D01*
X100534838Y-141499366D01*
X100439600Y-141404128D01*
X100391980Y-141261271D01*
X100391980Y-141166033D01*
X100439600Y-141023176D01*
X100487219Y-140975557D01*
X101391980Y-140023176D02*
X101391980Y-140594604D01*
X101391980Y-140308890D02*
X100391980Y-140308890D01*
X100534838Y-140404128D01*
X100630076Y-140499366D01*
X100677695Y-140594604D01*
X100391980Y-139404128D02*
X100391980Y-139308890D01*
X100439600Y-139213652D01*
X100487219Y-139166033D01*
X100582457Y-139118414D01*
X100772933Y-139070795D01*
X101011028Y-139070795D01*
X101201504Y-139118414D01*
X101296742Y-139166033D01*
X101344361Y-139213652D01*
X101391980Y-139308890D01*
X101391980Y-139404128D01*
X101344361Y-139499366D01*
X101296742Y-139546985D01*
X101201504Y-139594604D01*
X101011028Y-139642223D01*
X100772933Y-139642223D01*
X100582457Y-139594604D01*
X100487219Y-139546985D01*
X100439600Y-139499366D01*
X100391980Y-139404128D01*
X102058742Y-121496057D02*
X102106361Y-121543676D01*
X102153980Y-121686533D01*
X102153980Y-121781771D01*
X102106361Y-121924628D01*
X102011123Y-122019866D01*
X101915885Y-122067485D01*
X101725409Y-122115104D01*
X101582552Y-122115104D01*
X101392076Y-122067485D01*
X101296838Y-122019866D01*
X101201600Y-121924628D01*
X101153980Y-121781771D01*
X101153980Y-121686533D01*
X101201600Y-121543676D01*
X101249219Y-121496057D01*
X102153980Y-120543676D02*
X102153980Y-121115104D01*
X102153980Y-120829390D02*
X101153980Y-120829390D01*
X101296838Y-120924628D01*
X101392076Y-121019866D01*
X101439695Y-121115104D01*
X101153980Y-120210342D02*
X101153980Y-119591295D01*
X101534933Y-119924628D01*
X101534933Y-119781771D01*
X101582552Y-119686533D01*
X101630171Y-119638914D01*
X101725409Y-119591295D01*
X101963504Y-119591295D01*
X102058742Y-119638914D01*
X102106361Y-119686533D01*
X102153980Y-119781771D01*
X102153980Y-120067485D01*
X102106361Y-120162723D01*
X102058742Y-120210342D01*
X106978722Y-132334237D02*
X107026341Y-132381856D01*
X107073960Y-132524713D01*
X107073960Y-132619951D01*
X107026341Y-132762808D01*
X106931103Y-132858046D01*
X106835865Y-132905665D01*
X106645389Y-132953284D01*
X106502532Y-132953284D01*
X106312056Y-132905665D01*
X106216818Y-132858046D01*
X106121580Y-132762808D01*
X106073960Y-132619951D01*
X106073960Y-132524713D01*
X106121580Y-132381856D01*
X106169199Y-132334237D01*
X107073960Y-131381856D02*
X107073960Y-131953284D01*
X107073960Y-131667570D02*
X106073960Y-131667570D01*
X106216818Y-131762808D01*
X106312056Y-131858046D01*
X106359675Y-131953284D01*
X106073960Y-130477094D02*
X106073960Y-130953284D01*
X106550151Y-131000903D01*
X106502532Y-130953284D01*
X106454913Y-130858046D01*
X106454913Y-130619951D01*
X106502532Y-130524713D01*
X106550151Y-130477094D01*
X106645389Y-130429475D01*
X106883484Y-130429475D01*
X106978722Y-130477094D01*
X107026341Y-130524713D01*
X107073960Y-130619951D01*
X107073960Y-130858046D01*
X107026341Y-130953284D01*
X106978722Y-131000903D01*
X88241142Y-121877057D02*
X88288761Y-121924676D01*
X88336380Y-122067533D01*
X88336380Y-122162771D01*
X88288761Y-122305628D01*
X88193523Y-122400866D01*
X88098285Y-122448485D01*
X87907809Y-122496104D01*
X87764952Y-122496104D01*
X87574476Y-122448485D01*
X87479238Y-122400866D01*
X87384000Y-122305628D01*
X87336380Y-122162771D01*
X87336380Y-122067533D01*
X87384000Y-121924676D01*
X87431619Y-121877057D01*
X88336380Y-120924676D02*
X88336380Y-121496104D01*
X88336380Y-121210390D02*
X87336380Y-121210390D01*
X87479238Y-121305628D01*
X87574476Y-121400866D01*
X87622095Y-121496104D01*
X87336380Y-120591342D02*
X87336380Y-119924676D01*
X88336380Y-120353247D01*
X112237780Y-148736333D02*
X112952066Y-148736333D01*
X113094923Y-148783952D01*
X113190161Y-148879190D01*
X113237780Y-149022047D01*
X113237780Y-149117285D01*
X112333019Y-148307761D02*
X112285400Y-148260142D01*
X112237780Y-148164904D01*
X112237780Y-147926809D01*
X112285400Y-147831571D01*
X112333019Y-147783952D01*
X112428257Y-147736333D01*
X112523495Y-147736333D01*
X112666352Y-147783952D01*
X113237780Y-148355380D01*
X113237780Y-147736333D01*
X99359980Y-139968266D02*
X98883790Y-140301600D01*
X99359980Y-140539695D02*
X98359980Y-140539695D01*
X98359980Y-140158742D01*
X98407600Y-140063504D01*
X98455219Y-140015885D01*
X98550457Y-139968266D01*
X98693314Y-139968266D01*
X98788552Y-140015885D01*
X98836171Y-140063504D01*
X98883790Y-140158742D01*
X98883790Y-140539695D01*
X98359980Y-139634933D02*
X98359980Y-139015885D01*
X98740933Y-139349219D01*
X98740933Y-139206361D01*
X98788552Y-139111123D01*
X98836171Y-139063504D01*
X98931409Y-139015885D01*
X99169504Y-139015885D01*
X99264742Y-139063504D01*
X99312361Y-139111123D01*
X99359980Y-139206361D01*
X99359980Y-139492076D01*
X99312361Y-139587314D01*
X99264742Y-139634933D01*
X97175580Y-140069866D02*
X96699390Y-140403200D01*
X97175580Y-140641295D02*
X96175580Y-140641295D01*
X96175580Y-140260342D01*
X96223200Y-140165104D01*
X96270819Y-140117485D01*
X96366057Y-140069866D01*
X96508914Y-140069866D01*
X96604152Y-140117485D01*
X96651771Y-140165104D01*
X96699390Y-140260342D01*
X96699390Y-140641295D01*
X96508914Y-139212723D02*
X97175580Y-139212723D01*
X96127961Y-139450819D02*
X96842247Y-139688914D01*
X96842247Y-139069866D01*
X90495380Y-140224566D02*
X90019190Y-140557900D01*
X90495380Y-140795995D02*
X89495380Y-140795995D01*
X89495380Y-140415042D01*
X89543000Y-140319804D01*
X89590619Y-140272185D01*
X89685857Y-140224566D01*
X89828714Y-140224566D01*
X89923952Y-140272185D01*
X89971571Y-140319804D01*
X90019190Y-140415042D01*
X90019190Y-140795995D01*
X89495380Y-139367423D02*
X89495380Y-139557900D01*
X89543000Y-139653138D01*
X89590619Y-139700757D01*
X89733476Y-139795995D01*
X89923952Y-139843614D01*
X90304904Y-139843614D01*
X90400142Y-139795995D01*
X90447761Y-139748376D01*
X90495380Y-139653138D01*
X90495380Y-139462661D01*
X90447761Y-139367423D01*
X90400142Y-139319804D01*
X90304904Y-139272185D01*
X90066809Y-139272185D01*
X89971571Y-139319804D01*
X89923952Y-139367423D01*
X89876333Y-139462661D01*
X89876333Y-139653138D01*
X89923952Y-139748376D01*
X89971571Y-139795995D01*
X90066809Y-139843614D01*
X94432380Y-140374666D02*
X93956190Y-140708000D01*
X94432380Y-140946095D02*
X93432380Y-140946095D01*
X93432380Y-140565142D01*
X93480000Y-140469904D01*
X93527619Y-140422285D01*
X93622857Y-140374666D01*
X93765714Y-140374666D01*
X93860952Y-140422285D01*
X93908571Y-140469904D01*
X93956190Y-140565142D01*
X93956190Y-140946095D01*
X93860952Y-139803238D02*
X93813333Y-139898476D01*
X93765714Y-139946095D01*
X93670476Y-139993714D01*
X93622857Y-139993714D01*
X93527619Y-139946095D01*
X93480000Y-139898476D01*
X93432380Y-139803238D01*
X93432380Y-139612761D01*
X93480000Y-139517523D01*
X93527619Y-139469904D01*
X93622857Y-139422285D01*
X93670476Y-139422285D01*
X93765714Y-139469904D01*
X93813333Y-139517523D01*
X93860952Y-139612761D01*
X93860952Y-139803238D01*
X93908571Y-139898476D01*
X93956190Y-139946095D01*
X94051428Y-139993714D01*
X94241904Y-139993714D01*
X94337142Y-139946095D01*
X94384761Y-139898476D01*
X94432380Y-139803238D01*
X94432380Y-139612761D01*
X94384761Y-139517523D01*
X94337142Y-139469904D01*
X94241904Y-139422285D01*
X94051428Y-139422285D01*
X93956190Y-139469904D01*
X93908571Y-139517523D01*
X93860952Y-139612761D01*
X103296980Y-140855457D02*
X102820790Y-141188790D01*
X103296980Y-141426885D02*
X102296980Y-141426885D01*
X102296980Y-141045933D01*
X102344600Y-140950695D01*
X102392219Y-140903076D01*
X102487457Y-140855457D01*
X102630314Y-140855457D01*
X102725552Y-140903076D01*
X102773171Y-140950695D01*
X102820790Y-141045933D01*
X102820790Y-141426885D01*
X103296980Y-139903076D02*
X103296980Y-140474504D01*
X103296980Y-140188790D02*
X102296980Y-140188790D01*
X102439838Y-140284028D01*
X102535076Y-140379266D01*
X102582695Y-140474504D01*
X103296980Y-138950695D02*
X103296980Y-139522123D01*
X103296980Y-139236409D02*
X102296980Y-139236409D01*
X102439838Y-139331647D01*
X102535076Y-139426885D01*
X102582695Y-139522123D01*
X105506780Y-141033257D02*
X105030590Y-141366590D01*
X105506780Y-141604685D02*
X104506780Y-141604685D01*
X104506780Y-141223733D01*
X104554400Y-141128495D01*
X104602019Y-141080876D01*
X104697257Y-141033257D01*
X104840114Y-141033257D01*
X104935352Y-141080876D01*
X104982971Y-141128495D01*
X105030590Y-141223733D01*
X105030590Y-141604685D01*
X105506780Y-140080876D02*
X105506780Y-140652304D01*
X105506780Y-140366590D02*
X104506780Y-140366590D01*
X104649638Y-140461828D01*
X104744876Y-140557066D01*
X104792495Y-140652304D01*
X104506780Y-139747542D02*
X104506780Y-139128495D01*
X104887733Y-139461828D01*
X104887733Y-139318971D01*
X104935352Y-139223733D01*
X104982971Y-139176114D01*
X105078209Y-139128495D01*
X105316304Y-139128495D01*
X105411542Y-139176114D01*
X105459161Y-139223733D01*
X105506780Y-139318971D01*
X105506780Y-139604685D01*
X105459161Y-139699923D01*
X105411542Y-139747542D01*
X110888542Y-139009380D02*
X110555209Y-138533190D01*
X110317114Y-139009380D02*
X110317114Y-138009380D01*
X110698066Y-138009380D01*
X110793304Y-138057000D01*
X110840923Y-138104619D01*
X110888542Y-138199857D01*
X110888542Y-138342714D01*
X110840923Y-138437952D01*
X110793304Y-138485571D01*
X110698066Y-138533190D01*
X110317114Y-138533190D01*
X111840923Y-139009380D02*
X111269495Y-139009380D01*
X111555209Y-139009380D02*
X111555209Y-138009380D01*
X111459971Y-138152238D01*
X111364733Y-138247476D01*
X111269495Y-138295095D01*
X112698066Y-138009380D02*
X112507590Y-138009380D01*
X112412352Y-138057000D01*
X112364733Y-138104619D01*
X112269495Y-138247476D01*
X112221876Y-138437952D01*
X112221876Y-138818904D01*
X112269495Y-138914142D01*
X112317114Y-138961761D01*
X112412352Y-139009380D01*
X112602828Y-139009380D01*
X112698066Y-138961761D01*
X112745685Y-138914142D01*
X112793304Y-138818904D01*
X112793304Y-138580809D01*
X112745685Y-138485571D01*
X112698066Y-138437952D01*
X112602828Y-138390333D01*
X112412352Y-138390333D01*
X112317114Y-138437952D01*
X112269495Y-138485571D01*
X112221876Y-138580809D01*
X110786942Y-136647180D02*
X110453609Y-136170990D01*
X110215514Y-136647180D02*
X110215514Y-135647180D01*
X110596466Y-135647180D01*
X110691704Y-135694800D01*
X110739323Y-135742419D01*
X110786942Y-135837657D01*
X110786942Y-135980514D01*
X110739323Y-136075752D01*
X110691704Y-136123371D01*
X110596466Y-136170990D01*
X110215514Y-136170990D01*
X111739323Y-136647180D02*
X111167895Y-136647180D01*
X111453609Y-136647180D02*
X111453609Y-135647180D01*
X111358371Y-135790038D01*
X111263133Y-135885276D01*
X111167895Y-135932895D01*
X112072657Y-135647180D02*
X112739323Y-135647180D01*
X112310752Y-136647180D01*
X111399580Y-133711157D02*
X110923390Y-134044490D01*
X111399580Y-134282585D02*
X110399580Y-134282585D01*
X110399580Y-133901633D01*
X110447200Y-133806395D01*
X110494819Y-133758776D01*
X110590057Y-133711157D01*
X110732914Y-133711157D01*
X110828152Y-133758776D01*
X110875771Y-133806395D01*
X110923390Y-133901633D01*
X110923390Y-134282585D01*
X111399580Y-132758776D02*
X111399580Y-133330204D01*
X111399580Y-133044490D02*
X110399580Y-133044490D01*
X110542438Y-133139728D01*
X110637676Y-133234966D01*
X110685295Y-133330204D01*
X111399580Y-132282585D02*
X111399580Y-132092109D01*
X111351961Y-131996871D01*
X111304342Y-131949252D01*
X111161485Y-131854014D01*
X110971009Y-131806395D01*
X110590057Y-131806395D01*
X110494819Y-131854014D01*
X110447200Y-131901633D01*
X110399580Y-131996871D01*
X110399580Y-132187347D01*
X110447200Y-132282585D01*
X110494819Y-132330204D01*
X110590057Y-132377823D01*
X110828152Y-132377823D01*
X110923390Y-132330204D01*
X110971009Y-132282585D01*
X111018628Y-132187347D01*
X111018628Y-131996871D01*
X110971009Y-131901633D01*
X110923390Y-131854014D01*
X110828152Y-131806395D01*
X104233742Y-123769380D02*
X103900409Y-123293190D01*
X103662314Y-123769380D02*
X103662314Y-122769380D01*
X104043266Y-122769380D01*
X104138504Y-122817000D01*
X104186123Y-122864619D01*
X104233742Y-122959857D01*
X104233742Y-123102714D01*
X104186123Y-123197952D01*
X104138504Y-123245571D01*
X104043266Y-123293190D01*
X103662314Y-123293190D01*
X104614695Y-122864619D02*
X104662314Y-122817000D01*
X104757552Y-122769380D01*
X104995647Y-122769380D01*
X105090885Y-122817000D01*
X105138504Y-122864619D01*
X105186123Y-122959857D01*
X105186123Y-123055095D01*
X105138504Y-123197952D01*
X104567076Y-123769380D01*
X105186123Y-123769380D01*
X105567076Y-122864619D02*
X105614695Y-122817000D01*
X105709933Y-122769380D01*
X105948028Y-122769380D01*
X106043266Y-122817000D01*
X106090885Y-122864619D01*
X106138504Y-122959857D01*
X106138504Y-123055095D01*
X106090885Y-123197952D01*
X105519457Y-123769380D01*
X106138504Y-123769380D01*
X111551980Y-124823457D02*
X111075790Y-125156790D01*
X111551980Y-125394885D02*
X110551980Y-125394885D01*
X110551980Y-125013933D01*
X110599600Y-124918695D01*
X110647219Y-124871076D01*
X110742457Y-124823457D01*
X110885314Y-124823457D01*
X110980552Y-124871076D01*
X111028171Y-124918695D01*
X111075790Y-125013933D01*
X111075790Y-125394885D01*
X110647219Y-124442504D02*
X110599600Y-124394885D01*
X110551980Y-124299647D01*
X110551980Y-124061552D01*
X110599600Y-123966314D01*
X110647219Y-123918695D01*
X110742457Y-123871076D01*
X110837695Y-123871076D01*
X110980552Y-123918695D01*
X111551980Y-124490123D01*
X111551980Y-123871076D01*
X110885314Y-123013933D02*
X111551980Y-123013933D01*
X110504361Y-123252028D02*
X111218647Y-123490123D01*
X111218647Y-122871076D01*
X111729780Y-128711957D02*
X111253590Y-129045290D01*
X111729780Y-129283385D02*
X110729780Y-129283385D01*
X110729780Y-128902433D01*
X110777400Y-128807195D01*
X110825019Y-128759576D01*
X110920257Y-128711957D01*
X111063114Y-128711957D01*
X111158352Y-128759576D01*
X111205971Y-128807195D01*
X111253590Y-128902433D01*
X111253590Y-129283385D01*
X110825019Y-128331004D02*
X110777400Y-128283385D01*
X110729780Y-128188147D01*
X110729780Y-127950052D01*
X110777400Y-127854814D01*
X110825019Y-127807195D01*
X110920257Y-127759576D01*
X111015495Y-127759576D01*
X111158352Y-127807195D01*
X111729780Y-128378623D01*
X111729780Y-127759576D01*
X110729780Y-126902433D02*
X110729780Y-127092909D01*
X110777400Y-127188147D01*
X110825019Y-127235766D01*
X110967876Y-127331004D01*
X111158352Y-127378623D01*
X111539304Y-127378623D01*
X111634542Y-127331004D01*
X111682161Y-127283385D01*
X111729780Y-127188147D01*
X111729780Y-126997671D01*
X111682161Y-126902433D01*
X111634542Y-126854814D01*
X111539304Y-126807195D01*
X111301209Y-126807195D01*
X111205971Y-126854814D01*
X111158352Y-126902433D01*
X111110733Y-126997671D01*
X111110733Y-127188147D01*
X111158352Y-127283385D01*
X111205971Y-127331004D01*
X111301209Y-127378623D01*
X100172780Y-121496057D02*
X99696590Y-121829390D01*
X100172780Y-122067485D02*
X99172780Y-122067485D01*
X99172780Y-121686533D01*
X99220400Y-121591295D01*
X99268019Y-121543676D01*
X99363257Y-121496057D01*
X99506114Y-121496057D01*
X99601352Y-121543676D01*
X99648971Y-121591295D01*
X99696590Y-121686533D01*
X99696590Y-122067485D01*
X99268019Y-121115104D02*
X99220400Y-121067485D01*
X99172780Y-120972247D01*
X99172780Y-120734152D01*
X99220400Y-120638914D01*
X99268019Y-120591295D01*
X99363257Y-120543676D01*
X99458495Y-120543676D01*
X99601352Y-120591295D01*
X100172780Y-121162723D01*
X100172780Y-120543676D01*
X99601352Y-119972247D02*
X99553733Y-120067485D01*
X99506114Y-120115104D01*
X99410876Y-120162723D01*
X99363257Y-120162723D01*
X99268019Y-120115104D01*
X99220400Y-120067485D01*
X99172780Y-119972247D01*
X99172780Y-119781771D01*
X99220400Y-119686533D01*
X99268019Y-119638914D01*
X99363257Y-119591295D01*
X99410876Y-119591295D01*
X99506114Y-119638914D01*
X99553733Y-119686533D01*
X99601352Y-119781771D01*
X99601352Y-119972247D01*
X99648971Y-120067485D01*
X99696590Y-120115104D01*
X99791828Y-120162723D01*
X99982304Y-120162723D01*
X100077542Y-120115104D01*
X100125161Y-120067485D01*
X100172780Y-119972247D01*
X100172780Y-119781771D01*
X100125161Y-119686533D01*
X100077542Y-119638914D01*
X99982304Y-119591295D01*
X99791828Y-119591295D01*
X99696590Y-119638914D01*
X99648971Y-119686533D01*
X99601352Y-119781771D01*
X98191580Y-121496057D02*
X97715390Y-121829390D01*
X98191580Y-122067485D02*
X97191580Y-122067485D01*
X97191580Y-121686533D01*
X97239200Y-121591295D01*
X97286819Y-121543676D01*
X97382057Y-121496057D01*
X97524914Y-121496057D01*
X97620152Y-121543676D01*
X97667771Y-121591295D01*
X97715390Y-121686533D01*
X97715390Y-122067485D01*
X97191580Y-121162723D02*
X97191580Y-120543676D01*
X97572533Y-120877009D01*
X97572533Y-120734152D01*
X97620152Y-120638914D01*
X97667771Y-120591295D01*
X97763009Y-120543676D01*
X98001104Y-120543676D01*
X98096342Y-120591295D01*
X98143961Y-120638914D01*
X98191580Y-120734152D01*
X98191580Y-121019866D01*
X98143961Y-121115104D01*
X98096342Y-121162723D01*
X97191580Y-119924628D02*
X97191580Y-119829390D01*
X97239200Y-119734152D01*
X97286819Y-119686533D01*
X97382057Y-119638914D01*
X97572533Y-119591295D01*
X97810628Y-119591295D01*
X98001104Y-119638914D01*
X98096342Y-119686533D01*
X98143961Y-119734152D01*
X98191580Y-119829390D01*
X98191580Y-119924628D01*
X98143961Y-120019866D01*
X98096342Y-120067485D01*
X98001104Y-120115104D01*
X97810628Y-120162723D01*
X97572533Y-120162723D01*
X97382057Y-120115104D01*
X97286819Y-120067485D01*
X97239200Y-120019866D01*
X97191580Y-119924628D01*
X96235780Y-121567657D02*
X95759590Y-121900990D01*
X96235780Y-122139085D02*
X95235780Y-122139085D01*
X95235780Y-121758133D01*
X95283400Y-121662895D01*
X95331019Y-121615276D01*
X95426257Y-121567657D01*
X95569114Y-121567657D01*
X95664352Y-121615276D01*
X95711971Y-121662895D01*
X95759590Y-121758133D01*
X95759590Y-122139085D01*
X95235780Y-121234323D02*
X95235780Y-120615276D01*
X95616733Y-120948609D01*
X95616733Y-120805752D01*
X95664352Y-120710514D01*
X95711971Y-120662895D01*
X95807209Y-120615276D01*
X96045304Y-120615276D01*
X96140542Y-120662895D01*
X96188161Y-120710514D01*
X96235780Y-120805752D01*
X96235780Y-121091466D01*
X96188161Y-121186704D01*
X96140542Y-121234323D01*
X95331019Y-120234323D02*
X95283400Y-120186704D01*
X95235780Y-120091466D01*
X95235780Y-119853371D01*
X95283400Y-119758133D01*
X95331019Y-119710514D01*
X95426257Y-119662895D01*
X95521495Y-119662895D01*
X95664352Y-119710514D01*
X96235780Y-120281942D01*
X96235780Y-119662895D01*
X90800180Y-121724657D02*
X90323990Y-122057990D01*
X90800180Y-122296085D02*
X89800180Y-122296085D01*
X89800180Y-121915133D01*
X89847800Y-121819895D01*
X89895419Y-121772276D01*
X89990657Y-121724657D01*
X90133514Y-121724657D01*
X90228752Y-121772276D01*
X90276371Y-121819895D01*
X90323990Y-121915133D01*
X90323990Y-122296085D01*
X89800180Y-121391323D02*
X89800180Y-120772276D01*
X90181133Y-121105609D01*
X90181133Y-120962752D01*
X90228752Y-120867514D01*
X90276371Y-120819895D01*
X90371609Y-120772276D01*
X90609704Y-120772276D01*
X90704942Y-120819895D01*
X90752561Y-120867514D01*
X90800180Y-120962752D01*
X90800180Y-121248466D01*
X90752561Y-121343704D01*
X90704942Y-121391323D01*
X89800180Y-119915133D02*
X89800180Y-120105609D01*
X89847800Y-120200847D01*
X89895419Y-120248466D01*
X90038276Y-120343704D01*
X90228752Y-120391323D01*
X90609704Y-120391323D01*
X90704942Y-120343704D01*
X90752561Y-120296085D01*
X90800180Y-120200847D01*
X90800180Y-120010371D01*
X90752561Y-119915133D01*
X90704942Y-119867514D01*
X90609704Y-119819895D01*
X90371609Y-119819895D01*
X90276371Y-119867514D01*
X90228752Y-119915133D01*
X90181133Y-120010371D01*
X90181133Y-120200847D01*
X90228752Y-120296085D01*
X90276371Y-120343704D01*
X90371609Y-120391323D01*
X94629380Y-130911504D02*
X95438904Y-130911504D01*
X95534142Y-130863885D01*
X95581761Y-130816266D01*
X95629380Y-130721028D01*
X95629380Y-130530552D01*
X95581761Y-130435314D01*
X95534142Y-130387695D01*
X95438904Y-130340076D01*
X94629380Y-130340076D01*
X94962714Y-129435314D02*
X95629380Y-129435314D01*
X94581761Y-129673409D02*
X95296047Y-129911504D01*
X95296047Y-129292457D01*
X92755980Y-122226295D02*
X91755980Y-122226295D01*
X91755980Y-121988200D01*
X91803600Y-121845342D01*
X91898838Y-121750104D01*
X91994076Y-121702485D01*
X92184552Y-121654866D01*
X92327409Y-121654866D01*
X92517885Y-121702485D01*
X92613123Y-121750104D01*
X92708361Y-121845342D01*
X92755980Y-121988200D01*
X92755980Y-122226295D01*
X91851219Y-121273914D02*
X91803600Y-121226295D01*
X91755980Y-121131057D01*
X91755980Y-120892961D01*
X91803600Y-120797723D01*
X91851219Y-120750104D01*
X91946457Y-120702485D01*
X92041695Y-120702485D01*
X92184552Y-120750104D01*
X92755980Y-121321533D01*
X92755980Y-120702485D01*
X83602533Y-154484342D02*
X83554914Y-154531961D01*
X83412057Y-154579580D01*
X83316819Y-154579580D01*
X83173961Y-154531961D01*
X83078723Y-154436723D01*
X83031104Y-154341485D01*
X82983485Y-154151009D01*
X82983485Y-154008152D01*
X83031104Y-153817676D01*
X83078723Y-153722438D01*
X83173961Y-153627200D01*
X83316819Y-153579580D01*
X83412057Y-153579580D01*
X83554914Y-153627200D01*
X83602533Y-153674819D01*
X83983485Y-153674819D02*
X84031104Y-153627200D01*
X84126342Y-153579580D01*
X84364438Y-153579580D01*
X84459676Y-153627200D01*
X84507295Y-153674819D01*
X84554914Y-153770057D01*
X84554914Y-153865295D01*
X84507295Y-154008152D01*
X83935866Y-154579580D01*
X84554914Y-154579580D01*
X72274133Y-151436342D02*
X72226514Y-151483961D01*
X72083657Y-151531580D01*
X71988419Y-151531580D01*
X71845561Y-151483961D01*
X71750323Y-151388723D01*
X71702704Y-151293485D01*
X71655085Y-151103009D01*
X71655085Y-150960152D01*
X71702704Y-150769676D01*
X71750323Y-150674438D01*
X71845561Y-150579200D01*
X71988419Y-150531580D01*
X72083657Y-150531580D01*
X72226514Y-150579200D01*
X72274133Y-150626819D01*
X72607466Y-150531580D02*
X73226514Y-150531580D01*
X72893180Y-150912533D01*
X73036038Y-150912533D01*
X73131276Y-150960152D01*
X73178895Y-151007771D01*
X73226514Y-151103009D01*
X73226514Y-151341104D01*
X73178895Y-151436342D01*
X73131276Y-151483961D01*
X73036038Y-151531580D01*
X72750323Y-151531580D01*
X72655085Y-151483961D01*
X72607466Y-151436342D01*
X79868733Y-154408142D02*
X79821114Y-154455761D01*
X79678257Y-154503380D01*
X79583019Y-154503380D01*
X79440161Y-154455761D01*
X79344923Y-154360523D01*
X79297304Y-154265285D01*
X79249685Y-154074809D01*
X79249685Y-153931952D01*
X79297304Y-153741476D01*
X79344923Y-153646238D01*
X79440161Y-153551000D01*
X79583019Y-153503380D01*
X79678257Y-153503380D01*
X79821114Y-153551000D01*
X79868733Y-153598619D01*
X80725876Y-153836714D02*
X80725876Y-154503380D01*
X80487780Y-153455761D02*
X80249685Y-154170047D01*
X80868733Y-154170047D01*
X72246433Y-153569942D02*
X72198814Y-153617561D01*
X72055957Y-153665180D01*
X71960719Y-153665180D01*
X71817861Y-153617561D01*
X71722623Y-153522323D01*
X71675004Y-153427085D01*
X71627385Y-153236609D01*
X71627385Y-153093752D01*
X71675004Y-152903276D01*
X71722623Y-152808038D01*
X71817861Y-152712800D01*
X71960719Y-152665180D01*
X72055957Y-152665180D01*
X72198814Y-152712800D01*
X72246433Y-152760419D01*
X73151195Y-152665180D02*
X72675004Y-152665180D01*
X72627385Y-153141371D01*
X72675004Y-153093752D01*
X72770242Y-153046133D01*
X73008338Y-153046133D01*
X73103576Y-153093752D01*
X73151195Y-153141371D01*
X73198814Y-153236609D01*
X73198814Y-153474704D01*
X73151195Y-153569942D01*
X73103576Y-153617561D01*
X73008338Y-153665180D01*
X72770242Y-153665180D01*
X72675004Y-153617561D01*
X72627385Y-153569942D01*
X70689742Y-149774966D02*
X70737361Y-149822585D01*
X70784980Y-149965442D01*
X70784980Y-150060680D01*
X70737361Y-150203538D01*
X70642123Y-150298776D01*
X70546885Y-150346395D01*
X70356409Y-150394014D01*
X70213552Y-150394014D01*
X70023076Y-150346395D01*
X69927838Y-150298776D01*
X69832600Y-150203538D01*
X69784980Y-150060680D01*
X69784980Y-149965442D01*
X69832600Y-149822585D01*
X69880219Y-149774966D01*
X70213552Y-149203538D02*
X70165933Y-149298776D01*
X70118314Y-149346395D01*
X70023076Y-149394014D01*
X69975457Y-149394014D01*
X69880219Y-149346395D01*
X69832600Y-149298776D01*
X69784980Y-149203538D01*
X69784980Y-149013061D01*
X69832600Y-148917823D01*
X69880219Y-148870204D01*
X69975457Y-148822585D01*
X70023076Y-148822585D01*
X70118314Y-148870204D01*
X70165933Y-148917823D01*
X70213552Y-149013061D01*
X70213552Y-149203538D01*
X70261171Y-149298776D01*
X70308790Y-149346395D01*
X70404028Y-149394014D01*
X70594504Y-149394014D01*
X70689742Y-149346395D01*
X70737361Y-149298776D01*
X70784980Y-149203538D01*
X70784980Y-149013061D01*
X70737361Y-148917823D01*
X70689742Y-148870204D01*
X70594504Y-148822585D01*
X70404028Y-148822585D01*
X70308790Y-148870204D01*
X70261171Y-148917823D01*
X70213552Y-149013061D01*
X59351182Y-115267497D02*
X59398801Y-115315116D01*
X59446420Y-115457973D01*
X59446420Y-115553211D01*
X59398801Y-115696068D01*
X59303563Y-115791306D01*
X59208325Y-115838925D01*
X59017849Y-115886544D01*
X58874992Y-115886544D01*
X58684516Y-115838925D01*
X58589278Y-115791306D01*
X58494040Y-115696068D01*
X58446420Y-115553211D01*
X58446420Y-115457973D01*
X58494040Y-115315116D01*
X58541659Y-115267497D01*
X59446420Y-114315116D02*
X59446420Y-114886544D01*
X59446420Y-114600830D02*
X58446420Y-114600830D01*
X58589278Y-114696068D01*
X58684516Y-114791306D01*
X58732135Y-114886544D01*
X59446420Y-113362735D02*
X59446420Y-113934163D01*
X59446420Y-113648449D02*
X58446420Y-113648449D01*
X58589278Y-113743687D01*
X58684516Y-113838925D01*
X58732135Y-113934163D01*
X96115142Y-103438957D02*
X96162761Y-103486576D01*
X96210380Y-103629433D01*
X96210380Y-103724671D01*
X96162761Y-103867528D01*
X96067523Y-103962766D01*
X95972285Y-104010385D01*
X95781809Y-104058004D01*
X95638952Y-104058004D01*
X95448476Y-104010385D01*
X95353238Y-103962766D01*
X95258000Y-103867528D01*
X95210380Y-103724671D01*
X95210380Y-103629433D01*
X95258000Y-103486576D01*
X95305619Y-103438957D01*
X95305619Y-103058004D02*
X95258000Y-103010385D01*
X95210380Y-102915147D01*
X95210380Y-102677052D01*
X95258000Y-102581814D01*
X95305619Y-102534195D01*
X95400857Y-102486576D01*
X95496095Y-102486576D01*
X95638952Y-102534195D01*
X96210380Y-103105623D01*
X96210380Y-102486576D01*
X95210380Y-101867528D02*
X95210380Y-101772290D01*
X95258000Y-101677052D01*
X95305619Y-101629433D01*
X95400857Y-101581814D01*
X95591333Y-101534195D01*
X95829428Y-101534195D01*
X96019904Y-101581814D01*
X96115142Y-101629433D01*
X96162761Y-101677052D01*
X96210380Y-101772290D01*
X96210380Y-101867528D01*
X96162761Y-101962766D01*
X96115142Y-102010385D01*
X96019904Y-102058004D01*
X95829428Y-102105623D01*
X95591333Y-102105623D01*
X95400857Y-102058004D01*
X95305619Y-102010385D01*
X95258000Y-101962766D01*
X95210380Y-101867528D01*
X110212142Y-109537257D02*
X110259761Y-109584876D01*
X110307380Y-109727733D01*
X110307380Y-109822971D01*
X110259761Y-109965828D01*
X110164523Y-110061066D01*
X110069285Y-110108685D01*
X109878809Y-110156304D01*
X109735952Y-110156304D01*
X109545476Y-110108685D01*
X109450238Y-110061066D01*
X109355000Y-109965828D01*
X109307380Y-109822971D01*
X109307380Y-109727733D01*
X109355000Y-109584876D01*
X109402619Y-109537257D01*
X109402619Y-109156304D02*
X109355000Y-109108685D01*
X109307380Y-109013447D01*
X109307380Y-108775352D01*
X109355000Y-108680114D01*
X109402619Y-108632495D01*
X109497857Y-108584876D01*
X109593095Y-108584876D01*
X109735952Y-108632495D01*
X110307380Y-109203923D01*
X110307380Y-108584876D01*
X110307380Y-107632495D02*
X110307380Y-108203923D01*
X110307380Y-107918209D02*
X109307380Y-107918209D01*
X109450238Y-108013447D01*
X109545476Y-108108685D01*
X109593095Y-108203923D01*
X84354942Y-103690657D02*
X84402561Y-103738276D01*
X84450180Y-103881133D01*
X84450180Y-103976371D01*
X84402561Y-104119228D01*
X84307323Y-104214466D01*
X84212085Y-104262085D01*
X84021609Y-104309704D01*
X83878752Y-104309704D01*
X83688276Y-104262085D01*
X83593038Y-104214466D01*
X83497800Y-104119228D01*
X83450180Y-103976371D01*
X83450180Y-103881133D01*
X83497800Y-103738276D01*
X83545419Y-103690657D01*
X83545419Y-103309704D02*
X83497800Y-103262085D01*
X83450180Y-103166847D01*
X83450180Y-102928752D01*
X83497800Y-102833514D01*
X83545419Y-102785895D01*
X83640657Y-102738276D01*
X83735895Y-102738276D01*
X83878752Y-102785895D01*
X84450180Y-103357323D01*
X84450180Y-102738276D01*
X83545419Y-102357323D02*
X83497800Y-102309704D01*
X83450180Y-102214466D01*
X83450180Y-101976371D01*
X83497800Y-101881133D01*
X83545419Y-101833514D01*
X83640657Y-101785895D01*
X83735895Y-101785895D01*
X83878752Y-101833514D01*
X84450180Y-102404942D01*
X84450180Y-101785895D01*
X84659742Y-114511057D02*
X84707361Y-114558676D01*
X84754980Y-114701533D01*
X84754980Y-114796771D01*
X84707361Y-114939628D01*
X84612123Y-115034866D01*
X84516885Y-115082485D01*
X84326409Y-115130104D01*
X84183552Y-115130104D01*
X83993076Y-115082485D01*
X83897838Y-115034866D01*
X83802600Y-114939628D01*
X83754980Y-114796771D01*
X83754980Y-114701533D01*
X83802600Y-114558676D01*
X83850219Y-114511057D01*
X83850219Y-114130104D02*
X83802600Y-114082485D01*
X83754980Y-113987247D01*
X83754980Y-113749152D01*
X83802600Y-113653914D01*
X83850219Y-113606295D01*
X83945457Y-113558676D01*
X84040695Y-113558676D01*
X84183552Y-113606295D01*
X84754980Y-114177723D01*
X84754980Y-113558676D01*
X83754980Y-113225342D02*
X83754980Y-112606295D01*
X84135933Y-112939628D01*
X84135933Y-112796771D01*
X84183552Y-112701533D01*
X84231171Y-112653914D01*
X84326409Y-112606295D01*
X84564504Y-112606295D01*
X84659742Y-112653914D01*
X84707361Y-112701533D01*
X84754980Y-112796771D01*
X84754980Y-113082485D01*
X84707361Y-113177723D01*
X84659742Y-113225342D01*
X87955380Y-151601895D02*
X86955380Y-151601895D01*
X86955380Y-151363800D01*
X87003000Y-151220942D01*
X87098238Y-151125704D01*
X87193476Y-151078085D01*
X87383952Y-151030466D01*
X87526809Y-151030466D01*
X87717285Y-151078085D01*
X87812523Y-151125704D01*
X87907761Y-151220942D01*
X87955380Y-151363800D01*
X87955380Y-151601895D01*
X87288714Y-150173323D02*
X87955380Y-150173323D01*
X86907761Y-150411419D02*
X87622047Y-150649514D01*
X87622047Y-150030466D01*
X101442780Y-148660133D02*
X102157066Y-148660133D01*
X102299923Y-148707752D01*
X102395161Y-148802990D01*
X102442780Y-148945847D01*
X102442780Y-149041085D01*
X101442780Y-147707752D02*
X101442780Y-148183942D01*
X101918971Y-148231561D01*
X101871352Y-148183942D01*
X101823733Y-148088704D01*
X101823733Y-147850609D01*
X101871352Y-147755371D01*
X101918971Y-147707752D01*
X102014209Y-147660133D01*
X102252304Y-147660133D01*
X102347542Y-147707752D01*
X102395161Y-147755371D01*
X102442780Y-147850609D01*
X102442780Y-148088704D01*
X102395161Y-148183942D01*
X102347542Y-148231561D01*
X82658133Y-140990580D02*
X82324800Y-140514390D01*
X82086704Y-140990580D02*
X82086704Y-139990580D01*
X82467657Y-139990580D01*
X82562895Y-140038200D01*
X82610514Y-140085819D01*
X82658133Y-140181057D01*
X82658133Y-140323914D01*
X82610514Y-140419152D01*
X82562895Y-140466771D01*
X82467657Y-140514390D01*
X82086704Y-140514390D01*
X83134323Y-140990580D02*
X83324800Y-140990580D01*
X83420038Y-140942961D01*
X83467657Y-140895342D01*
X83562895Y-140752485D01*
X83610514Y-140562009D01*
X83610514Y-140181057D01*
X83562895Y-140085819D01*
X83515276Y-140038200D01*
X83420038Y-139990580D01*
X83229561Y-139990580D01*
X83134323Y-140038200D01*
X83086704Y-140085819D01*
X83039085Y-140181057D01*
X83039085Y-140419152D01*
X83086704Y-140514390D01*
X83134323Y-140562009D01*
X83229561Y-140609628D01*
X83420038Y-140609628D01*
X83515276Y-140562009D01*
X83562895Y-140514390D01*
X83610514Y-140419152D01*
X70292980Y-143840104D02*
X71102504Y-143840104D01*
X71197742Y-143792485D01*
X71245361Y-143744866D01*
X71292980Y-143649628D01*
X71292980Y-143459152D01*
X71245361Y-143363914D01*
X71197742Y-143316295D01*
X71102504Y-143268676D01*
X70292980Y-143268676D01*
X71292980Y-142268676D02*
X71292980Y-142840104D01*
X71292980Y-142554390D02*
X70292980Y-142554390D01*
X70435838Y-142649628D01*
X70531076Y-142744866D01*
X70578695Y-142840104D01*
X84429695Y-140574780D02*
X84429695Y-141384304D01*
X84477314Y-141479542D01*
X84524933Y-141527161D01*
X84620171Y-141574780D01*
X84810647Y-141574780D01*
X84905885Y-141527161D01*
X84953504Y-141479542D01*
X85001123Y-141384304D01*
X85001123Y-140574780D01*
X85429695Y-140670019D02*
X85477314Y-140622400D01*
X85572552Y-140574780D01*
X85810647Y-140574780D01*
X85905885Y-140622400D01*
X85953504Y-140670019D01*
X86001123Y-140765257D01*
X86001123Y-140860495D01*
X85953504Y-141003352D01*
X85382076Y-141574780D01*
X86001123Y-141574780D01*
X66077495Y-88469580D02*
X66077495Y-89279104D01*
X66125114Y-89374342D01*
X66172733Y-89421961D01*
X66267971Y-89469580D01*
X66458447Y-89469580D01*
X66553685Y-89421961D01*
X66601304Y-89374342D01*
X66648923Y-89279104D01*
X66648923Y-88469580D01*
X67601304Y-88469580D02*
X67125114Y-88469580D01*
X67077495Y-88945771D01*
X67125114Y-88898152D01*
X67220352Y-88850533D01*
X67458447Y-88850533D01*
X67553685Y-88898152D01*
X67601304Y-88945771D01*
X67648923Y-89041009D01*
X67648923Y-89279104D01*
X67601304Y-89374342D01*
X67553685Y-89421961D01*
X67458447Y-89469580D01*
X67220352Y-89469580D01*
X67125114Y-89421961D01*
X67077495Y-89374342D01*
X64482257Y-91069580D02*
X64482257Y-90069580D01*
X64482257Y-90545771D02*
X65053685Y-90545771D01*
X65053685Y-91069580D02*
X65053685Y-90069580D01*
X66101304Y-90974342D02*
X66053685Y-91021961D01*
X65910828Y-91069580D01*
X65815590Y-91069580D01*
X65672733Y-91021961D01*
X65577495Y-90926723D01*
X65529876Y-90831485D01*
X65482257Y-90641009D01*
X65482257Y-90498152D01*
X65529876Y-90307676D01*
X65577495Y-90212438D01*
X65672733Y-90117200D01*
X65815590Y-90069580D01*
X65910828Y-90069580D01*
X66053685Y-90117200D01*
X66101304Y-90164819D01*
X66529876Y-90688628D02*
X67291780Y-90688628D01*
X67958447Y-90069580D02*
X68053685Y-90069580D01*
X68148923Y-90117200D01*
X68196542Y-90164819D01*
X68244161Y-90260057D01*
X68291780Y-90450533D01*
X68291780Y-90688628D01*
X68244161Y-90879104D01*
X68196542Y-90974342D01*
X68148923Y-91021961D01*
X68053685Y-91069580D01*
X67958447Y-91069580D01*
X67863209Y-91021961D01*
X67815590Y-90974342D01*
X67767971Y-90879104D01*
X67720352Y-90688628D01*
X67720352Y-90450533D01*
X67767971Y-90260057D01*
X67815590Y-90164819D01*
X67863209Y-90117200D01*
X67958447Y-90069580D01*
X69196542Y-90069580D02*
X68720352Y-90069580D01*
X68672733Y-90545771D01*
X68720352Y-90498152D01*
X68815590Y-90450533D01*
X69053685Y-90450533D01*
X69148923Y-90498152D01*
X69196542Y-90545771D01*
X69244161Y-90641009D01*
X69244161Y-90879104D01*
X69196542Y-90974342D01*
X69148923Y-91021961D01*
X69053685Y-91069580D01*
X68815590Y-91069580D01*
X68720352Y-91021961D01*
X68672733Y-90974342D01*
X108737495Y-101052380D02*
X108737495Y-101861904D01*
X108785114Y-101957142D01*
X108832733Y-102004761D01*
X108927971Y-102052380D01*
X109118447Y-102052380D01*
X109213685Y-102004761D01*
X109261304Y-101957142D01*
X109308923Y-101861904D01*
X109308923Y-101052380D01*
X110213685Y-101052380D02*
X110023209Y-101052380D01*
X109927971Y-101100000D01*
X109880352Y-101147619D01*
X109785114Y-101290476D01*
X109737495Y-101480952D01*
X109737495Y-101861904D01*
X109785114Y-101957142D01*
X109832733Y-102004761D01*
X109927971Y-102052380D01*
X110118447Y-102052380D01*
X110213685Y-102004761D01*
X110261304Y-101957142D01*
X110308923Y-101861904D01*
X110308923Y-101623809D01*
X110261304Y-101528571D01*
X110213685Y-101480952D01*
X110118447Y-101433333D01*
X109927971Y-101433333D01*
X109832733Y-101480952D01*
X109785114Y-101528571D01*
X109737495Y-101623809D01*
X89028590Y-116655790D02*
X89504780Y-116655790D01*
X88504780Y-116989123D02*
X89028590Y-116655790D01*
X88504780Y-116322457D01*
X89504780Y-115465314D02*
X89504780Y-116036742D01*
X89504780Y-115751028D02*
X88504780Y-115751028D01*
X88647638Y-115846266D01*
X88742876Y-115941504D01*
X88790495Y-116036742D01*
X92482942Y-130182857D02*
X92530561Y-130230476D01*
X92578180Y-130373333D01*
X92578180Y-130468571D01*
X92530561Y-130611428D01*
X92435323Y-130706666D01*
X92340085Y-130754285D01*
X92149609Y-130801904D01*
X92006752Y-130801904D01*
X91816276Y-130754285D01*
X91721038Y-130706666D01*
X91625800Y-130611428D01*
X91578180Y-130468571D01*
X91578180Y-130373333D01*
X91625800Y-130230476D01*
X91673419Y-130182857D01*
X92578180Y-129230476D02*
X92578180Y-129801904D01*
X92578180Y-129516190D02*
X91578180Y-129516190D01*
X91721038Y-129611428D01*
X91816276Y-129706666D01*
X91863895Y-129801904D01*
X92006752Y-128659047D02*
X91959133Y-128754285D01*
X91911514Y-128801904D01*
X91816276Y-128849523D01*
X91768657Y-128849523D01*
X91673419Y-128801904D01*
X91625800Y-128754285D01*
X91578180Y-128659047D01*
X91578180Y-128468571D01*
X91625800Y-128373333D01*
X91673419Y-128325714D01*
X91768657Y-128278095D01*
X91816276Y-128278095D01*
X91911514Y-128325714D01*
X91959133Y-128373333D01*
X92006752Y-128468571D01*
X92006752Y-128659047D01*
X92054371Y-128754285D01*
X92101990Y-128801904D01*
X92197228Y-128849523D01*
X92387704Y-128849523D01*
X92482942Y-128801904D01*
X92530561Y-128754285D01*
X92578180Y-128659047D01*
X92578180Y-128468571D01*
X92530561Y-128373333D01*
X92482942Y-128325714D01*
X92387704Y-128278095D01*
X92197228Y-128278095D01*
X92101990Y-128325714D01*
X92054371Y-128373333D01*
X92006752Y-128468571D01*
X62359542Y-128453357D02*
X62407161Y-128500976D01*
X62454780Y-128643833D01*
X62454780Y-128739071D01*
X62407161Y-128881928D01*
X62311923Y-128977166D01*
X62216685Y-129024785D01*
X62026209Y-129072404D01*
X61883352Y-129072404D01*
X61692876Y-129024785D01*
X61597638Y-128977166D01*
X61502400Y-128881928D01*
X61454780Y-128739071D01*
X61454780Y-128643833D01*
X61502400Y-128500976D01*
X61550019Y-128453357D01*
X62454780Y-127500976D02*
X62454780Y-128072404D01*
X62454780Y-127786690D02*
X61454780Y-127786690D01*
X61597638Y-127881928D01*
X61692876Y-127977166D01*
X61740495Y-128072404D01*
X62454780Y-127024785D02*
X62454780Y-126834309D01*
X62407161Y-126739071D01*
X62359542Y-126691452D01*
X62216685Y-126596214D01*
X62026209Y-126548595D01*
X61645257Y-126548595D01*
X61550019Y-126596214D01*
X61502400Y-126643833D01*
X61454780Y-126739071D01*
X61454780Y-126929547D01*
X61502400Y-127024785D01*
X61550019Y-127072404D01*
X61645257Y-127120023D01*
X61883352Y-127120023D01*
X61978590Y-127072404D01*
X62026209Y-127024785D01*
X62073828Y-126929547D01*
X62073828Y-126739071D01*
X62026209Y-126643833D01*
X61978590Y-126596214D01*
X61883352Y-126548595D01*
X76931780Y-105335295D02*
X75931780Y-105335295D01*
X75931780Y-105097200D01*
X75979400Y-104954342D01*
X76074638Y-104859104D01*
X76169876Y-104811485D01*
X76360352Y-104763866D01*
X76503209Y-104763866D01*
X76693685Y-104811485D01*
X76788923Y-104859104D01*
X76884161Y-104954342D01*
X76931780Y-105097200D01*
X76931780Y-105335295D01*
X75931780Y-104430533D02*
X75931780Y-103811485D01*
X76312733Y-104144819D01*
X76312733Y-104001961D01*
X76360352Y-103906723D01*
X76407971Y-103859104D01*
X76503209Y-103811485D01*
X76741304Y-103811485D01*
X76836542Y-103859104D01*
X76884161Y-103906723D01*
X76931780Y-104001961D01*
X76931780Y-104287676D01*
X76884161Y-104382914D01*
X76836542Y-104430533D01*
X93492580Y-91843295D02*
X92492580Y-91843295D01*
X92492580Y-91605200D01*
X92540200Y-91462342D01*
X92635438Y-91367104D01*
X92730676Y-91319485D01*
X92921152Y-91271866D01*
X93064009Y-91271866D01*
X93254485Y-91319485D01*
X93349723Y-91367104D01*
X93444961Y-91462342D01*
X93492580Y-91605200D01*
X93492580Y-91843295D01*
X92492580Y-90367104D02*
X92492580Y-90843295D01*
X92968771Y-90890914D01*
X92921152Y-90843295D01*
X92873533Y-90748057D01*
X92873533Y-90509961D01*
X92921152Y-90414723D01*
X92968771Y-90367104D01*
X93064009Y-90319485D01*
X93302104Y-90319485D01*
X93397342Y-90367104D01*
X93444961Y-90414723D01*
X93492580Y-90509961D01*
X93492580Y-90748057D01*
X93444961Y-90843295D01*
X93397342Y-90890914D01*
X81198980Y-91873295D02*
X80198980Y-91873295D01*
X80198980Y-91635200D01*
X80246600Y-91492342D01*
X80341838Y-91397104D01*
X80437076Y-91349485D01*
X80627552Y-91301866D01*
X80770409Y-91301866D01*
X80960885Y-91349485D01*
X81056123Y-91397104D01*
X81151361Y-91492342D01*
X81198980Y-91635200D01*
X81198980Y-91873295D01*
X80198980Y-90444723D02*
X80198980Y-90635200D01*
X80246600Y-90730438D01*
X80294219Y-90778057D01*
X80437076Y-90873295D01*
X80627552Y-90920914D01*
X81008504Y-90920914D01*
X81103742Y-90873295D01*
X81151361Y-90825676D01*
X81198980Y-90730438D01*
X81198980Y-90539961D01*
X81151361Y-90444723D01*
X81103742Y-90397104D01*
X81008504Y-90349485D01*
X80770409Y-90349485D01*
X80675171Y-90397104D01*
X80627552Y-90444723D01*
X80579933Y-90539961D01*
X80579933Y-90730438D01*
X80627552Y-90825676D01*
X80675171Y-90873295D01*
X80770409Y-90920914D01*
X97004380Y-93941533D02*
X97718666Y-93941533D01*
X97861523Y-93989152D01*
X97956761Y-94084390D01*
X98004380Y-94227247D01*
X98004380Y-94322485D01*
X97337714Y-93036771D02*
X98004380Y-93036771D01*
X96956761Y-93274866D02*
X97671047Y-93512961D01*
X97671047Y-92893914D01*
X60621942Y-117139980D02*
X60288609Y-116663790D01*
X60050514Y-117139980D02*
X60050514Y-116139980D01*
X60431466Y-116139980D01*
X60526704Y-116187600D01*
X60574323Y-116235219D01*
X60621942Y-116330457D01*
X60621942Y-116473314D01*
X60574323Y-116568552D01*
X60526704Y-116616171D01*
X60431466Y-116663790D01*
X60050514Y-116663790D01*
X61002895Y-116235219D02*
X61050514Y-116187600D01*
X61145752Y-116139980D01*
X61383847Y-116139980D01*
X61479085Y-116187600D01*
X61526704Y-116235219D01*
X61574323Y-116330457D01*
X61574323Y-116425695D01*
X61526704Y-116568552D01*
X60955276Y-117139980D01*
X61574323Y-117139980D01*
X62193371Y-116139980D02*
X62288609Y-116139980D01*
X62383847Y-116187600D01*
X62431466Y-116235219D01*
X62479085Y-116330457D01*
X62526704Y-116520933D01*
X62526704Y-116759028D01*
X62479085Y-116949504D01*
X62431466Y-117044742D01*
X62383847Y-117092361D01*
X62288609Y-117139980D01*
X62193371Y-117139980D01*
X62098133Y-117092361D01*
X62050514Y-117044742D01*
X62002895Y-116949504D01*
X61955276Y-116759028D01*
X61955276Y-116520933D01*
X62002895Y-116330457D01*
X62050514Y-116235219D01*
X62098133Y-116187600D01*
X62193371Y-116139980D01*
X59177180Y-104224057D02*
X58700990Y-104557390D01*
X59177180Y-104795485D02*
X58177180Y-104795485D01*
X58177180Y-104414533D01*
X58224800Y-104319295D01*
X58272419Y-104271676D01*
X58367657Y-104224057D01*
X58510514Y-104224057D01*
X58605752Y-104271676D01*
X58653371Y-104319295D01*
X58700990Y-104414533D01*
X58700990Y-104795485D01*
X58177180Y-103890723D02*
X58177180Y-103271676D01*
X58558133Y-103605009D01*
X58558133Y-103462152D01*
X58605752Y-103366914D01*
X58653371Y-103319295D01*
X58748609Y-103271676D01*
X58986704Y-103271676D01*
X59081942Y-103319295D01*
X59129561Y-103366914D01*
X59177180Y-103462152D01*
X59177180Y-103747866D01*
X59129561Y-103843104D01*
X59081942Y-103890723D01*
X58177180Y-102938342D02*
X58177180Y-102319295D01*
X58558133Y-102652628D01*
X58558133Y-102509771D01*
X58605752Y-102414533D01*
X58653371Y-102366914D01*
X58748609Y-102319295D01*
X58986704Y-102319295D01*
X59081942Y-102366914D01*
X59129561Y-102414533D01*
X59177180Y-102509771D01*
X59177180Y-102795485D01*
X59129561Y-102890723D01*
X59081942Y-102938342D01*
X71183742Y-117571780D02*
X70850409Y-117095590D01*
X70612314Y-117571780D02*
X70612314Y-116571780D01*
X70993266Y-116571780D01*
X71088504Y-116619400D01*
X71136123Y-116667019D01*
X71183742Y-116762257D01*
X71183742Y-116905114D01*
X71136123Y-117000352D01*
X71088504Y-117047971D01*
X70993266Y-117095590D01*
X70612314Y-117095590D01*
X71517076Y-116571780D02*
X72136123Y-116571780D01*
X71802790Y-116952733D01*
X71945647Y-116952733D01*
X72040885Y-117000352D01*
X72088504Y-117047971D01*
X72136123Y-117143209D01*
X72136123Y-117381304D01*
X72088504Y-117476542D01*
X72040885Y-117524161D01*
X71945647Y-117571780D01*
X71659933Y-117571780D01*
X71564695Y-117524161D01*
X71517076Y-117476542D01*
X72993266Y-116905114D02*
X72993266Y-117571780D01*
X72755171Y-116524161D02*
X72517076Y-117238447D01*
X73136123Y-117238447D01*
X76906380Y-96735657D02*
X76430190Y-97068990D01*
X76906380Y-97307085D02*
X75906380Y-97307085D01*
X75906380Y-96926133D01*
X75954000Y-96830895D01*
X76001619Y-96783276D01*
X76096857Y-96735657D01*
X76239714Y-96735657D01*
X76334952Y-96783276D01*
X76382571Y-96830895D01*
X76430190Y-96926133D01*
X76430190Y-97307085D01*
X75906380Y-96402323D02*
X75906380Y-95783276D01*
X76287333Y-96116609D01*
X76287333Y-95973752D01*
X76334952Y-95878514D01*
X76382571Y-95830895D01*
X76477809Y-95783276D01*
X76715904Y-95783276D01*
X76811142Y-95830895D01*
X76858761Y-95878514D01*
X76906380Y-95973752D01*
X76906380Y-96259466D01*
X76858761Y-96354704D01*
X76811142Y-96402323D01*
X75906380Y-95449942D02*
X75906380Y-94783276D01*
X76906380Y-95211847D01*
X79192380Y-112402857D02*
X78716190Y-112736190D01*
X79192380Y-112974285D02*
X78192380Y-112974285D01*
X78192380Y-112593333D01*
X78240000Y-112498095D01*
X78287619Y-112450476D01*
X78382857Y-112402857D01*
X78525714Y-112402857D01*
X78620952Y-112450476D01*
X78668571Y-112498095D01*
X78716190Y-112593333D01*
X78716190Y-112974285D01*
X78192380Y-112069523D02*
X78192380Y-111450476D01*
X78573333Y-111783809D01*
X78573333Y-111640952D01*
X78620952Y-111545714D01*
X78668571Y-111498095D01*
X78763809Y-111450476D01*
X79001904Y-111450476D01*
X79097142Y-111498095D01*
X79144761Y-111545714D01*
X79192380Y-111640952D01*
X79192380Y-111926666D01*
X79144761Y-112021904D01*
X79097142Y-112069523D01*
X78620952Y-110879047D02*
X78573333Y-110974285D01*
X78525714Y-111021904D01*
X78430476Y-111069523D01*
X78382857Y-111069523D01*
X78287619Y-111021904D01*
X78240000Y-110974285D01*
X78192380Y-110879047D01*
X78192380Y-110688571D01*
X78240000Y-110593333D01*
X78287619Y-110545714D01*
X78382857Y-110498095D01*
X78430476Y-110498095D01*
X78525714Y-110545714D01*
X78573333Y-110593333D01*
X78620952Y-110688571D01*
X78620952Y-110879047D01*
X78668571Y-110974285D01*
X78716190Y-111021904D01*
X78811428Y-111069523D01*
X79001904Y-111069523D01*
X79097142Y-111021904D01*
X79144761Y-110974285D01*
X79192380Y-110879047D01*
X79192380Y-110688571D01*
X79144761Y-110593333D01*
X79097142Y-110545714D01*
X79001904Y-110498095D01*
X78811428Y-110498095D01*
X78716190Y-110545714D01*
X78668571Y-110593333D01*
X78620952Y-110688571D01*
X94687380Y-99476557D02*
X94211190Y-99809890D01*
X94687380Y-100047985D02*
X93687380Y-100047985D01*
X93687380Y-99667033D01*
X93735000Y-99571795D01*
X93782619Y-99524176D01*
X93877857Y-99476557D01*
X94020714Y-99476557D01*
X94115952Y-99524176D01*
X94163571Y-99571795D01*
X94211190Y-99667033D01*
X94211190Y-100047985D01*
X93687380Y-99143223D02*
X93687380Y-98524176D01*
X94068333Y-98857509D01*
X94068333Y-98714652D01*
X94115952Y-98619414D01*
X94163571Y-98571795D01*
X94258809Y-98524176D01*
X94496904Y-98524176D01*
X94592142Y-98571795D01*
X94639761Y-98619414D01*
X94687380Y-98714652D01*
X94687380Y-99000366D01*
X94639761Y-99095604D01*
X94592142Y-99143223D01*
X94687380Y-98047985D02*
X94687380Y-97857509D01*
X94639761Y-97762271D01*
X94592142Y-97714652D01*
X94449285Y-97619414D01*
X94258809Y-97571795D01*
X93877857Y-97571795D01*
X93782619Y-97619414D01*
X93735000Y-97667033D01*
X93687380Y-97762271D01*
X93687380Y-97952747D01*
X93735000Y-98047985D01*
X93782619Y-98095604D01*
X93877857Y-98143223D01*
X94115952Y-98143223D01*
X94211190Y-98095604D01*
X94258809Y-98047985D01*
X94306428Y-97952747D01*
X94306428Y-97762271D01*
X94258809Y-97667033D01*
X94211190Y-97619414D01*
X94115952Y-97571795D01*
X90673180Y-91803457D02*
X90196990Y-92136790D01*
X90673180Y-92374885D02*
X89673180Y-92374885D01*
X89673180Y-91993933D01*
X89720800Y-91898695D01*
X89768419Y-91851076D01*
X89863657Y-91803457D01*
X90006514Y-91803457D01*
X90101752Y-91851076D01*
X90149371Y-91898695D01*
X90196990Y-91993933D01*
X90196990Y-92374885D01*
X90006514Y-90946314D02*
X90673180Y-90946314D01*
X89625561Y-91184409D02*
X90339847Y-91422504D01*
X90339847Y-90803457D01*
X89673180Y-90232028D02*
X89673180Y-90136790D01*
X89720800Y-90041552D01*
X89768419Y-89993933D01*
X89863657Y-89946314D01*
X90054133Y-89898695D01*
X90292228Y-89898695D01*
X90482704Y-89946314D01*
X90577942Y-89993933D01*
X90625561Y-90041552D01*
X90673180Y-90136790D01*
X90673180Y-90232028D01*
X90625561Y-90327266D01*
X90577942Y-90374885D01*
X90482704Y-90422504D01*
X90292228Y-90470123D01*
X90054133Y-90470123D01*
X89863657Y-90422504D01*
X89768419Y-90374885D01*
X89720800Y-90327266D01*
X89673180Y-90232028D01*
X84043780Y-91955857D02*
X83567590Y-92289190D01*
X84043780Y-92527285D02*
X83043780Y-92527285D01*
X83043780Y-92146333D01*
X83091400Y-92051095D01*
X83139019Y-92003476D01*
X83234257Y-91955857D01*
X83377114Y-91955857D01*
X83472352Y-92003476D01*
X83519971Y-92051095D01*
X83567590Y-92146333D01*
X83567590Y-92527285D01*
X83377114Y-91098714D02*
X84043780Y-91098714D01*
X82996161Y-91336809D02*
X83710447Y-91574904D01*
X83710447Y-90955857D01*
X84043780Y-90051095D02*
X84043780Y-90622523D01*
X84043780Y-90336809D02*
X83043780Y-90336809D01*
X83186638Y-90432047D01*
X83281876Y-90527285D01*
X83329495Y-90622523D01*
X92731933Y-148083542D02*
X92684314Y-148131161D01*
X92541457Y-148178780D01*
X92446219Y-148178780D01*
X92303361Y-148131161D01*
X92208123Y-148035923D01*
X92160504Y-147940685D01*
X92112885Y-147750209D01*
X92112885Y-147607352D01*
X92160504Y-147416876D01*
X92208123Y-147321638D01*
X92303361Y-147226400D01*
X92446219Y-147178780D01*
X92541457Y-147178780D01*
X92684314Y-147226400D01*
X92731933Y-147274019D01*
X93684314Y-148178780D02*
X93112885Y-148178780D01*
X93398600Y-148178780D02*
X93398600Y-147178780D01*
X93303361Y-147321638D01*
X93208123Y-147416876D01*
X93112885Y-147464495D01*
M02*
