G04 #@! TF.GenerationSoftware,KiCad,Pcbnew,(5.1.4)-1*
G04 #@! TF.CreationDate,2020-11-30T14:55:24+01:00*
G04 #@! TF.ProjectId,emg,656d672e-6b69-4636-9164-5f7063625858,rev?*
G04 #@! TF.SameCoordinates,Original*
G04 #@! TF.FileFunction,Copper,L2,Bot*
G04 #@! TF.FilePolarity,Positive*
%FSLAX46Y46*%
G04 Gerber Fmt 4.6, Leading zero omitted, Abs format (unit mm)*
G04 Created by KiCad (PCBNEW (5.1.4)-1) date 2020-11-30 14:55:24*
%MOMM*%
%LPD*%
G04 APERTURE LIST*
%ADD10R,1.700000X1.700000*%
%ADD11O,1.700000X1.700000*%
%ADD12C,1.500000*%
%ADD13R,1.600000X1.600000*%
%ADD14C,1.600000*%
%ADD15C,1.000000*%
%ADD16C,0.300000*%
%ADD17C,0.500000*%
%ADD18C,0.254000*%
G04 APERTURE END LIST*
D10*
X110210600Y-114071400D03*
D11*
X107670600Y-114071400D03*
X105130600Y-114071400D03*
X102590600Y-114071400D03*
X100050600Y-114071400D03*
X97510600Y-114071400D03*
D10*
X66649600Y-144094200D03*
D11*
X64109600Y-144094200D03*
X61569600Y-144094200D03*
X105435400Y-144018000D03*
X107975400Y-144018000D03*
D10*
X110515400Y-144018000D03*
X99720400Y-143941800D03*
D11*
X97180400Y-143941800D03*
D12*
X88569800Y-111125000D03*
X88569800Y-106225000D03*
D10*
X99822000Y-97993200D03*
D11*
X102362000Y-97993200D03*
X104902000Y-97993200D03*
D13*
X91033600Y-143687800D03*
D14*
X93533600Y-143687800D03*
D15*
X59055000Y-114681000D03*
X80518000Y-114300000D03*
X77597000Y-114300000D03*
X77978000Y-94631080D03*
X82423000Y-100711000D03*
X62039500Y-138559540D03*
X74470260Y-138620500D03*
X63230760Y-139750800D03*
X104015540Y-139766040D03*
X71374000Y-115824000D03*
X86106000Y-108458000D03*
X110744000Y-103557100D03*
X93980000Y-106426000D03*
X96266000Y-103632000D03*
X108877100Y-109580680D03*
X69342000Y-148971000D03*
X89027000Y-140081000D03*
X78613000Y-154165000D03*
X80137000Y-154165000D03*
X81432400Y-154165000D03*
X82575400Y-154165000D03*
X83693000Y-154127200D03*
X77511600Y-147837200D03*
X77520800Y-146659600D03*
X77520800Y-145338800D03*
X82804000Y-139446000D03*
X82804000Y-138176000D03*
X84074000Y-137414000D03*
X84074000Y-138684000D03*
X84074000Y-141478000D03*
X82804000Y-141732000D03*
X83820000Y-132588000D03*
X82804000Y-133858000D03*
X82804000Y-130810000D03*
X83820000Y-128778000D03*
X70291960Y-138645900D03*
X61983620Y-130065780D03*
X102273100Y-139738100D03*
X92870020Y-134655560D03*
X70977760Y-128506220D03*
X65308480Y-127817880D03*
X100487480Y-129425700D03*
X94780100Y-127528320D03*
X58163460Y-129992120D03*
X81534000Y-136144000D03*
X92575380Y-127119380D03*
X60698380Y-128046480D03*
X61468000Y-125984000D03*
X59185670Y-117963810D03*
X93980000Y-100076000D03*
X94234000Y-104648000D03*
X95308420Y-120070880D03*
X91373960Y-120042940D03*
X84775040Y-123428760D03*
X85524340Y-128064260D03*
X109382560Y-102925880D03*
X62936120Y-124889260D03*
X93632020Y-123446540D03*
X110246160Y-101645720D03*
X97312480Y-111511080D03*
X94777560Y-117563900D03*
X93433900Y-116448840D03*
X94274640Y-113004600D03*
X102496620Y-100228400D03*
X97345500Y-96286320D03*
X65770760Y-133659880D03*
X62544960Y-133598920D03*
X57671000Y-109220000D03*
X61976000Y-116332000D03*
X77914500Y-96095820D03*
X58701940Y-101422200D03*
X89712800Y-101018340D03*
X58823860Y-93012260D03*
X58574940Y-94894400D03*
X92610940Y-101452680D03*
D16*
X58801000Y-114681000D02*
X59055000Y-114681000D01*
D17*
X64109600Y-144094200D02*
X64109600Y-140629640D01*
X73763154Y-138620500D02*
X73058304Y-139325350D01*
X74470260Y-138620500D02*
X73763154Y-138620500D01*
X62805310Y-139325350D02*
X62039500Y-138559540D01*
X64109600Y-140629640D02*
X63230760Y-139750800D01*
X63230760Y-139750800D02*
X62805310Y-139325350D01*
X73058304Y-139325350D02*
X73058304Y-139971496D01*
X72837608Y-139750800D02*
X63230760Y-139750800D01*
X73058304Y-139971496D02*
X72837608Y-139750800D01*
X107975400Y-144018000D02*
X104015540Y-140058140D01*
X104015540Y-140058140D02*
X104015540Y-139766040D01*
X64959599Y-144944199D02*
X64109600Y-144094200D01*
X68486401Y-148471001D02*
X64959599Y-144944199D01*
X68842001Y-148471001D02*
X68486401Y-148471001D01*
X69342000Y-148971000D02*
X68842001Y-148471001D01*
X93533600Y-142556430D02*
X91694000Y-140716830D01*
X93533600Y-143687800D02*
X93533600Y-142556430D01*
X91694000Y-140716830D02*
X90932830Y-140716830D01*
X90932830Y-140716830D02*
X90297000Y-140081000D01*
X90297000Y-140081000D02*
X89027000Y-140081000D01*
X77520800Y-145338800D02*
X77520800Y-146659600D01*
X77520800Y-147828000D02*
X77511600Y-147837200D01*
X77520800Y-146659600D02*
X77520800Y-147828000D01*
D16*
X63508662Y-130065780D02*
X61983620Y-130065780D01*
X70291960Y-138645900D02*
X70291960Y-136849078D01*
X70291960Y-136849078D02*
X63508662Y-130065780D01*
X102273100Y-139738100D02*
X97190560Y-134655560D01*
X97190560Y-134655560D02*
X92870020Y-134655560D01*
D17*
X70977760Y-128506220D02*
X70289420Y-127817880D01*
X70289420Y-127817880D02*
X65308480Y-127817880D01*
X100487480Y-129425700D02*
X98590100Y-127528320D01*
X98590100Y-127528320D02*
X94780100Y-127528320D01*
X64808481Y-127317881D02*
X65308480Y-127817880D01*
X64537079Y-127046479D02*
X64808481Y-127317881D01*
X60218379Y-127046479D02*
X64537079Y-127046479D01*
X58163460Y-129101398D02*
X60218379Y-127046479D01*
X58163460Y-129992120D02*
X58163460Y-129101398D01*
X94280101Y-127028321D02*
X94780100Y-127528320D01*
X93371159Y-126119379D02*
X94280101Y-127028321D01*
X73364601Y-126119379D02*
X93371159Y-126119379D01*
X70977760Y-128506220D02*
X73364601Y-126119379D01*
X62408614Y-128046480D02*
X60698380Y-128046480D01*
X70528994Y-136166860D02*
X62408614Y-128046480D01*
X61468000Y-125984000D02*
X59182000Y-123698000D01*
X59182000Y-123698000D02*
X59182000Y-117967480D01*
X59182000Y-117967480D02*
X59185670Y-117963810D01*
X93980000Y-100783106D02*
X94234000Y-101037106D01*
X93980000Y-100076000D02*
X93980000Y-100783106D01*
X94234000Y-101037106D02*
X94234000Y-104648000D01*
X105561120Y-120070880D02*
X95308420Y-120070880D01*
X110210600Y-114071400D02*
X110210600Y-115421400D01*
X110210600Y-115421400D02*
X105561120Y-120070880D01*
X91373960Y-120042940D02*
X87988140Y-123428760D01*
X87988140Y-123428760D02*
X84775040Y-123428760D01*
X70551854Y-136144000D02*
X70528994Y-136166860D01*
X81534000Y-136144000D02*
X70551854Y-136144000D01*
X84050759Y-135644001D02*
X85717380Y-133977380D01*
X82033999Y-135644001D02*
X84050759Y-135644001D01*
X81534000Y-136144000D02*
X82033999Y-135644001D01*
X85564980Y-134129780D02*
X85717380Y-133977380D01*
X85717380Y-133977380D02*
X92575380Y-127119380D01*
D16*
X88784202Y-124889260D02*
X62936120Y-124889260D01*
X98760601Y-114912861D02*
X88784202Y-124889260D01*
X109382560Y-102925880D02*
X98760601Y-113547839D01*
X98760601Y-113547839D02*
X98760601Y-114912861D01*
X93632020Y-123446540D02*
X96118680Y-120959880D01*
X105742122Y-120959880D02*
X105744662Y-120957340D01*
X96118680Y-120959880D02*
X105742122Y-120959880D01*
X105744662Y-120957340D02*
X111315500Y-120957340D01*
X111644001Y-103043561D02*
X110246160Y-101645720D01*
X111315500Y-120957340D02*
X111644001Y-120628839D01*
X111644001Y-120628839D02*
X111644001Y-103043561D01*
X94777560Y-114954438D02*
X94777560Y-117563900D01*
X97312480Y-111511080D02*
X94777560Y-114046000D01*
X94777560Y-114046000D02*
X94777560Y-114954438D01*
X93433900Y-116448840D02*
X93433900Y-113845340D01*
X93433900Y-113845340D02*
X94274640Y-113004600D01*
X99637198Y-100228400D02*
X97480120Y-98071322D01*
X102496620Y-100228400D02*
X99637198Y-100228400D01*
X97480120Y-98071322D02*
X97480120Y-96420940D01*
X97480120Y-96420940D02*
X97345500Y-96286320D01*
X65770760Y-133659880D02*
X62605920Y-133659880D01*
X62605920Y-133659880D02*
X62544960Y-133598920D01*
X57671000Y-109220000D02*
X61976000Y-113525000D01*
X61976000Y-113525000D02*
X61976000Y-116332000D01*
X77914500Y-96095820D02*
X72588120Y-101422200D01*
X72588120Y-101422200D02*
X58701940Y-101422200D01*
X58980110Y-92856010D02*
X58823860Y-93012260D01*
X89712800Y-101018340D02*
X81550470Y-92856010D01*
X81550470Y-92856010D02*
X58980110Y-92856010D01*
X58574940Y-94894400D02*
X59738260Y-93731080D01*
X59738260Y-93731080D02*
X80652620Y-93731080D01*
X92145279Y-101918341D02*
X92610940Y-101452680D01*
X80652620Y-93731080D02*
X88839881Y-101918341D01*
X88839881Y-101918341D02*
X92145279Y-101918341D01*
D18*
G36*
X84201000Y-154280000D02*
G01*
X82677000Y-154280000D01*
X82677000Y-136529001D01*
X84007290Y-136529001D01*
X84050759Y-136533282D01*
X84094228Y-136529001D01*
X84094236Y-136529001D01*
X84201000Y-136518486D01*
X84201000Y-154280000D01*
X84201000Y-154280000D01*
G37*
X84201000Y-154280000D02*
X82677000Y-154280000D01*
X82677000Y-136529001D01*
X84007290Y-136529001D01*
X84050759Y-136533282D01*
X84094228Y-136529001D01*
X84094236Y-136529001D01*
X84201000Y-136518486D01*
X84201000Y-154280000D01*
G36*
X84201000Y-134242182D02*
G01*
X83684181Y-134759001D01*
X82677000Y-134759001D01*
X82677000Y-127004379D01*
X84201000Y-127004379D01*
X84201000Y-134242182D01*
X84201000Y-134242182D01*
G37*
X84201000Y-134242182D02*
X83684181Y-134759001D01*
X82677000Y-134759001D01*
X82677000Y-127004379D01*
X84201000Y-127004379D01*
X84201000Y-134242182D01*
G36*
X113005001Y-120015000D02*
G01*
X112429001Y-120015000D01*
X112429001Y-103082117D01*
X112432798Y-103043561D01*
X112429001Y-103005005D01*
X112429001Y-103005000D01*
X112425021Y-102964587D01*
X112417643Y-102889674D01*
X112372755Y-102741701D01*
X112346180Y-102691982D01*
X112299863Y-102605328D01*
X112201765Y-102485797D01*
X112171811Y-102461214D01*
X111381160Y-101670563D01*
X111381160Y-101533932D01*
X111337543Y-101314653D01*
X111251984Y-101108096D01*
X111127772Y-100922200D01*
X110969680Y-100764108D01*
X110783784Y-100639896D01*
X110577227Y-100554337D01*
X110357948Y-100510720D01*
X110134372Y-100510720D01*
X109915093Y-100554337D01*
X109708536Y-100639896D01*
X109522640Y-100764108D01*
X109364548Y-100922200D01*
X109240336Y-101108096D01*
X109154777Y-101314653D01*
X109111160Y-101533932D01*
X109111160Y-101757508D01*
X109123620Y-101820150D01*
X109051493Y-101834497D01*
X108844936Y-101920056D01*
X108659040Y-102044268D01*
X108500948Y-102202360D01*
X108376736Y-102388256D01*
X108291177Y-102594813D01*
X108247560Y-102814092D01*
X108247560Y-102950722D01*
X98346828Y-112851455D01*
X98277520Y-112799759D01*
X98014699Y-112674575D01*
X97867490Y-112629924D01*
X97637602Y-112751244D01*
X97637602Y-112603646D01*
X97643547Y-112602463D01*
X97850104Y-112516904D01*
X98036000Y-112392692D01*
X98194092Y-112234600D01*
X98318304Y-112048704D01*
X98403863Y-111842147D01*
X98447480Y-111622868D01*
X98447480Y-111399292D01*
X98403863Y-111180013D01*
X98318304Y-110973456D01*
X98194092Y-110787560D01*
X98036000Y-110629468D01*
X97850104Y-110505256D01*
X97643547Y-110419697D01*
X97424268Y-110376080D01*
X97200692Y-110376080D01*
X96981413Y-110419697D01*
X96774856Y-110505256D01*
X96588960Y-110629468D01*
X96430868Y-110787560D01*
X96306656Y-110973456D01*
X96221097Y-111180013D01*
X96177480Y-111399292D01*
X96177480Y-111535922D01*
X95266831Y-112446572D01*
X95156252Y-112281080D01*
X94998160Y-112122988D01*
X94812264Y-111998776D01*
X94605707Y-111913217D01*
X94386428Y-111869600D01*
X94162852Y-111869600D01*
X93943573Y-111913217D01*
X93737016Y-111998776D01*
X93551120Y-112122988D01*
X93393028Y-112281080D01*
X93268816Y-112466976D01*
X93183257Y-112673533D01*
X93139640Y-112892812D01*
X93139640Y-113029443D01*
X92906085Y-113262998D01*
X92876137Y-113287576D01*
X92851559Y-113317524D01*
X92851555Y-113317528D01*
X92836669Y-113335667D01*
X92778039Y-113407107D01*
X92739077Y-113480000D01*
X92705146Y-113543481D01*
X92660259Y-113691454D01*
X92645103Y-113845340D01*
X92648901Y-113883903D01*
X92648900Y-115628708D01*
X92552288Y-115725320D01*
X92428076Y-115911216D01*
X92342517Y-116117773D01*
X92298900Y-116337052D01*
X92298900Y-116560628D01*
X92342517Y-116779907D01*
X92428076Y-116986464D01*
X92552288Y-117172360D01*
X92710380Y-117330452D01*
X92896276Y-117454664D01*
X93102833Y-117540223D01*
X93322112Y-117583840D01*
X93545688Y-117583840D01*
X93642560Y-117564571D01*
X93642560Y-117675688D01*
X93686177Y-117894967D01*
X93771736Y-118101524D01*
X93895948Y-118287420D01*
X94054040Y-118445512D01*
X94092257Y-118471048D01*
X92548305Y-120015000D01*
X92508960Y-120015000D01*
X92508960Y-119931152D01*
X92465343Y-119711873D01*
X92379784Y-119505316D01*
X92255572Y-119319420D01*
X92097480Y-119161328D01*
X91911584Y-119037116D01*
X91705027Y-118951557D01*
X91485748Y-118907940D01*
X91262172Y-118907940D01*
X91042893Y-118951557D01*
X90836336Y-119037116D01*
X90650440Y-119161328D01*
X90492348Y-119319420D01*
X90368136Y-119505316D01*
X90282577Y-119711873D01*
X90240150Y-119925172D01*
X90150322Y-120015000D01*
X84328000Y-120015000D01*
X84303224Y-120017440D01*
X84279399Y-120024667D01*
X84257443Y-120036403D01*
X84238197Y-120052197D01*
X84222403Y-120071443D01*
X84210667Y-120093399D01*
X84203440Y-120117224D01*
X84201000Y-120142000D01*
X84201000Y-122447268D01*
X84051520Y-122547148D01*
X83893428Y-122705240D01*
X83769216Y-122891136D01*
X83683657Y-123097693D01*
X83640040Y-123316972D01*
X83640040Y-123540548D01*
X83683657Y-123759827D01*
X83769216Y-123966384D01*
X83861342Y-124104260D01*
X82677000Y-124104260D01*
X82677000Y-120142000D01*
X82674560Y-120117224D01*
X82667333Y-120093399D01*
X82655597Y-120071443D01*
X82639803Y-120052197D01*
X82620557Y-120036403D01*
X82598601Y-120024667D01*
X82574776Y-120017440D01*
X82550000Y-120015000D01*
X60067000Y-120015000D01*
X60067000Y-118687612D01*
X60067282Y-118687330D01*
X60191494Y-118501434D01*
X60277053Y-118294877D01*
X60320670Y-118075598D01*
X60320670Y-117852022D01*
X60277053Y-117632743D01*
X60191494Y-117426186D01*
X60067282Y-117240290D01*
X59909190Y-117082198D01*
X59723294Y-116957986D01*
X59516737Y-116872427D01*
X59297458Y-116828810D01*
X59073882Y-116828810D01*
X58854603Y-116872427D01*
X58648046Y-116957986D01*
X58462150Y-117082198D01*
X58304058Y-117240290D01*
X58179846Y-117426186D01*
X58094287Y-117632743D01*
X58050670Y-117852022D01*
X58050670Y-118075598D01*
X58094287Y-118294877D01*
X58179846Y-118501434D01*
X58297001Y-118676768D01*
X58297001Y-120015000D01*
X57556000Y-120015000D01*
X57556000Y-114569212D01*
X57920000Y-114569212D01*
X57920000Y-114792788D01*
X57963617Y-115012067D01*
X58049176Y-115218624D01*
X58173388Y-115404520D01*
X58331480Y-115562612D01*
X58517376Y-115686824D01*
X58723933Y-115772383D01*
X58943212Y-115816000D01*
X59166788Y-115816000D01*
X59386067Y-115772383D01*
X59592624Y-115686824D01*
X59778520Y-115562612D01*
X59936612Y-115404520D01*
X60060824Y-115218624D01*
X60146383Y-115012067D01*
X60190000Y-114792788D01*
X60190000Y-114569212D01*
X60146383Y-114349933D01*
X60060824Y-114143376D01*
X59936612Y-113957480D01*
X59778520Y-113799388D01*
X59592624Y-113675176D01*
X59386067Y-113589617D01*
X59166788Y-113546000D01*
X58943212Y-113546000D01*
X58723933Y-113589617D01*
X58517376Y-113675176D01*
X58331480Y-113799388D01*
X58173388Y-113957480D01*
X58049176Y-114143376D01*
X57963617Y-114349933D01*
X57920000Y-114569212D01*
X57556000Y-114569212D01*
X57556000Y-110354361D01*
X57559212Y-110355000D01*
X57695843Y-110355000D01*
X61191000Y-113850158D01*
X61191001Y-115511867D01*
X61094388Y-115608480D01*
X60970176Y-115794376D01*
X60884617Y-116000933D01*
X60841000Y-116220212D01*
X60841000Y-116443788D01*
X60884617Y-116663067D01*
X60970176Y-116869624D01*
X61094388Y-117055520D01*
X61252480Y-117213612D01*
X61438376Y-117337824D01*
X61644933Y-117423383D01*
X61864212Y-117467000D01*
X62087788Y-117467000D01*
X62307067Y-117423383D01*
X62513624Y-117337824D01*
X62699520Y-117213612D01*
X62857612Y-117055520D01*
X62978985Y-116873872D01*
X74727000Y-116873872D01*
X74727000Y-117314128D01*
X74812890Y-117745925D01*
X74981369Y-118152669D01*
X75225962Y-118518729D01*
X75537271Y-118830038D01*
X75903331Y-119074631D01*
X76310075Y-119243110D01*
X76741872Y-119329000D01*
X77182128Y-119329000D01*
X77613925Y-119243110D01*
X78020669Y-119074631D01*
X78386729Y-118830038D01*
X78698038Y-118518729D01*
X78942631Y-118152669D01*
X79111110Y-117745925D01*
X79197000Y-117314128D01*
X79197000Y-116873872D01*
X79111110Y-116442075D01*
X78942631Y-116035331D01*
X78698038Y-115669271D01*
X78386729Y-115357962D01*
X78020669Y-115113369D01*
X77613925Y-114944890D01*
X77182128Y-114859000D01*
X76741872Y-114859000D01*
X76310075Y-114944890D01*
X75903331Y-115113369D01*
X75537271Y-115357962D01*
X75225962Y-115669271D01*
X74981369Y-116035331D01*
X74812890Y-116442075D01*
X74727000Y-116873872D01*
X62978985Y-116873872D01*
X62981824Y-116869624D01*
X63067383Y-116663067D01*
X63111000Y-116443788D01*
X63111000Y-116220212D01*
X63067383Y-116000933D01*
X62981824Y-115794376D01*
X62857612Y-115608480D01*
X62761000Y-115511868D01*
X62761000Y-113563552D01*
X62764797Y-113524999D01*
X62761000Y-113486446D01*
X62761000Y-113486439D01*
X62749641Y-113371113D01*
X62704754Y-113223140D01*
X62631862Y-113086767D01*
X62577089Y-113020027D01*
X62558345Y-112997187D01*
X62558342Y-112997184D01*
X62533764Y-112967236D01*
X62503817Y-112942659D01*
X60549747Y-110988589D01*
X87184800Y-110988589D01*
X87184800Y-111261411D01*
X87238025Y-111528989D01*
X87342429Y-111781043D01*
X87494001Y-112007886D01*
X87686914Y-112200799D01*
X87913757Y-112352371D01*
X88165811Y-112456775D01*
X88433389Y-112510000D01*
X88706211Y-112510000D01*
X88973789Y-112456775D01*
X89225843Y-112352371D01*
X89452686Y-112200799D01*
X89645599Y-112007886D01*
X89797171Y-111781043D01*
X89901575Y-111528989D01*
X89954800Y-111261411D01*
X89954800Y-110988589D01*
X89901575Y-110721011D01*
X89797171Y-110468957D01*
X89645599Y-110242114D01*
X89452686Y-110049201D01*
X89225843Y-109897629D01*
X88973789Y-109793225D01*
X88706211Y-109740000D01*
X88433389Y-109740000D01*
X88165811Y-109793225D01*
X87913757Y-109897629D01*
X87686914Y-110049201D01*
X87494001Y-110242114D01*
X87342429Y-110468957D01*
X87238025Y-110721011D01*
X87184800Y-110988589D01*
X60549747Y-110988589D01*
X58806000Y-109244843D01*
X58806000Y-109108212D01*
X58762383Y-108888933D01*
X58676824Y-108682376D01*
X58552612Y-108496480D01*
X58394520Y-108338388D01*
X58208624Y-108214176D01*
X58002067Y-108128617D01*
X57782788Y-108085000D01*
X57559212Y-108085000D01*
X57556000Y-108085639D01*
X57556000Y-106088589D01*
X87184800Y-106088589D01*
X87184800Y-106361411D01*
X87238025Y-106628989D01*
X87342429Y-106881043D01*
X87494001Y-107107886D01*
X87686914Y-107300799D01*
X87913757Y-107452371D01*
X88165811Y-107556775D01*
X88433389Y-107610000D01*
X88706211Y-107610000D01*
X88973789Y-107556775D01*
X89225843Y-107452371D01*
X89452686Y-107300799D01*
X89645599Y-107107886D01*
X89797171Y-106881043D01*
X89901575Y-106628989D01*
X89954800Y-106361411D01*
X89954800Y-106088589D01*
X89901575Y-105821011D01*
X89797171Y-105568957D01*
X89645599Y-105342114D01*
X89452686Y-105149201D01*
X89225843Y-104997629D01*
X88973789Y-104893225D01*
X88706211Y-104840000D01*
X88433389Y-104840000D01*
X88165811Y-104893225D01*
X87913757Y-104997629D01*
X87686914Y-105149201D01*
X87494001Y-105342114D01*
X87342429Y-105568957D01*
X87238025Y-105821011D01*
X87184800Y-106088589D01*
X57556000Y-106088589D01*
X57556000Y-101310412D01*
X57566940Y-101310412D01*
X57566940Y-101533988D01*
X57610557Y-101753267D01*
X57696116Y-101959824D01*
X57820328Y-102145720D01*
X57978420Y-102303812D01*
X58164316Y-102428024D01*
X58370873Y-102513583D01*
X58590152Y-102557200D01*
X58813728Y-102557200D01*
X59033007Y-102513583D01*
X59239564Y-102428024D01*
X59425460Y-102303812D01*
X59522072Y-102207200D01*
X72549567Y-102207200D01*
X72588120Y-102210997D01*
X72626673Y-102207200D01*
X72626681Y-102207200D01*
X72742007Y-102195841D01*
X72889980Y-102150954D01*
X73026353Y-102078062D01*
X73145884Y-101979964D01*
X73170467Y-101950010D01*
X77889657Y-97230820D01*
X78026288Y-97230820D01*
X78245567Y-97187203D01*
X78452124Y-97101644D01*
X78638020Y-96977432D01*
X78796112Y-96819340D01*
X78920324Y-96633444D01*
X79005883Y-96426887D01*
X79049500Y-96207608D01*
X79049500Y-95984032D01*
X79005883Y-95764753D01*
X78920324Y-95558196D01*
X78796112Y-95372300D01*
X78638020Y-95214208D01*
X78452124Y-95089996D01*
X78245567Y-95004437D01*
X78026288Y-94960820D01*
X77802712Y-94960820D01*
X77583433Y-95004437D01*
X77376876Y-95089996D01*
X77190980Y-95214208D01*
X77032888Y-95372300D01*
X76908676Y-95558196D01*
X76823117Y-95764753D01*
X76779500Y-95984032D01*
X76779500Y-96120663D01*
X72262963Y-100637200D01*
X59522072Y-100637200D01*
X59425460Y-100540588D01*
X59239564Y-100416376D01*
X59033007Y-100330817D01*
X58813728Y-100287200D01*
X58590152Y-100287200D01*
X58370873Y-100330817D01*
X58164316Y-100416376D01*
X57978420Y-100540588D01*
X57820328Y-100698680D01*
X57696116Y-100884576D01*
X57610557Y-101091133D01*
X57566940Y-101310412D01*
X57556000Y-101310412D01*
X57556000Y-95400359D01*
X57569116Y-95432024D01*
X57693328Y-95617920D01*
X57851420Y-95776012D01*
X58037316Y-95900224D01*
X58243873Y-95985783D01*
X58463152Y-96029400D01*
X58686728Y-96029400D01*
X58906007Y-95985783D01*
X59112564Y-95900224D01*
X59298460Y-95776012D01*
X59456552Y-95617920D01*
X59580764Y-95432024D01*
X59666323Y-95225467D01*
X59709940Y-95006188D01*
X59709940Y-94869557D01*
X60063418Y-94516080D01*
X80327463Y-94516080D01*
X88257534Y-102446151D01*
X88282117Y-102476105D01*
X88401648Y-102574203D01*
X88538021Y-102647095D01*
X88685994Y-102691983D01*
X88760907Y-102699361D01*
X88801320Y-102703341D01*
X88801325Y-102703341D01*
X88839881Y-102707138D01*
X88878437Y-102703341D01*
X92106726Y-102703341D01*
X92145279Y-102707138D01*
X92183832Y-102703341D01*
X92183840Y-102703341D01*
X92299166Y-102691982D01*
X92447139Y-102647095D01*
X92558298Y-102587680D01*
X92722728Y-102587680D01*
X92942007Y-102544063D01*
X93148564Y-102458504D01*
X93334460Y-102334292D01*
X93349000Y-102319752D01*
X93349001Y-103929549D01*
X93228176Y-104110376D01*
X93142617Y-104316933D01*
X93099000Y-104536212D01*
X93099000Y-104759788D01*
X93142617Y-104979067D01*
X93228176Y-105185624D01*
X93352388Y-105371520D01*
X93510480Y-105529612D01*
X93696376Y-105653824D01*
X93902933Y-105739383D01*
X94122212Y-105783000D01*
X94345788Y-105783000D01*
X94565067Y-105739383D01*
X94771624Y-105653824D01*
X94957520Y-105529612D01*
X95115612Y-105371520D01*
X95239824Y-105185624D01*
X95325383Y-104979067D01*
X95369000Y-104759788D01*
X95369000Y-104536212D01*
X95325383Y-104316933D01*
X95239824Y-104110376D01*
X95119000Y-103929550D01*
X95119000Y-101080571D01*
X95123281Y-101037105D01*
X95119000Y-100993639D01*
X95119000Y-100993629D01*
X95106195Y-100863616D01*
X95055589Y-100696793D01*
X94996875Y-100586945D01*
X95071383Y-100407067D01*
X95115000Y-100187788D01*
X95115000Y-99964212D01*
X95071383Y-99744933D01*
X94985824Y-99538376D01*
X94861612Y-99352480D01*
X94703520Y-99194388D01*
X94517624Y-99070176D01*
X94311067Y-98984617D01*
X94091788Y-98941000D01*
X93868212Y-98941000D01*
X93648933Y-98984617D01*
X93442376Y-99070176D01*
X93256480Y-99194388D01*
X93098388Y-99352480D01*
X92974176Y-99538376D01*
X92888617Y-99744933D01*
X92845000Y-99964212D01*
X92845000Y-100187788D01*
X92876938Y-100348354D01*
X92722728Y-100317680D01*
X92499152Y-100317680D01*
X92279873Y-100361297D01*
X92073316Y-100446856D01*
X91887420Y-100571068D01*
X91729328Y-100729160D01*
X91605116Y-100915056D01*
X91519557Y-101121613D01*
X91517224Y-101133341D01*
X90847161Y-101133341D01*
X90847800Y-101130128D01*
X90847800Y-100906552D01*
X90804183Y-100687273D01*
X90718624Y-100480716D01*
X90594412Y-100294820D01*
X90436320Y-100136728D01*
X90250424Y-100012516D01*
X90043867Y-99926957D01*
X89824588Y-99883340D01*
X89687957Y-99883340D01*
X85979149Y-96174532D01*
X96210500Y-96174532D01*
X96210500Y-96398108D01*
X96254117Y-96617387D01*
X96339676Y-96823944D01*
X96463888Y-97009840D01*
X96621980Y-97167932D01*
X96695121Y-97216803D01*
X96695120Y-98032769D01*
X96691323Y-98071322D01*
X96695120Y-98109875D01*
X96695120Y-98109882D01*
X96706479Y-98225208D01*
X96751366Y-98373181D01*
X96824258Y-98509554D01*
X96922356Y-98629086D01*
X96952310Y-98653669D01*
X99054856Y-100756216D01*
X99079434Y-100786164D01*
X99109382Y-100810742D01*
X99109385Y-100810745D01*
X99128684Y-100826583D01*
X99198965Y-100884262D01*
X99325546Y-100951920D01*
X99335338Y-100957154D01*
X99483311Y-101002042D01*
X99558224Y-101009420D01*
X99598637Y-101013400D01*
X99598642Y-101013400D01*
X99637198Y-101017197D01*
X99675753Y-101013400D01*
X101676488Y-101013400D01*
X101773100Y-101110012D01*
X101958996Y-101234224D01*
X102165553Y-101319783D01*
X102384832Y-101363400D01*
X102608408Y-101363400D01*
X102827687Y-101319783D01*
X103034244Y-101234224D01*
X103220140Y-101110012D01*
X103378232Y-100951920D01*
X103502444Y-100766024D01*
X103588003Y-100559467D01*
X103631620Y-100340188D01*
X103631620Y-100116612D01*
X103588003Y-99897333D01*
X103502444Y-99690776D01*
X103378232Y-99504880D01*
X103220140Y-99346788D01*
X103113338Y-99275425D01*
X103191014Y-99233906D01*
X103417134Y-99048334D01*
X103602706Y-98822214D01*
X103637201Y-98757677D01*
X103706822Y-98874555D01*
X103901731Y-99090788D01*
X104135080Y-99264841D01*
X104397901Y-99390025D01*
X104545110Y-99434676D01*
X104775000Y-99313355D01*
X104775000Y-98120200D01*
X105029000Y-98120200D01*
X105029000Y-99313355D01*
X105258890Y-99434676D01*
X105406099Y-99390025D01*
X105668920Y-99264841D01*
X105902269Y-99090788D01*
X106097178Y-98874555D01*
X106246157Y-98624452D01*
X106343481Y-98350091D01*
X106222814Y-98120200D01*
X105029000Y-98120200D01*
X104775000Y-98120200D01*
X104755000Y-98120200D01*
X104755000Y-97866200D01*
X104775000Y-97866200D01*
X104775000Y-96673045D01*
X105029000Y-96673045D01*
X105029000Y-97866200D01*
X106222814Y-97866200D01*
X106343481Y-97636309D01*
X106246157Y-97361948D01*
X106097178Y-97111845D01*
X105902269Y-96895612D01*
X105668920Y-96721559D01*
X105406099Y-96596375D01*
X105258890Y-96551724D01*
X105029000Y-96673045D01*
X104775000Y-96673045D01*
X104545110Y-96551724D01*
X104397901Y-96596375D01*
X104135080Y-96721559D01*
X103901731Y-96895612D01*
X103706822Y-97111845D01*
X103637201Y-97228723D01*
X103602706Y-97164186D01*
X103417134Y-96938066D01*
X103191014Y-96752494D01*
X102933034Y-96614601D01*
X102653111Y-96529687D01*
X102434950Y-96508200D01*
X102289050Y-96508200D01*
X102070889Y-96529687D01*
X101790966Y-96614601D01*
X101532986Y-96752494D01*
X101306866Y-96938066D01*
X101282393Y-96967887D01*
X101261502Y-96899020D01*
X101202537Y-96788706D01*
X101123185Y-96692015D01*
X101026494Y-96612663D01*
X100916180Y-96553698D01*
X100796482Y-96517388D01*
X100672000Y-96505128D01*
X98972000Y-96505128D01*
X98847518Y-96517388D01*
X98727820Y-96553698D01*
X98617506Y-96612663D01*
X98520815Y-96692015D01*
X98441463Y-96788706D01*
X98382498Y-96899020D01*
X98346188Y-97018718D01*
X98333928Y-97143200D01*
X98333928Y-97814973D01*
X98265120Y-97746165D01*
X98265120Y-96952957D01*
X98351324Y-96823944D01*
X98436883Y-96617387D01*
X98480500Y-96398108D01*
X98480500Y-96174532D01*
X98436883Y-95955253D01*
X98351324Y-95748696D01*
X98227112Y-95562800D01*
X98069020Y-95404708D01*
X97883124Y-95280496D01*
X97676567Y-95194937D01*
X97457288Y-95151320D01*
X97233712Y-95151320D01*
X97014433Y-95194937D01*
X96807876Y-95280496D01*
X96621980Y-95404708D01*
X96463888Y-95562800D01*
X96339676Y-95748696D01*
X96254117Y-95955253D01*
X96210500Y-96174532D01*
X85979149Y-96174532D01*
X82132817Y-92328200D01*
X82108234Y-92298246D01*
X81988703Y-92200148D01*
X81852330Y-92127256D01*
X81704357Y-92082369D01*
X81589031Y-92071010D01*
X81589023Y-92071010D01*
X81550470Y-92067213D01*
X81511917Y-92071010D01*
X74295000Y-92071010D01*
X74295000Y-91042072D01*
X106451600Y-91042072D01*
X106451600Y-91482328D01*
X106537490Y-91914125D01*
X106705969Y-92320869D01*
X106950562Y-92686929D01*
X107261871Y-92998238D01*
X107627931Y-93242831D01*
X108034675Y-93411310D01*
X108466472Y-93497200D01*
X108906728Y-93497200D01*
X109338525Y-93411310D01*
X109745269Y-93242831D01*
X110111329Y-92998238D01*
X110422638Y-92686929D01*
X110667231Y-92320869D01*
X110835710Y-91914125D01*
X110921600Y-91482328D01*
X110921600Y-91042072D01*
X110835710Y-90610275D01*
X110667231Y-90203531D01*
X110422638Y-89837471D01*
X110111329Y-89526162D01*
X109745269Y-89281569D01*
X109338525Y-89113090D01*
X108906728Y-89027200D01*
X108466472Y-89027200D01*
X108034675Y-89113090D01*
X107627931Y-89281569D01*
X107261871Y-89526162D01*
X106950562Y-89837471D01*
X106705969Y-90203531D01*
X106537490Y-90610275D01*
X106451600Y-91042072D01*
X74295000Y-91042072D01*
X74295000Y-87020000D01*
X113005001Y-87020000D01*
X113005001Y-120015000D01*
X113005001Y-120015000D01*
G37*
X113005001Y-120015000D02*
X112429001Y-120015000D01*
X112429001Y-103082117D01*
X112432798Y-103043561D01*
X112429001Y-103005005D01*
X112429001Y-103005000D01*
X112425021Y-102964587D01*
X112417643Y-102889674D01*
X112372755Y-102741701D01*
X112346180Y-102691982D01*
X112299863Y-102605328D01*
X112201765Y-102485797D01*
X112171811Y-102461214D01*
X111381160Y-101670563D01*
X111381160Y-101533932D01*
X111337543Y-101314653D01*
X111251984Y-101108096D01*
X111127772Y-100922200D01*
X110969680Y-100764108D01*
X110783784Y-100639896D01*
X110577227Y-100554337D01*
X110357948Y-100510720D01*
X110134372Y-100510720D01*
X109915093Y-100554337D01*
X109708536Y-100639896D01*
X109522640Y-100764108D01*
X109364548Y-100922200D01*
X109240336Y-101108096D01*
X109154777Y-101314653D01*
X109111160Y-101533932D01*
X109111160Y-101757508D01*
X109123620Y-101820150D01*
X109051493Y-101834497D01*
X108844936Y-101920056D01*
X108659040Y-102044268D01*
X108500948Y-102202360D01*
X108376736Y-102388256D01*
X108291177Y-102594813D01*
X108247560Y-102814092D01*
X108247560Y-102950722D01*
X98346828Y-112851455D01*
X98277520Y-112799759D01*
X98014699Y-112674575D01*
X97867490Y-112629924D01*
X97637602Y-112751244D01*
X97637602Y-112603646D01*
X97643547Y-112602463D01*
X97850104Y-112516904D01*
X98036000Y-112392692D01*
X98194092Y-112234600D01*
X98318304Y-112048704D01*
X98403863Y-111842147D01*
X98447480Y-111622868D01*
X98447480Y-111399292D01*
X98403863Y-111180013D01*
X98318304Y-110973456D01*
X98194092Y-110787560D01*
X98036000Y-110629468D01*
X97850104Y-110505256D01*
X97643547Y-110419697D01*
X97424268Y-110376080D01*
X97200692Y-110376080D01*
X96981413Y-110419697D01*
X96774856Y-110505256D01*
X96588960Y-110629468D01*
X96430868Y-110787560D01*
X96306656Y-110973456D01*
X96221097Y-111180013D01*
X96177480Y-111399292D01*
X96177480Y-111535922D01*
X95266831Y-112446572D01*
X95156252Y-112281080D01*
X94998160Y-112122988D01*
X94812264Y-111998776D01*
X94605707Y-111913217D01*
X94386428Y-111869600D01*
X94162852Y-111869600D01*
X93943573Y-111913217D01*
X93737016Y-111998776D01*
X93551120Y-112122988D01*
X93393028Y-112281080D01*
X93268816Y-112466976D01*
X93183257Y-112673533D01*
X93139640Y-112892812D01*
X93139640Y-113029443D01*
X92906085Y-113262998D01*
X92876137Y-113287576D01*
X92851559Y-113317524D01*
X92851555Y-113317528D01*
X92836669Y-113335667D01*
X92778039Y-113407107D01*
X92739077Y-113480000D01*
X92705146Y-113543481D01*
X92660259Y-113691454D01*
X92645103Y-113845340D01*
X92648901Y-113883903D01*
X92648900Y-115628708D01*
X92552288Y-115725320D01*
X92428076Y-115911216D01*
X92342517Y-116117773D01*
X92298900Y-116337052D01*
X92298900Y-116560628D01*
X92342517Y-116779907D01*
X92428076Y-116986464D01*
X92552288Y-117172360D01*
X92710380Y-117330452D01*
X92896276Y-117454664D01*
X93102833Y-117540223D01*
X93322112Y-117583840D01*
X93545688Y-117583840D01*
X93642560Y-117564571D01*
X93642560Y-117675688D01*
X93686177Y-117894967D01*
X93771736Y-118101524D01*
X93895948Y-118287420D01*
X94054040Y-118445512D01*
X94092257Y-118471048D01*
X92548305Y-120015000D01*
X92508960Y-120015000D01*
X92508960Y-119931152D01*
X92465343Y-119711873D01*
X92379784Y-119505316D01*
X92255572Y-119319420D01*
X92097480Y-119161328D01*
X91911584Y-119037116D01*
X91705027Y-118951557D01*
X91485748Y-118907940D01*
X91262172Y-118907940D01*
X91042893Y-118951557D01*
X90836336Y-119037116D01*
X90650440Y-119161328D01*
X90492348Y-119319420D01*
X90368136Y-119505316D01*
X90282577Y-119711873D01*
X90240150Y-119925172D01*
X90150322Y-120015000D01*
X84328000Y-120015000D01*
X84303224Y-120017440D01*
X84279399Y-120024667D01*
X84257443Y-120036403D01*
X84238197Y-120052197D01*
X84222403Y-120071443D01*
X84210667Y-120093399D01*
X84203440Y-120117224D01*
X84201000Y-120142000D01*
X84201000Y-122447268D01*
X84051520Y-122547148D01*
X83893428Y-122705240D01*
X83769216Y-122891136D01*
X83683657Y-123097693D01*
X83640040Y-123316972D01*
X83640040Y-123540548D01*
X83683657Y-123759827D01*
X83769216Y-123966384D01*
X83861342Y-124104260D01*
X82677000Y-124104260D01*
X82677000Y-120142000D01*
X82674560Y-120117224D01*
X82667333Y-120093399D01*
X82655597Y-120071443D01*
X82639803Y-120052197D01*
X82620557Y-120036403D01*
X82598601Y-120024667D01*
X82574776Y-120017440D01*
X82550000Y-120015000D01*
X60067000Y-120015000D01*
X60067000Y-118687612D01*
X60067282Y-118687330D01*
X60191494Y-118501434D01*
X60277053Y-118294877D01*
X60320670Y-118075598D01*
X60320670Y-117852022D01*
X60277053Y-117632743D01*
X60191494Y-117426186D01*
X60067282Y-117240290D01*
X59909190Y-117082198D01*
X59723294Y-116957986D01*
X59516737Y-116872427D01*
X59297458Y-116828810D01*
X59073882Y-116828810D01*
X58854603Y-116872427D01*
X58648046Y-116957986D01*
X58462150Y-117082198D01*
X58304058Y-117240290D01*
X58179846Y-117426186D01*
X58094287Y-117632743D01*
X58050670Y-117852022D01*
X58050670Y-118075598D01*
X58094287Y-118294877D01*
X58179846Y-118501434D01*
X58297001Y-118676768D01*
X58297001Y-120015000D01*
X57556000Y-120015000D01*
X57556000Y-114569212D01*
X57920000Y-114569212D01*
X57920000Y-114792788D01*
X57963617Y-115012067D01*
X58049176Y-115218624D01*
X58173388Y-115404520D01*
X58331480Y-115562612D01*
X58517376Y-115686824D01*
X58723933Y-115772383D01*
X58943212Y-115816000D01*
X59166788Y-115816000D01*
X59386067Y-115772383D01*
X59592624Y-115686824D01*
X59778520Y-115562612D01*
X59936612Y-115404520D01*
X60060824Y-115218624D01*
X60146383Y-115012067D01*
X60190000Y-114792788D01*
X60190000Y-114569212D01*
X60146383Y-114349933D01*
X60060824Y-114143376D01*
X59936612Y-113957480D01*
X59778520Y-113799388D01*
X59592624Y-113675176D01*
X59386067Y-113589617D01*
X59166788Y-113546000D01*
X58943212Y-113546000D01*
X58723933Y-113589617D01*
X58517376Y-113675176D01*
X58331480Y-113799388D01*
X58173388Y-113957480D01*
X58049176Y-114143376D01*
X57963617Y-114349933D01*
X57920000Y-114569212D01*
X57556000Y-114569212D01*
X57556000Y-110354361D01*
X57559212Y-110355000D01*
X57695843Y-110355000D01*
X61191000Y-113850158D01*
X61191001Y-115511867D01*
X61094388Y-115608480D01*
X60970176Y-115794376D01*
X60884617Y-116000933D01*
X60841000Y-116220212D01*
X60841000Y-116443788D01*
X60884617Y-116663067D01*
X60970176Y-116869624D01*
X61094388Y-117055520D01*
X61252480Y-117213612D01*
X61438376Y-117337824D01*
X61644933Y-117423383D01*
X61864212Y-117467000D01*
X62087788Y-117467000D01*
X62307067Y-117423383D01*
X62513624Y-117337824D01*
X62699520Y-117213612D01*
X62857612Y-117055520D01*
X62978985Y-116873872D01*
X74727000Y-116873872D01*
X74727000Y-117314128D01*
X74812890Y-117745925D01*
X74981369Y-118152669D01*
X75225962Y-118518729D01*
X75537271Y-118830038D01*
X75903331Y-119074631D01*
X76310075Y-119243110D01*
X76741872Y-119329000D01*
X77182128Y-119329000D01*
X77613925Y-119243110D01*
X78020669Y-119074631D01*
X78386729Y-118830038D01*
X78698038Y-118518729D01*
X78942631Y-118152669D01*
X79111110Y-117745925D01*
X79197000Y-117314128D01*
X79197000Y-116873872D01*
X79111110Y-116442075D01*
X78942631Y-116035331D01*
X78698038Y-115669271D01*
X78386729Y-115357962D01*
X78020669Y-115113369D01*
X77613925Y-114944890D01*
X77182128Y-114859000D01*
X76741872Y-114859000D01*
X76310075Y-114944890D01*
X75903331Y-115113369D01*
X75537271Y-115357962D01*
X75225962Y-115669271D01*
X74981369Y-116035331D01*
X74812890Y-116442075D01*
X74727000Y-116873872D01*
X62978985Y-116873872D01*
X62981824Y-116869624D01*
X63067383Y-116663067D01*
X63111000Y-116443788D01*
X63111000Y-116220212D01*
X63067383Y-116000933D01*
X62981824Y-115794376D01*
X62857612Y-115608480D01*
X62761000Y-115511868D01*
X62761000Y-113563552D01*
X62764797Y-113524999D01*
X62761000Y-113486446D01*
X62761000Y-113486439D01*
X62749641Y-113371113D01*
X62704754Y-113223140D01*
X62631862Y-113086767D01*
X62577089Y-113020027D01*
X62558345Y-112997187D01*
X62558342Y-112997184D01*
X62533764Y-112967236D01*
X62503817Y-112942659D01*
X60549747Y-110988589D01*
X87184800Y-110988589D01*
X87184800Y-111261411D01*
X87238025Y-111528989D01*
X87342429Y-111781043D01*
X87494001Y-112007886D01*
X87686914Y-112200799D01*
X87913757Y-112352371D01*
X88165811Y-112456775D01*
X88433389Y-112510000D01*
X88706211Y-112510000D01*
X88973789Y-112456775D01*
X89225843Y-112352371D01*
X89452686Y-112200799D01*
X89645599Y-112007886D01*
X89797171Y-111781043D01*
X89901575Y-111528989D01*
X89954800Y-111261411D01*
X89954800Y-110988589D01*
X89901575Y-110721011D01*
X89797171Y-110468957D01*
X89645599Y-110242114D01*
X89452686Y-110049201D01*
X89225843Y-109897629D01*
X88973789Y-109793225D01*
X88706211Y-109740000D01*
X88433389Y-109740000D01*
X88165811Y-109793225D01*
X87913757Y-109897629D01*
X87686914Y-110049201D01*
X87494001Y-110242114D01*
X87342429Y-110468957D01*
X87238025Y-110721011D01*
X87184800Y-110988589D01*
X60549747Y-110988589D01*
X58806000Y-109244843D01*
X58806000Y-109108212D01*
X58762383Y-108888933D01*
X58676824Y-108682376D01*
X58552612Y-108496480D01*
X58394520Y-108338388D01*
X58208624Y-108214176D01*
X58002067Y-108128617D01*
X57782788Y-108085000D01*
X57559212Y-108085000D01*
X57556000Y-108085639D01*
X57556000Y-106088589D01*
X87184800Y-106088589D01*
X87184800Y-106361411D01*
X87238025Y-106628989D01*
X87342429Y-106881043D01*
X87494001Y-107107886D01*
X87686914Y-107300799D01*
X87913757Y-107452371D01*
X88165811Y-107556775D01*
X88433389Y-107610000D01*
X88706211Y-107610000D01*
X88973789Y-107556775D01*
X89225843Y-107452371D01*
X89452686Y-107300799D01*
X89645599Y-107107886D01*
X89797171Y-106881043D01*
X89901575Y-106628989D01*
X89954800Y-106361411D01*
X89954800Y-106088589D01*
X89901575Y-105821011D01*
X89797171Y-105568957D01*
X89645599Y-105342114D01*
X89452686Y-105149201D01*
X89225843Y-104997629D01*
X88973789Y-104893225D01*
X88706211Y-104840000D01*
X88433389Y-104840000D01*
X88165811Y-104893225D01*
X87913757Y-104997629D01*
X87686914Y-105149201D01*
X87494001Y-105342114D01*
X87342429Y-105568957D01*
X87238025Y-105821011D01*
X87184800Y-106088589D01*
X57556000Y-106088589D01*
X57556000Y-101310412D01*
X57566940Y-101310412D01*
X57566940Y-101533988D01*
X57610557Y-101753267D01*
X57696116Y-101959824D01*
X57820328Y-102145720D01*
X57978420Y-102303812D01*
X58164316Y-102428024D01*
X58370873Y-102513583D01*
X58590152Y-102557200D01*
X58813728Y-102557200D01*
X59033007Y-102513583D01*
X59239564Y-102428024D01*
X59425460Y-102303812D01*
X59522072Y-102207200D01*
X72549567Y-102207200D01*
X72588120Y-102210997D01*
X72626673Y-102207200D01*
X72626681Y-102207200D01*
X72742007Y-102195841D01*
X72889980Y-102150954D01*
X73026353Y-102078062D01*
X73145884Y-101979964D01*
X73170467Y-101950010D01*
X77889657Y-97230820D01*
X78026288Y-97230820D01*
X78245567Y-97187203D01*
X78452124Y-97101644D01*
X78638020Y-96977432D01*
X78796112Y-96819340D01*
X78920324Y-96633444D01*
X79005883Y-96426887D01*
X79049500Y-96207608D01*
X79049500Y-95984032D01*
X79005883Y-95764753D01*
X78920324Y-95558196D01*
X78796112Y-95372300D01*
X78638020Y-95214208D01*
X78452124Y-95089996D01*
X78245567Y-95004437D01*
X78026288Y-94960820D01*
X77802712Y-94960820D01*
X77583433Y-95004437D01*
X77376876Y-95089996D01*
X77190980Y-95214208D01*
X77032888Y-95372300D01*
X76908676Y-95558196D01*
X76823117Y-95764753D01*
X76779500Y-95984032D01*
X76779500Y-96120663D01*
X72262963Y-100637200D01*
X59522072Y-100637200D01*
X59425460Y-100540588D01*
X59239564Y-100416376D01*
X59033007Y-100330817D01*
X58813728Y-100287200D01*
X58590152Y-100287200D01*
X58370873Y-100330817D01*
X58164316Y-100416376D01*
X57978420Y-100540588D01*
X57820328Y-100698680D01*
X57696116Y-100884576D01*
X57610557Y-101091133D01*
X57566940Y-101310412D01*
X57556000Y-101310412D01*
X57556000Y-95400359D01*
X57569116Y-95432024D01*
X57693328Y-95617920D01*
X57851420Y-95776012D01*
X58037316Y-95900224D01*
X58243873Y-95985783D01*
X58463152Y-96029400D01*
X58686728Y-96029400D01*
X58906007Y-95985783D01*
X59112564Y-95900224D01*
X59298460Y-95776012D01*
X59456552Y-95617920D01*
X59580764Y-95432024D01*
X59666323Y-95225467D01*
X59709940Y-95006188D01*
X59709940Y-94869557D01*
X60063418Y-94516080D01*
X80327463Y-94516080D01*
X88257534Y-102446151D01*
X88282117Y-102476105D01*
X88401648Y-102574203D01*
X88538021Y-102647095D01*
X88685994Y-102691983D01*
X88760907Y-102699361D01*
X88801320Y-102703341D01*
X88801325Y-102703341D01*
X88839881Y-102707138D01*
X88878437Y-102703341D01*
X92106726Y-102703341D01*
X92145279Y-102707138D01*
X92183832Y-102703341D01*
X92183840Y-102703341D01*
X92299166Y-102691982D01*
X92447139Y-102647095D01*
X92558298Y-102587680D01*
X92722728Y-102587680D01*
X92942007Y-102544063D01*
X93148564Y-102458504D01*
X93334460Y-102334292D01*
X93349000Y-102319752D01*
X93349001Y-103929549D01*
X93228176Y-104110376D01*
X93142617Y-104316933D01*
X93099000Y-104536212D01*
X93099000Y-104759788D01*
X93142617Y-104979067D01*
X93228176Y-105185624D01*
X93352388Y-105371520D01*
X93510480Y-105529612D01*
X93696376Y-105653824D01*
X93902933Y-105739383D01*
X94122212Y-105783000D01*
X94345788Y-105783000D01*
X94565067Y-105739383D01*
X94771624Y-105653824D01*
X94957520Y-105529612D01*
X95115612Y-105371520D01*
X95239824Y-105185624D01*
X95325383Y-104979067D01*
X95369000Y-104759788D01*
X95369000Y-104536212D01*
X95325383Y-104316933D01*
X95239824Y-104110376D01*
X95119000Y-103929550D01*
X95119000Y-101080571D01*
X95123281Y-101037105D01*
X95119000Y-100993639D01*
X95119000Y-100993629D01*
X95106195Y-100863616D01*
X95055589Y-100696793D01*
X94996875Y-100586945D01*
X95071383Y-100407067D01*
X95115000Y-100187788D01*
X95115000Y-99964212D01*
X95071383Y-99744933D01*
X94985824Y-99538376D01*
X94861612Y-99352480D01*
X94703520Y-99194388D01*
X94517624Y-99070176D01*
X94311067Y-98984617D01*
X94091788Y-98941000D01*
X93868212Y-98941000D01*
X93648933Y-98984617D01*
X93442376Y-99070176D01*
X93256480Y-99194388D01*
X93098388Y-99352480D01*
X92974176Y-99538376D01*
X92888617Y-99744933D01*
X92845000Y-99964212D01*
X92845000Y-100187788D01*
X92876938Y-100348354D01*
X92722728Y-100317680D01*
X92499152Y-100317680D01*
X92279873Y-100361297D01*
X92073316Y-100446856D01*
X91887420Y-100571068D01*
X91729328Y-100729160D01*
X91605116Y-100915056D01*
X91519557Y-101121613D01*
X91517224Y-101133341D01*
X90847161Y-101133341D01*
X90847800Y-101130128D01*
X90847800Y-100906552D01*
X90804183Y-100687273D01*
X90718624Y-100480716D01*
X90594412Y-100294820D01*
X90436320Y-100136728D01*
X90250424Y-100012516D01*
X90043867Y-99926957D01*
X89824588Y-99883340D01*
X89687957Y-99883340D01*
X85979149Y-96174532D01*
X96210500Y-96174532D01*
X96210500Y-96398108D01*
X96254117Y-96617387D01*
X96339676Y-96823944D01*
X96463888Y-97009840D01*
X96621980Y-97167932D01*
X96695121Y-97216803D01*
X96695120Y-98032769D01*
X96691323Y-98071322D01*
X96695120Y-98109875D01*
X96695120Y-98109882D01*
X96706479Y-98225208D01*
X96751366Y-98373181D01*
X96824258Y-98509554D01*
X96922356Y-98629086D01*
X96952310Y-98653669D01*
X99054856Y-100756216D01*
X99079434Y-100786164D01*
X99109382Y-100810742D01*
X99109385Y-100810745D01*
X99128684Y-100826583D01*
X99198965Y-100884262D01*
X99325546Y-100951920D01*
X99335338Y-100957154D01*
X99483311Y-101002042D01*
X99558224Y-101009420D01*
X99598637Y-101013400D01*
X99598642Y-101013400D01*
X99637198Y-101017197D01*
X99675753Y-101013400D01*
X101676488Y-101013400D01*
X101773100Y-101110012D01*
X101958996Y-101234224D01*
X102165553Y-101319783D01*
X102384832Y-101363400D01*
X102608408Y-101363400D01*
X102827687Y-101319783D01*
X103034244Y-101234224D01*
X103220140Y-101110012D01*
X103378232Y-100951920D01*
X103502444Y-100766024D01*
X103588003Y-100559467D01*
X103631620Y-100340188D01*
X103631620Y-100116612D01*
X103588003Y-99897333D01*
X103502444Y-99690776D01*
X103378232Y-99504880D01*
X103220140Y-99346788D01*
X103113338Y-99275425D01*
X103191014Y-99233906D01*
X103417134Y-99048334D01*
X103602706Y-98822214D01*
X103637201Y-98757677D01*
X103706822Y-98874555D01*
X103901731Y-99090788D01*
X104135080Y-99264841D01*
X104397901Y-99390025D01*
X104545110Y-99434676D01*
X104775000Y-99313355D01*
X104775000Y-98120200D01*
X105029000Y-98120200D01*
X105029000Y-99313355D01*
X105258890Y-99434676D01*
X105406099Y-99390025D01*
X105668920Y-99264841D01*
X105902269Y-99090788D01*
X106097178Y-98874555D01*
X106246157Y-98624452D01*
X106343481Y-98350091D01*
X106222814Y-98120200D01*
X105029000Y-98120200D01*
X104775000Y-98120200D01*
X104755000Y-98120200D01*
X104755000Y-97866200D01*
X104775000Y-97866200D01*
X104775000Y-96673045D01*
X105029000Y-96673045D01*
X105029000Y-97866200D01*
X106222814Y-97866200D01*
X106343481Y-97636309D01*
X106246157Y-97361948D01*
X106097178Y-97111845D01*
X105902269Y-96895612D01*
X105668920Y-96721559D01*
X105406099Y-96596375D01*
X105258890Y-96551724D01*
X105029000Y-96673045D01*
X104775000Y-96673045D01*
X104545110Y-96551724D01*
X104397901Y-96596375D01*
X104135080Y-96721559D01*
X103901731Y-96895612D01*
X103706822Y-97111845D01*
X103637201Y-97228723D01*
X103602706Y-97164186D01*
X103417134Y-96938066D01*
X103191014Y-96752494D01*
X102933034Y-96614601D01*
X102653111Y-96529687D01*
X102434950Y-96508200D01*
X102289050Y-96508200D01*
X102070889Y-96529687D01*
X101790966Y-96614601D01*
X101532986Y-96752494D01*
X101306866Y-96938066D01*
X101282393Y-96967887D01*
X101261502Y-96899020D01*
X101202537Y-96788706D01*
X101123185Y-96692015D01*
X101026494Y-96612663D01*
X100916180Y-96553698D01*
X100796482Y-96517388D01*
X100672000Y-96505128D01*
X98972000Y-96505128D01*
X98847518Y-96517388D01*
X98727820Y-96553698D01*
X98617506Y-96612663D01*
X98520815Y-96692015D01*
X98441463Y-96788706D01*
X98382498Y-96899020D01*
X98346188Y-97018718D01*
X98333928Y-97143200D01*
X98333928Y-97814973D01*
X98265120Y-97746165D01*
X98265120Y-96952957D01*
X98351324Y-96823944D01*
X98436883Y-96617387D01*
X98480500Y-96398108D01*
X98480500Y-96174532D01*
X98436883Y-95955253D01*
X98351324Y-95748696D01*
X98227112Y-95562800D01*
X98069020Y-95404708D01*
X97883124Y-95280496D01*
X97676567Y-95194937D01*
X97457288Y-95151320D01*
X97233712Y-95151320D01*
X97014433Y-95194937D01*
X96807876Y-95280496D01*
X96621980Y-95404708D01*
X96463888Y-95562800D01*
X96339676Y-95748696D01*
X96254117Y-95955253D01*
X96210500Y-96174532D01*
X85979149Y-96174532D01*
X82132817Y-92328200D01*
X82108234Y-92298246D01*
X81988703Y-92200148D01*
X81852330Y-92127256D01*
X81704357Y-92082369D01*
X81589031Y-92071010D01*
X81589023Y-92071010D01*
X81550470Y-92067213D01*
X81511917Y-92071010D01*
X74295000Y-92071010D01*
X74295000Y-91042072D01*
X106451600Y-91042072D01*
X106451600Y-91482328D01*
X106537490Y-91914125D01*
X106705969Y-92320869D01*
X106950562Y-92686929D01*
X107261871Y-92998238D01*
X107627931Y-93242831D01*
X108034675Y-93411310D01*
X108466472Y-93497200D01*
X108906728Y-93497200D01*
X109338525Y-93411310D01*
X109745269Y-93242831D01*
X110111329Y-92998238D01*
X110422638Y-92686929D01*
X110667231Y-92320869D01*
X110835710Y-91914125D01*
X110921600Y-91482328D01*
X110921600Y-91042072D01*
X110835710Y-90610275D01*
X110667231Y-90203531D01*
X110422638Y-89837471D01*
X110111329Y-89526162D01*
X109745269Y-89281569D01*
X109338525Y-89113090D01*
X108906728Y-89027200D01*
X108466472Y-89027200D01*
X108034675Y-89113090D01*
X107627931Y-89281569D01*
X107261871Y-89526162D01*
X106950562Y-89837471D01*
X106705969Y-90203531D01*
X106537490Y-90610275D01*
X106451600Y-91042072D01*
X74295000Y-91042072D01*
X74295000Y-87020000D01*
X113005001Y-87020000D01*
X113005001Y-120015000D01*
G36*
X96189786Y-113944400D02*
G01*
X97383600Y-113944400D01*
X97383600Y-113924400D01*
X97637600Y-113924400D01*
X97637600Y-113944400D01*
X97657600Y-113944400D01*
X97657600Y-114198400D01*
X97637600Y-114198400D01*
X97637600Y-114218400D01*
X97383600Y-114218400D01*
X97383600Y-114198400D01*
X96189786Y-114198400D01*
X96069119Y-114428291D01*
X96166443Y-114702652D01*
X96315422Y-114952755D01*
X96510331Y-115168988D01*
X96743680Y-115343041D01*
X97006501Y-115468225D01*
X97074465Y-115488840D01*
X95684708Y-116878597D01*
X95659172Y-116840380D01*
X95562560Y-116743768D01*
X95562560Y-114371157D01*
X96120782Y-113812935D01*
X96189786Y-113944400D01*
X96189786Y-113944400D01*
G37*
X96189786Y-113944400D02*
X97383600Y-113944400D01*
X97383600Y-113924400D01*
X97637600Y-113924400D01*
X97637600Y-113944400D01*
X97657600Y-113944400D01*
X97657600Y-114198400D01*
X97637600Y-114198400D01*
X97637600Y-114218400D01*
X97383600Y-114218400D01*
X97383600Y-114198400D01*
X96189786Y-114198400D01*
X96069119Y-114428291D01*
X96166443Y-114702652D01*
X96315422Y-114952755D01*
X96510331Y-115168988D01*
X96743680Y-115343041D01*
X97006501Y-115468225D01*
X97074465Y-115488840D01*
X95684708Y-116878597D01*
X95659172Y-116840380D01*
X95562560Y-116743768D01*
X95562560Y-114371157D01*
X96120782Y-113812935D01*
X96189786Y-113944400D01*
G36*
X110859002Y-103368719D02*
G01*
X110859001Y-112583328D01*
X109360600Y-112583328D01*
X109236118Y-112595588D01*
X109116420Y-112631898D01*
X109006106Y-112690863D01*
X108909415Y-112770215D01*
X108830063Y-112866906D01*
X108771098Y-112977220D01*
X108750207Y-113046087D01*
X108725734Y-113016266D01*
X108499614Y-112830694D01*
X108241634Y-112692801D01*
X107961711Y-112607887D01*
X107743550Y-112586400D01*
X107597650Y-112586400D01*
X107379489Y-112607887D01*
X107099566Y-112692801D01*
X106841586Y-112830694D01*
X106615466Y-113016266D01*
X106429894Y-113242386D01*
X106400600Y-113297191D01*
X106371306Y-113242386D01*
X106185734Y-113016266D01*
X105959614Y-112830694D01*
X105701634Y-112692801D01*
X105421711Y-112607887D01*
X105203550Y-112586400D01*
X105057650Y-112586400D01*
X104839489Y-112607887D01*
X104559566Y-112692801D01*
X104301586Y-112830694D01*
X104075466Y-113016266D01*
X103889894Y-113242386D01*
X103860600Y-113297191D01*
X103831306Y-113242386D01*
X103645734Y-113016266D01*
X103419614Y-112830694D01*
X103161634Y-112692801D01*
X102881711Y-112607887D01*
X102663550Y-112586400D01*
X102517650Y-112586400D01*
X102299489Y-112607887D01*
X102019566Y-112692801D01*
X101761586Y-112830694D01*
X101535466Y-113016266D01*
X101349894Y-113242386D01*
X101320600Y-113297191D01*
X101291306Y-113242386D01*
X101105734Y-113016266D01*
X100879614Y-112830694D01*
X100689514Y-112729083D01*
X109357718Y-104060880D01*
X109494348Y-104060880D01*
X109713627Y-104017263D01*
X109920184Y-103931704D01*
X110106080Y-103807492D01*
X110264172Y-103649400D01*
X110388384Y-103463504D01*
X110473943Y-103256947D01*
X110517560Y-103037668D01*
X110517560Y-103027277D01*
X110859002Y-103368719D01*
X110859002Y-103368719D01*
G37*
X110859002Y-103368719D02*
X110859001Y-112583328D01*
X109360600Y-112583328D01*
X109236118Y-112595588D01*
X109116420Y-112631898D01*
X109006106Y-112690863D01*
X108909415Y-112770215D01*
X108830063Y-112866906D01*
X108771098Y-112977220D01*
X108750207Y-113046087D01*
X108725734Y-113016266D01*
X108499614Y-112830694D01*
X108241634Y-112692801D01*
X107961711Y-112607887D01*
X107743550Y-112586400D01*
X107597650Y-112586400D01*
X107379489Y-112607887D01*
X107099566Y-112692801D01*
X106841586Y-112830694D01*
X106615466Y-113016266D01*
X106429894Y-113242386D01*
X106400600Y-113297191D01*
X106371306Y-113242386D01*
X106185734Y-113016266D01*
X105959614Y-112830694D01*
X105701634Y-112692801D01*
X105421711Y-112607887D01*
X105203550Y-112586400D01*
X105057650Y-112586400D01*
X104839489Y-112607887D01*
X104559566Y-112692801D01*
X104301586Y-112830694D01*
X104075466Y-113016266D01*
X103889894Y-113242386D01*
X103860600Y-113297191D01*
X103831306Y-113242386D01*
X103645734Y-113016266D01*
X103419614Y-112830694D01*
X103161634Y-112692801D01*
X102881711Y-112607887D01*
X102663550Y-112586400D01*
X102517650Y-112586400D01*
X102299489Y-112607887D01*
X102019566Y-112692801D01*
X101761586Y-112830694D01*
X101535466Y-113016266D01*
X101349894Y-113242386D01*
X101320600Y-113297191D01*
X101291306Y-113242386D01*
X101105734Y-113016266D01*
X100879614Y-112830694D01*
X100689514Y-112729083D01*
X109357718Y-104060880D01*
X109494348Y-104060880D01*
X109713627Y-104017263D01*
X109920184Y-103931704D01*
X110106080Y-103807492D01*
X110264172Y-103649400D01*
X110388384Y-103463504D01*
X110473943Y-103256947D01*
X110517560Y-103037668D01*
X110517560Y-103027277D01*
X110859002Y-103368719D01*
G36*
X94426808Y-120794400D02*
G01*
X94584900Y-120952492D01*
X94770796Y-121076704D01*
X94856287Y-121112116D01*
X93656863Y-122311540D01*
X93520232Y-122311540D01*
X93300953Y-122355157D01*
X93094396Y-122440716D01*
X92908500Y-122564928D01*
X92750408Y-122723020D01*
X92626196Y-122908916D01*
X92540637Y-123115473D01*
X92497020Y-123334752D01*
X92497020Y-123558328D01*
X92540637Y-123777607D01*
X92626196Y-123984164D01*
X92750408Y-124170060D01*
X92908500Y-124328152D01*
X93094396Y-124452364D01*
X93300953Y-124537923D01*
X93520232Y-124581540D01*
X93743808Y-124581540D01*
X93963087Y-124537923D01*
X94169644Y-124452364D01*
X94355540Y-124328152D01*
X94513632Y-124170060D01*
X94637844Y-123984164D01*
X94723403Y-123777607D01*
X94767020Y-123558328D01*
X94767020Y-123421697D01*
X96443838Y-121744880D01*
X105703569Y-121744880D01*
X105742122Y-121748677D01*
X105780675Y-121744880D01*
X105780683Y-121744880D01*
X105806471Y-121742340D01*
X111276947Y-121742340D01*
X111315500Y-121746137D01*
X111354053Y-121742340D01*
X111354061Y-121742340D01*
X111469387Y-121730981D01*
X111617360Y-121686094D01*
X111753733Y-121613202D01*
X111873264Y-121515104D01*
X111897848Y-121485149D01*
X112171808Y-121211189D01*
X112201765Y-121186603D01*
X112299863Y-121067072D01*
X112372755Y-120930699D01*
X112384352Y-120892468D01*
X112417643Y-120782726D01*
X112418207Y-120777000D01*
X113005000Y-120777000D01*
X113005000Y-154280000D01*
X57556000Y-154280000D01*
X57556000Y-144094200D01*
X60077415Y-144094200D01*
X60106087Y-144385311D01*
X60191001Y-144665234D01*
X60328894Y-144923214D01*
X60514466Y-145149334D01*
X60740586Y-145334906D01*
X60998566Y-145472799D01*
X61278489Y-145557713D01*
X61496650Y-145579200D01*
X61642550Y-145579200D01*
X61860711Y-145557713D01*
X62140634Y-145472799D01*
X62398614Y-145334906D01*
X62624734Y-145149334D01*
X62810306Y-144923214D01*
X62844801Y-144858677D01*
X62914422Y-144975555D01*
X63109331Y-145191788D01*
X63342680Y-145365841D01*
X63605501Y-145491025D01*
X63752710Y-145535676D01*
X63982600Y-145414355D01*
X63982600Y-144221200D01*
X63962600Y-144221200D01*
X63962600Y-143967200D01*
X63982600Y-143967200D01*
X63982600Y-142774045D01*
X64236600Y-142774045D01*
X64236600Y-143967200D01*
X64256600Y-143967200D01*
X64256600Y-144221200D01*
X64236600Y-144221200D01*
X64236600Y-145414355D01*
X64466490Y-145535676D01*
X64613699Y-145491025D01*
X64876520Y-145365841D01*
X65109869Y-145191788D01*
X65185634Y-145107734D01*
X65210098Y-145188380D01*
X65269063Y-145298694D01*
X65348415Y-145395385D01*
X65445106Y-145474737D01*
X65555420Y-145533702D01*
X65675118Y-145570012D01*
X65799600Y-145582272D01*
X67499600Y-145582272D01*
X67624082Y-145570012D01*
X67743780Y-145533702D01*
X67854094Y-145474737D01*
X67950785Y-145395385D01*
X68030137Y-145298694D01*
X68089102Y-145188380D01*
X68125412Y-145068682D01*
X68137672Y-144944200D01*
X68137672Y-143244200D01*
X68125412Y-143119718D01*
X68089102Y-143000020D01*
X68030137Y-142889706D01*
X67950785Y-142793015D01*
X67854094Y-142713663D01*
X67743780Y-142654698D01*
X67624082Y-142618388D01*
X67499600Y-142606128D01*
X65799600Y-142606128D01*
X65675118Y-142618388D01*
X65555420Y-142654698D01*
X65445106Y-142713663D01*
X65348415Y-142793015D01*
X65269063Y-142889706D01*
X65210098Y-143000020D01*
X65185634Y-143080666D01*
X65109869Y-142996612D01*
X64876520Y-142822559D01*
X64613699Y-142697375D01*
X64466490Y-142652724D01*
X64236600Y-142774045D01*
X63982600Y-142774045D01*
X63752710Y-142652724D01*
X63605501Y-142697375D01*
X63342680Y-142822559D01*
X63109331Y-142996612D01*
X62914422Y-143212845D01*
X62844801Y-143329723D01*
X62810306Y-143265186D01*
X62624734Y-143039066D01*
X62398614Y-142853494D01*
X62140634Y-142715601D01*
X61860711Y-142630687D01*
X61642550Y-142609200D01*
X61496650Y-142609200D01*
X61278489Y-142630687D01*
X60998566Y-142715601D01*
X60740586Y-142853494D01*
X60514466Y-143039066D01*
X60328894Y-143265186D01*
X60191001Y-143523166D01*
X60106087Y-143803089D01*
X60077415Y-144094200D01*
X57556000Y-144094200D01*
X57556000Y-130951281D01*
X57625836Y-130997944D01*
X57832393Y-131083503D01*
X58051672Y-131127120D01*
X58275248Y-131127120D01*
X58494527Y-131083503D01*
X58701084Y-130997944D01*
X58886980Y-130873732D01*
X59045072Y-130715640D01*
X59169284Y-130529744D01*
X59254843Y-130323187D01*
X59298460Y-130103908D01*
X59298460Y-129880332D01*
X59254843Y-129661053D01*
X59169284Y-129454496D01*
X59126288Y-129390148D01*
X59788597Y-128727839D01*
X59816768Y-128770000D01*
X59974860Y-128928092D01*
X60160756Y-129052304D01*
X60367313Y-129137863D01*
X60586592Y-129181480D01*
X60810168Y-129181480D01*
X61029447Y-129137863D01*
X61236004Y-129052304D01*
X61416830Y-128931480D01*
X61868313Y-128931480D01*
X61652553Y-128974397D01*
X61445996Y-129059956D01*
X61260100Y-129184168D01*
X61102008Y-129342260D01*
X60977796Y-129528156D01*
X60892237Y-129734713D01*
X60848620Y-129953992D01*
X60848620Y-130177568D01*
X60892237Y-130396847D01*
X60977796Y-130603404D01*
X61102008Y-130789300D01*
X61260100Y-130947392D01*
X61445996Y-131071604D01*
X61652553Y-131157163D01*
X61871832Y-131200780D01*
X62095408Y-131200780D01*
X62314687Y-131157163D01*
X62521244Y-131071604D01*
X62707140Y-130947392D01*
X62803752Y-130850780D01*
X63183505Y-130850780D01*
X65085457Y-132752732D01*
X65047240Y-132778268D01*
X64950628Y-132874880D01*
X63426052Y-132874880D01*
X63268480Y-132717308D01*
X63082584Y-132593096D01*
X62876027Y-132507537D01*
X62656748Y-132463920D01*
X62433172Y-132463920D01*
X62213893Y-132507537D01*
X62007336Y-132593096D01*
X61821440Y-132717308D01*
X61663348Y-132875400D01*
X61539136Y-133061296D01*
X61453577Y-133267853D01*
X61409960Y-133487132D01*
X61409960Y-133710708D01*
X61453577Y-133929987D01*
X61539136Y-134136544D01*
X61663348Y-134322440D01*
X61821440Y-134480532D01*
X62007336Y-134604744D01*
X62213893Y-134690303D01*
X62433172Y-134733920D01*
X62656748Y-134733920D01*
X62876027Y-134690303D01*
X63082584Y-134604744D01*
X63268480Y-134480532D01*
X63304132Y-134444880D01*
X64950628Y-134444880D01*
X65047240Y-134541492D01*
X65233136Y-134665704D01*
X65439693Y-134751263D01*
X65658972Y-134794880D01*
X65882548Y-134794880D01*
X66101827Y-134751263D01*
X66308384Y-134665704D01*
X66494280Y-134541492D01*
X66652372Y-134383400D01*
X66677908Y-134345183D01*
X69506961Y-137174237D01*
X69506960Y-137825768D01*
X69410348Y-137922380D01*
X69286136Y-138108276D01*
X69200577Y-138314833D01*
X69156960Y-138534112D01*
X69156960Y-138757688D01*
X69200577Y-138976967D01*
X69286136Y-139183524D01*
X69410348Y-139369420D01*
X69568440Y-139527512D01*
X69754336Y-139651724D01*
X69960893Y-139737283D01*
X70180172Y-139780900D01*
X70403748Y-139780900D01*
X70623027Y-139737283D01*
X70829584Y-139651724D01*
X71015480Y-139527512D01*
X71173572Y-139369420D01*
X71297784Y-139183524D01*
X71383343Y-138976967D01*
X71426960Y-138757688D01*
X71426960Y-138534112D01*
X71383343Y-138314833D01*
X71297784Y-138108276D01*
X71173572Y-137922380D01*
X71076960Y-137825768D01*
X71076960Y-137029000D01*
X80815550Y-137029000D01*
X80996376Y-137149824D01*
X81202933Y-137235383D01*
X81422212Y-137279000D01*
X81645788Y-137279000D01*
X81865067Y-137235383D01*
X81876251Y-137230750D01*
X81839615Y-152907703D01*
X81841998Y-152932485D01*
X81849169Y-152956326D01*
X81860854Y-152978310D01*
X81876603Y-152997592D01*
X81895811Y-153013431D01*
X81917740Y-153025219D01*
X81941548Y-153032501D01*
X81966615Y-153035000D01*
X84760615Y-153035000D01*
X84785391Y-153032560D01*
X84809216Y-153025333D01*
X84831172Y-153013597D01*
X84850418Y-152997803D01*
X84866212Y-152978557D01*
X84877948Y-152956601D01*
X84885175Y-152932776D01*
X84887615Y-152908297D01*
X84911032Y-142887800D01*
X89595528Y-142887800D01*
X89595528Y-144487800D01*
X89607788Y-144612282D01*
X89644098Y-144731980D01*
X89703063Y-144842294D01*
X89782415Y-144938985D01*
X89879106Y-145018337D01*
X89989420Y-145077302D01*
X90109118Y-145113612D01*
X90233600Y-145125872D01*
X91833600Y-145125872D01*
X91958082Y-145113612D01*
X92077780Y-145077302D01*
X92188094Y-145018337D01*
X92284785Y-144938985D01*
X92364137Y-144842294D01*
X92423102Y-144731980D01*
X92438717Y-144680502D01*
X92720503Y-144680502D01*
X92792086Y-144924471D01*
X93047596Y-145045371D01*
X93321784Y-145114100D01*
X93604112Y-145128017D01*
X93883730Y-145086587D01*
X94149892Y-144991403D01*
X94275114Y-144924471D01*
X94346697Y-144680502D01*
X93533600Y-143867405D01*
X92720503Y-144680502D01*
X92438717Y-144680502D01*
X92459412Y-144612282D01*
X92471672Y-144487800D01*
X92471672Y-144480585D01*
X92540898Y-144500897D01*
X93353995Y-143687800D01*
X93713205Y-143687800D01*
X94526302Y-144500897D01*
X94770271Y-144429314D01*
X94832078Y-144298691D01*
X95738919Y-144298691D01*
X95836243Y-144573052D01*
X95985222Y-144823155D01*
X96180131Y-145039388D01*
X96413480Y-145213441D01*
X96676301Y-145338625D01*
X96823510Y-145383276D01*
X97053400Y-145261955D01*
X97053400Y-144068800D01*
X95859586Y-144068800D01*
X95738919Y-144298691D01*
X94832078Y-144298691D01*
X94891171Y-144173804D01*
X94959900Y-143899616D01*
X94973817Y-143617288D01*
X94969020Y-143584909D01*
X95738919Y-143584909D01*
X95859586Y-143814800D01*
X97053400Y-143814800D01*
X97053400Y-142621645D01*
X97307400Y-142621645D01*
X97307400Y-143814800D01*
X97327400Y-143814800D01*
X97327400Y-144068800D01*
X97307400Y-144068800D01*
X97307400Y-145261955D01*
X97537290Y-145383276D01*
X97684499Y-145338625D01*
X97947320Y-145213441D01*
X98180669Y-145039388D01*
X98256434Y-144955334D01*
X98280898Y-145035980D01*
X98339863Y-145146294D01*
X98419215Y-145242985D01*
X98515906Y-145322337D01*
X98626220Y-145381302D01*
X98745918Y-145417612D01*
X98870400Y-145429872D01*
X100570400Y-145429872D01*
X100694882Y-145417612D01*
X100814580Y-145381302D01*
X100924894Y-145322337D01*
X101021585Y-145242985D01*
X101100937Y-145146294D01*
X101159902Y-145035980D01*
X101196212Y-144916282D01*
X101208472Y-144791800D01*
X101208472Y-144018000D01*
X103943215Y-144018000D01*
X103971887Y-144309111D01*
X104056801Y-144589034D01*
X104194694Y-144847014D01*
X104380266Y-145073134D01*
X104606386Y-145258706D01*
X104864366Y-145396599D01*
X105144289Y-145481513D01*
X105362450Y-145503000D01*
X105508350Y-145503000D01*
X105726511Y-145481513D01*
X106006434Y-145396599D01*
X106264414Y-145258706D01*
X106490534Y-145073134D01*
X106676106Y-144847014D01*
X106710601Y-144782477D01*
X106780222Y-144899355D01*
X106975131Y-145115588D01*
X107208480Y-145289641D01*
X107471301Y-145414825D01*
X107618510Y-145459476D01*
X107848400Y-145338155D01*
X107848400Y-144145000D01*
X107828400Y-144145000D01*
X107828400Y-143891000D01*
X107848400Y-143891000D01*
X107848400Y-142697845D01*
X108102400Y-142697845D01*
X108102400Y-143891000D01*
X108122400Y-143891000D01*
X108122400Y-144145000D01*
X108102400Y-144145000D01*
X108102400Y-145338155D01*
X108332290Y-145459476D01*
X108479499Y-145414825D01*
X108742320Y-145289641D01*
X108975669Y-145115588D01*
X109051434Y-145031534D01*
X109075898Y-145112180D01*
X109134863Y-145222494D01*
X109214215Y-145319185D01*
X109310906Y-145398537D01*
X109421220Y-145457502D01*
X109540918Y-145493812D01*
X109665400Y-145506072D01*
X111365400Y-145506072D01*
X111489882Y-145493812D01*
X111609580Y-145457502D01*
X111719894Y-145398537D01*
X111816585Y-145319185D01*
X111895937Y-145222494D01*
X111954902Y-145112180D01*
X111991212Y-144992482D01*
X112003472Y-144868000D01*
X112003472Y-143168000D01*
X111991212Y-143043518D01*
X111954902Y-142923820D01*
X111895937Y-142813506D01*
X111816585Y-142716815D01*
X111719894Y-142637463D01*
X111609580Y-142578498D01*
X111489882Y-142542188D01*
X111365400Y-142529928D01*
X109665400Y-142529928D01*
X109540918Y-142542188D01*
X109421220Y-142578498D01*
X109310906Y-142637463D01*
X109214215Y-142716815D01*
X109134863Y-142813506D01*
X109075898Y-142923820D01*
X109051434Y-143004466D01*
X108975669Y-142920412D01*
X108742320Y-142746359D01*
X108479499Y-142621175D01*
X108332290Y-142576524D01*
X108102400Y-142697845D01*
X107848400Y-142697845D01*
X107618510Y-142576524D01*
X107471301Y-142621175D01*
X107208480Y-142746359D01*
X106975131Y-142920412D01*
X106780222Y-143136645D01*
X106710601Y-143253523D01*
X106676106Y-143188986D01*
X106490534Y-142962866D01*
X106264414Y-142777294D01*
X106006434Y-142639401D01*
X105726511Y-142554487D01*
X105508350Y-142533000D01*
X105362450Y-142533000D01*
X105144289Y-142554487D01*
X104864366Y-142639401D01*
X104606386Y-142777294D01*
X104380266Y-142962866D01*
X104194694Y-143188986D01*
X104056801Y-143446966D01*
X103971887Y-143726889D01*
X103943215Y-144018000D01*
X101208472Y-144018000D01*
X101208472Y-143091800D01*
X101196212Y-142967318D01*
X101159902Y-142847620D01*
X101100937Y-142737306D01*
X101021585Y-142640615D01*
X100924894Y-142561263D01*
X100814580Y-142502298D01*
X100694882Y-142465988D01*
X100570400Y-142453728D01*
X98870400Y-142453728D01*
X98745918Y-142465988D01*
X98626220Y-142502298D01*
X98515906Y-142561263D01*
X98419215Y-142640615D01*
X98339863Y-142737306D01*
X98280898Y-142847620D01*
X98256434Y-142928266D01*
X98180669Y-142844212D01*
X97947320Y-142670159D01*
X97684499Y-142544975D01*
X97537290Y-142500324D01*
X97307400Y-142621645D01*
X97053400Y-142621645D01*
X96823510Y-142500324D01*
X96676301Y-142544975D01*
X96413480Y-142670159D01*
X96180131Y-142844212D01*
X95985222Y-143060445D01*
X95836243Y-143310548D01*
X95738919Y-143584909D01*
X94969020Y-143584909D01*
X94932387Y-143337670D01*
X94837203Y-143071508D01*
X94770271Y-142946286D01*
X94526302Y-142874703D01*
X93713205Y-143687800D01*
X93353995Y-143687800D01*
X92540898Y-142874703D01*
X92471672Y-142895015D01*
X92471672Y-142887800D01*
X92459412Y-142763318D01*
X92438718Y-142695098D01*
X92720503Y-142695098D01*
X93533600Y-143508195D01*
X94346697Y-142695098D01*
X94275114Y-142451129D01*
X94019604Y-142330229D01*
X93745416Y-142261500D01*
X93463088Y-142247583D01*
X93183470Y-142289013D01*
X92917308Y-142384197D01*
X92792086Y-142451129D01*
X92720503Y-142695098D01*
X92438718Y-142695098D01*
X92423102Y-142643620D01*
X92364137Y-142533306D01*
X92284785Y-142436615D01*
X92188094Y-142357263D01*
X92077780Y-142298298D01*
X91958082Y-142261988D01*
X91833600Y-142249728D01*
X90233600Y-142249728D01*
X90109118Y-142261988D01*
X89989420Y-142298298D01*
X89879106Y-142357263D01*
X89782415Y-142436615D01*
X89703063Y-142533306D01*
X89644098Y-142643620D01*
X89607788Y-142763318D01*
X89595528Y-142887800D01*
X84911032Y-142887800D01*
X84927084Y-136019254D01*
X86373912Y-134572427D01*
X86373917Y-134572421D01*
X86402566Y-134543772D01*
X91735020Y-134543772D01*
X91735020Y-134767348D01*
X91778637Y-134986627D01*
X91864196Y-135193184D01*
X91988408Y-135379080D01*
X92146500Y-135537172D01*
X92332396Y-135661384D01*
X92538953Y-135746943D01*
X92758232Y-135790560D01*
X92981808Y-135790560D01*
X93201087Y-135746943D01*
X93407644Y-135661384D01*
X93593540Y-135537172D01*
X93690152Y-135440560D01*
X96865403Y-135440560D01*
X101138100Y-139713258D01*
X101138100Y-139849888D01*
X101181717Y-140069167D01*
X101267276Y-140275724D01*
X101391488Y-140461620D01*
X101549580Y-140619712D01*
X101735476Y-140743924D01*
X101942033Y-140829483D01*
X102161312Y-140873100D01*
X102384888Y-140873100D01*
X102604167Y-140829483D01*
X102810724Y-140743924D01*
X102996620Y-140619712D01*
X103154712Y-140461620D01*
X103278924Y-140275724D01*
X103364483Y-140069167D01*
X103408100Y-139849888D01*
X103408100Y-139626312D01*
X103364483Y-139407033D01*
X103278924Y-139200476D01*
X103154712Y-139014580D01*
X102996620Y-138856488D01*
X102810724Y-138732276D01*
X102604167Y-138646717D01*
X102384888Y-138603100D01*
X102248258Y-138603100D01*
X97772907Y-134127750D01*
X97748324Y-134097796D01*
X97628793Y-133999698D01*
X97492420Y-133926806D01*
X97344447Y-133881919D01*
X97229121Y-133870560D01*
X97229113Y-133870560D01*
X97190560Y-133866763D01*
X97152007Y-133870560D01*
X93690152Y-133870560D01*
X93593540Y-133773948D01*
X93407644Y-133649736D01*
X93201087Y-133564177D01*
X92981808Y-133520560D01*
X92758232Y-133520560D01*
X92538953Y-133564177D01*
X92332396Y-133649736D01*
X92146500Y-133773948D01*
X91988408Y-133932040D01*
X91864196Y-134117936D01*
X91778637Y-134324493D01*
X91735020Y-134543772D01*
X86402566Y-134543772D01*
X92693149Y-128253190D01*
X92906447Y-128210763D01*
X93113004Y-128125204D01*
X93298900Y-128000992D01*
X93456992Y-127842900D01*
X93581204Y-127657004D01*
X93603464Y-127603263D01*
X93646290Y-127646089D01*
X93688717Y-127859387D01*
X93774276Y-128065944D01*
X93898488Y-128251840D01*
X94056580Y-128409932D01*
X94242476Y-128534144D01*
X94449033Y-128619703D01*
X94668312Y-128663320D01*
X94891888Y-128663320D01*
X95111167Y-128619703D01*
X95317724Y-128534144D01*
X95498550Y-128413320D01*
X98223522Y-128413320D01*
X99353670Y-129543468D01*
X99396097Y-129756767D01*
X99481656Y-129963324D01*
X99605868Y-130149220D01*
X99763960Y-130307312D01*
X99949856Y-130431524D01*
X100156413Y-130517083D01*
X100375692Y-130560700D01*
X100599268Y-130560700D01*
X100818547Y-130517083D01*
X101025104Y-130431524D01*
X101211000Y-130307312D01*
X101369092Y-130149220D01*
X101493304Y-129963324D01*
X101578863Y-129756767D01*
X101622480Y-129537488D01*
X101622480Y-129313912D01*
X101578863Y-129094633D01*
X101493304Y-128888076D01*
X101369092Y-128702180D01*
X101211000Y-128544088D01*
X101025104Y-128419876D01*
X100818547Y-128334317D01*
X100605248Y-128291890D01*
X99246632Y-126933274D01*
X99218917Y-126899503D01*
X99084159Y-126788909D01*
X98930413Y-126706731D01*
X98763590Y-126656125D01*
X98633577Y-126643320D01*
X98633569Y-126643320D01*
X98590100Y-126639039D01*
X98546631Y-126643320D01*
X95498550Y-126643320D01*
X95317724Y-126522496D01*
X95111167Y-126436937D01*
X94897869Y-126394510D01*
X94027693Y-125524335D01*
X93999976Y-125490562D01*
X93865218Y-125379968D01*
X93711472Y-125297790D01*
X93544649Y-125247184D01*
X93414636Y-125234379D01*
X93414628Y-125234379D01*
X93371159Y-125230098D01*
X93327690Y-125234379D01*
X89549240Y-125234379D01*
X94006619Y-120777000D01*
X94415182Y-120777000D01*
X94426808Y-120794400D01*
X94426808Y-120794400D01*
G37*
X94426808Y-120794400D02*
X94584900Y-120952492D01*
X94770796Y-121076704D01*
X94856287Y-121112116D01*
X93656863Y-122311540D01*
X93520232Y-122311540D01*
X93300953Y-122355157D01*
X93094396Y-122440716D01*
X92908500Y-122564928D01*
X92750408Y-122723020D01*
X92626196Y-122908916D01*
X92540637Y-123115473D01*
X92497020Y-123334752D01*
X92497020Y-123558328D01*
X92540637Y-123777607D01*
X92626196Y-123984164D01*
X92750408Y-124170060D01*
X92908500Y-124328152D01*
X93094396Y-124452364D01*
X93300953Y-124537923D01*
X93520232Y-124581540D01*
X93743808Y-124581540D01*
X93963087Y-124537923D01*
X94169644Y-124452364D01*
X94355540Y-124328152D01*
X94513632Y-124170060D01*
X94637844Y-123984164D01*
X94723403Y-123777607D01*
X94767020Y-123558328D01*
X94767020Y-123421697D01*
X96443838Y-121744880D01*
X105703569Y-121744880D01*
X105742122Y-121748677D01*
X105780675Y-121744880D01*
X105780683Y-121744880D01*
X105806471Y-121742340D01*
X111276947Y-121742340D01*
X111315500Y-121746137D01*
X111354053Y-121742340D01*
X111354061Y-121742340D01*
X111469387Y-121730981D01*
X111617360Y-121686094D01*
X111753733Y-121613202D01*
X111873264Y-121515104D01*
X111897848Y-121485149D01*
X112171808Y-121211189D01*
X112201765Y-121186603D01*
X112299863Y-121067072D01*
X112372755Y-120930699D01*
X112384352Y-120892468D01*
X112417643Y-120782726D01*
X112418207Y-120777000D01*
X113005000Y-120777000D01*
X113005000Y-154280000D01*
X57556000Y-154280000D01*
X57556000Y-144094200D01*
X60077415Y-144094200D01*
X60106087Y-144385311D01*
X60191001Y-144665234D01*
X60328894Y-144923214D01*
X60514466Y-145149334D01*
X60740586Y-145334906D01*
X60998566Y-145472799D01*
X61278489Y-145557713D01*
X61496650Y-145579200D01*
X61642550Y-145579200D01*
X61860711Y-145557713D01*
X62140634Y-145472799D01*
X62398614Y-145334906D01*
X62624734Y-145149334D01*
X62810306Y-144923214D01*
X62844801Y-144858677D01*
X62914422Y-144975555D01*
X63109331Y-145191788D01*
X63342680Y-145365841D01*
X63605501Y-145491025D01*
X63752710Y-145535676D01*
X63982600Y-145414355D01*
X63982600Y-144221200D01*
X63962600Y-144221200D01*
X63962600Y-143967200D01*
X63982600Y-143967200D01*
X63982600Y-142774045D01*
X64236600Y-142774045D01*
X64236600Y-143967200D01*
X64256600Y-143967200D01*
X64256600Y-144221200D01*
X64236600Y-144221200D01*
X64236600Y-145414355D01*
X64466490Y-145535676D01*
X64613699Y-145491025D01*
X64876520Y-145365841D01*
X65109869Y-145191788D01*
X65185634Y-145107734D01*
X65210098Y-145188380D01*
X65269063Y-145298694D01*
X65348415Y-145395385D01*
X65445106Y-145474737D01*
X65555420Y-145533702D01*
X65675118Y-145570012D01*
X65799600Y-145582272D01*
X67499600Y-145582272D01*
X67624082Y-145570012D01*
X67743780Y-145533702D01*
X67854094Y-145474737D01*
X67950785Y-145395385D01*
X68030137Y-145298694D01*
X68089102Y-145188380D01*
X68125412Y-145068682D01*
X68137672Y-144944200D01*
X68137672Y-143244200D01*
X68125412Y-143119718D01*
X68089102Y-143000020D01*
X68030137Y-142889706D01*
X67950785Y-142793015D01*
X67854094Y-142713663D01*
X67743780Y-142654698D01*
X67624082Y-142618388D01*
X67499600Y-142606128D01*
X65799600Y-142606128D01*
X65675118Y-142618388D01*
X65555420Y-142654698D01*
X65445106Y-142713663D01*
X65348415Y-142793015D01*
X65269063Y-142889706D01*
X65210098Y-143000020D01*
X65185634Y-143080666D01*
X65109869Y-142996612D01*
X64876520Y-142822559D01*
X64613699Y-142697375D01*
X64466490Y-142652724D01*
X64236600Y-142774045D01*
X63982600Y-142774045D01*
X63752710Y-142652724D01*
X63605501Y-142697375D01*
X63342680Y-142822559D01*
X63109331Y-142996612D01*
X62914422Y-143212845D01*
X62844801Y-143329723D01*
X62810306Y-143265186D01*
X62624734Y-143039066D01*
X62398614Y-142853494D01*
X62140634Y-142715601D01*
X61860711Y-142630687D01*
X61642550Y-142609200D01*
X61496650Y-142609200D01*
X61278489Y-142630687D01*
X60998566Y-142715601D01*
X60740586Y-142853494D01*
X60514466Y-143039066D01*
X60328894Y-143265186D01*
X60191001Y-143523166D01*
X60106087Y-143803089D01*
X60077415Y-144094200D01*
X57556000Y-144094200D01*
X57556000Y-130951281D01*
X57625836Y-130997944D01*
X57832393Y-131083503D01*
X58051672Y-131127120D01*
X58275248Y-131127120D01*
X58494527Y-131083503D01*
X58701084Y-130997944D01*
X58886980Y-130873732D01*
X59045072Y-130715640D01*
X59169284Y-130529744D01*
X59254843Y-130323187D01*
X59298460Y-130103908D01*
X59298460Y-129880332D01*
X59254843Y-129661053D01*
X59169284Y-129454496D01*
X59126288Y-129390148D01*
X59788597Y-128727839D01*
X59816768Y-128770000D01*
X59974860Y-128928092D01*
X60160756Y-129052304D01*
X60367313Y-129137863D01*
X60586592Y-129181480D01*
X60810168Y-129181480D01*
X61029447Y-129137863D01*
X61236004Y-129052304D01*
X61416830Y-128931480D01*
X61868313Y-128931480D01*
X61652553Y-128974397D01*
X61445996Y-129059956D01*
X61260100Y-129184168D01*
X61102008Y-129342260D01*
X60977796Y-129528156D01*
X60892237Y-129734713D01*
X60848620Y-129953992D01*
X60848620Y-130177568D01*
X60892237Y-130396847D01*
X60977796Y-130603404D01*
X61102008Y-130789300D01*
X61260100Y-130947392D01*
X61445996Y-131071604D01*
X61652553Y-131157163D01*
X61871832Y-131200780D01*
X62095408Y-131200780D01*
X62314687Y-131157163D01*
X62521244Y-131071604D01*
X62707140Y-130947392D01*
X62803752Y-130850780D01*
X63183505Y-130850780D01*
X65085457Y-132752732D01*
X65047240Y-132778268D01*
X64950628Y-132874880D01*
X63426052Y-132874880D01*
X63268480Y-132717308D01*
X63082584Y-132593096D01*
X62876027Y-132507537D01*
X62656748Y-132463920D01*
X62433172Y-132463920D01*
X62213893Y-132507537D01*
X62007336Y-132593096D01*
X61821440Y-132717308D01*
X61663348Y-132875400D01*
X61539136Y-133061296D01*
X61453577Y-133267853D01*
X61409960Y-133487132D01*
X61409960Y-133710708D01*
X61453577Y-133929987D01*
X61539136Y-134136544D01*
X61663348Y-134322440D01*
X61821440Y-134480532D01*
X62007336Y-134604744D01*
X62213893Y-134690303D01*
X62433172Y-134733920D01*
X62656748Y-134733920D01*
X62876027Y-134690303D01*
X63082584Y-134604744D01*
X63268480Y-134480532D01*
X63304132Y-134444880D01*
X64950628Y-134444880D01*
X65047240Y-134541492D01*
X65233136Y-134665704D01*
X65439693Y-134751263D01*
X65658972Y-134794880D01*
X65882548Y-134794880D01*
X66101827Y-134751263D01*
X66308384Y-134665704D01*
X66494280Y-134541492D01*
X66652372Y-134383400D01*
X66677908Y-134345183D01*
X69506961Y-137174237D01*
X69506960Y-137825768D01*
X69410348Y-137922380D01*
X69286136Y-138108276D01*
X69200577Y-138314833D01*
X69156960Y-138534112D01*
X69156960Y-138757688D01*
X69200577Y-138976967D01*
X69286136Y-139183524D01*
X69410348Y-139369420D01*
X69568440Y-139527512D01*
X69754336Y-139651724D01*
X69960893Y-139737283D01*
X70180172Y-139780900D01*
X70403748Y-139780900D01*
X70623027Y-139737283D01*
X70829584Y-139651724D01*
X71015480Y-139527512D01*
X71173572Y-139369420D01*
X71297784Y-139183524D01*
X71383343Y-138976967D01*
X71426960Y-138757688D01*
X71426960Y-138534112D01*
X71383343Y-138314833D01*
X71297784Y-138108276D01*
X71173572Y-137922380D01*
X71076960Y-137825768D01*
X71076960Y-137029000D01*
X80815550Y-137029000D01*
X80996376Y-137149824D01*
X81202933Y-137235383D01*
X81422212Y-137279000D01*
X81645788Y-137279000D01*
X81865067Y-137235383D01*
X81876251Y-137230750D01*
X81839615Y-152907703D01*
X81841998Y-152932485D01*
X81849169Y-152956326D01*
X81860854Y-152978310D01*
X81876603Y-152997592D01*
X81895811Y-153013431D01*
X81917740Y-153025219D01*
X81941548Y-153032501D01*
X81966615Y-153035000D01*
X84760615Y-153035000D01*
X84785391Y-153032560D01*
X84809216Y-153025333D01*
X84831172Y-153013597D01*
X84850418Y-152997803D01*
X84866212Y-152978557D01*
X84877948Y-152956601D01*
X84885175Y-152932776D01*
X84887615Y-152908297D01*
X84911032Y-142887800D01*
X89595528Y-142887800D01*
X89595528Y-144487800D01*
X89607788Y-144612282D01*
X89644098Y-144731980D01*
X89703063Y-144842294D01*
X89782415Y-144938985D01*
X89879106Y-145018337D01*
X89989420Y-145077302D01*
X90109118Y-145113612D01*
X90233600Y-145125872D01*
X91833600Y-145125872D01*
X91958082Y-145113612D01*
X92077780Y-145077302D01*
X92188094Y-145018337D01*
X92284785Y-144938985D01*
X92364137Y-144842294D01*
X92423102Y-144731980D01*
X92438717Y-144680502D01*
X92720503Y-144680502D01*
X92792086Y-144924471D01*
X93047596Y-145045371D01*
X93321784Y-145114100D01*
X93604112Y-145128017D01*
X93883730Y-145086587D01*
X94149892Y-144991403D01*
X94275114Y-144924471D01*
X94346697Y-144680502D01*
X93533600Y-143867405D01*
X92720503Y-144680502D01*
X92438717Y-144680502D01*
X92459412Y-144612282D01*
X92471672Y-144487800D01*
X92471672Y-144480585D01*
X92540898Y-144500897D01*
X93353995Y-143687800D01*
X93713205Y-143687800D01*
X94526302Y-144500897D01*
X94770271Y-144429314D01*
X94832078Y-144298691D01*
X95738919Y-144298691D01*
X95836243Y-144573052D01*
X95985222Y-144823155D01*
X96180131Y-145039388D01*
X96413480Y-145213441D01*
X96676301Y-145338625D01*
X96823510Y-145383276D01*
X97053400Y-145261955D01*
X97053400Y-144068800D01*
X95859586Y-144068800D01*
X95738919Y-144298691D01*
X94832078Y-144298691D01*
X94891171Y-144173804D01*
X94959900Y-143899616D01*
X94973817Y-143617288D01*
X94969020Y-143584909D01*
X95738919Y-143584909D01*
X95859586Y-143814800D01*
X97053400Y-143814800D01*
X97053400Y-142621645D01*
X97307400Y-142621645D01*
X97307400Y-143814800D01*
X97327400Y-143814800D01*
X97327400Y-144068800D01*
X97307400Y-144068800D01*
X97307400Y-145261955D01*
X97537290Y-145383276D01*
X97684499Y-145338625D01*
X97947320Y-145213441D01*
X98180669Y-145039388D01*
X98256434Y-144955334D01*
X98280898Y-145035980D01*
X98339863Y-145146294D01*
X98419215Y-145242985D01*
X98515906Y-145322337D01*
X98626220Y-145381302D01*
X98745918Y-145417612D01*
X98870400Y-145429872D01*
X100570400Y-145429872D01*
X100694882Y-145417612D01*
X100814580Y-145381302D01*
X100924894Y-145322337D01*
X101021585Y-145242985D01*
X101100937Y-145146294D01*
X101159902Y-145035980D01*
X101196212Y-144916282D01*
X101208472Y-144791800D01*
X101208472Y-144018000D01*
X103943215Y-144018000D01*
X103971887Y-144309111D01*
X104056801Y-144589034D01*
X104194694Y-144847014D01*
X104380266Y-145073134D01*
X104606386Y-145258706D01*
X104864366Y-145396599D01*
X105144289Y-145481513D01*
X105362450Y-145503000D01*
X105508350Y-145503000D01*
X105726511Y-145481513D01*
X106006434Y-145396599D01*
X106264414Y-145258706D01*
X106490534Y-145073134D01*
X106676106Y-144847014D01*
X106710601Y-144782477D01*
X106780222Y-144899355D01*
X106975131Y-145115588D01*
X107208480Y-145289641D01*
X107471301Y-145414825D01*
X107618510Y-145459476D01*
X107848400Y-145338155D01*
X107848400Y-144145000D01*
X107828400Y-144145000D01*
X107828400Y-143891000D01*
X107848400Y-143891000D01*
X107848400Y-142697845D01*
X108102400Y-142697845D01*
X108102400Y-143891000D01*
X108122400Y-143891000D01*
X108122400Y-144145000D01*
X108102400Y-144145000D01*
X108102400Y-145338155D01*
X108332290Y-145459476D01*
X108479499Y-145414825D01*
X108742320Y-145289641D01*
X108975669Y-145115588D01*
X109051434Y-145031534D01*
X109075898Y-145112180D01*
X109134863Y-145222494D01*
X109214215Y-145319185D01*
X109310906Y-145398537D01*
X109421220Y-145457502D01*
X109540918Y-145493812D01*
X109665400Y-145506072D01*
X111365400Y-145506072D01*
X111489882Y-145493812D01*
X111609580Y-145457502D01*
X111719894Y-145398537D01*
X111816585Y-145319185D01*
X111895937Y-145222494D01*
X111954902Y-145112180D01*
X111991212Y-144992482D01*
X112003472Y-144868000D01*
X112003472Y-143168000D01*
X111991212Y-143043518D01*
X111954902Y-142923820D01*
X111895937Y-142813506D01*
X111816585Y-142716815D01*
X111719894Y-142637463D01*
X111609580Y-142578498D01*
X111489882Y-142542188D01*
X111365400Y-142529928D01*
X109665400Y-142529928D01*
X109540918Y-142542188D01*
X109421220Y-142578498D01*
X109310906Y-142637463D01*
X109214215Y-142716815D01*
X109134863Y-142813506D01*
X109075898Y-142923820D01*
X109051434Y-143004466D01*
X108975669Y-142920412D01*
X108742320Y-142746359D01*
X108479499Y-142621175D01*
X108332290Y-142576524D01*
X108102400Y-142697845D01*
X107848400Y-142697845D01*
X107618510Y-142576524D01*
X107471301Y-142621175D01*
X107208480Y-142746359D01*
X106975131Y-142920412D01*
X106780222Y-143136645D01*
X106710601Y-143253523D01*
X106676106Y-143188986D01*
X106490534Y-142962866D01*
X106264414Y-142777294D01*
X106006434Y-142639401D01*
X105726511Y-142554487D01*
X105508350Y-142533000D01*
X105362450Y-142533000D01*
X105144289Y-142554487D01*
X104864366Y-142639401D01*
X104606386Y-142777294D01*
X104380266Y-142962866D01*
X104194694Y-143188986D01*
X104056801Y-143446966D01*
X103971887Y-143726889D01*
X103943215Y-144018000D01*
X101208472Y-144018000D01*
X101208472Y-143091800D01*
X101196212Y-142967318D01*
X101159902Y-142847620D01*
X101100937Y-142737306D01*
X101021585Y-142640615D01*
X100924894Y-142561263D01*
X100814580Y-142502298D01*
X100694882Y-142465988D01*
X100570400Y-142453728D01*
X98870400Y-142453728D01*
X98745918Y-142465988D01*
X98626220Y-142502298D01*
X98515906Y-142561263D01*
X98419215Y-142640615D01*
X98339863Y-142737306D01*
X98280898Y-142847620D01*
X98256434Y-142928266D01*
X98180669Y-142844212D01*
X97947320Y-142670159D01*
X97684499Y-142544975D01*
X97537290Y-142500324D01*
X97307400Y-142621645D01*
X97053400Y-142621645D01*
X96823510Y-142500324D01*
X96676301Y-142544975D01*
X96413480Y-142670159D01*
X96180131Y-142844212D01*
X95985222Y-143060445D01*
X95836243Y-143310548D01*
X95738919Y-143584909D01*
X94969020Y-143584909D01*
X94932387Y-143337670D01*
X94837203Y-143071508D01*
X94770271Y-142946286D01*
X94526302Y-142874703D01*
X93713205Y-143687800D01*
X93353995Y-143687800D01*
X92540898Y-142874703D01*
X92471672Y-142895015D01*
X92471672Y-142887800D01*
X92459412Y-142763318D01*
X92438718Y-142695098D01*
X92720503Y-142695098D01*
X93533600Y-143508195D01*
X94346697Y-142695098D01*
X94275114Y-142451129D01*
X94019604Y-142330229D01*
X93745416Y-142261500D01*
X93463088Y-142247583D01*
X93183470Y-142289013D01*
X92917308Y-142384197D01*
X92792086Y-142451129D01*
X92720503Y-142695098D01*
X92438718Y-142695098D01*
X92423102Y-142643620D01*
X92364137Y-142533306D01*
X92284785Y-142436615D01*
X92188094Y-142357263D01*
X92077780Y-142298298D01*
X91958082Y-142261988D01*
X91833600Y-142249728D01*
X90233600Y-142249728D01*
X90109118Y-142261988D01*
X89989420Y-142298298D01*
X89879106Y-142357263D01*
X89782415Y-142436615D01*
X89703063Y-142533306D01*
X89644098Y-142643620D01*
X89607788Y-142763318D01*
X89595528Y-142887800D01*
X84911032Y-142887800D01*
X84927084Y-136019254D01*
X86373912Y-134572427D01*
X86373917Y-134572421D01*
X86402566Y-134543772D01*
X91735020Y-134543772D01*
X91735020Y-134767348D01*
X91778637Y-134986627D01*
X91864196Y-135193184D01*
X91988408Y-135379080D01*
X92146500Y-135537172D01*
X92332396Y-135661384D01*
X92538953Y-135746943D01*
X92758232Y-135790560D01*
X92981808Y-135790560D01*
X93201087Y-135746943D01*
X93407644Y-135661384D01*
X93593540Y-135537172D01*
X93690152Y-135440560D01*
X96865403Y-135440560D01*
X101138100Y-139713258D01*
X101138100Y-139849888D01*
X101181717Y-140069167D01*
X101267276Y-140275724D01*
X101391488Y-140461620D01*
X101549580Y-140619712D01*
X101735476Y-140743924D01*
X101942033Y-140829483D01*
X102161312Y-140873100D01*
X102384888Y-140873100D01*
X102604167Y-140829483D01*
X102810724Y-140743924D01*
X102996620Y-140619712D01*
X103154712Y-140461620D01*
X103278924Y-140275724D01*
X103364483Y-140069167D01*
X103408100Y-139849888D01*
X103408100Y-139626312D01*
X103364483Y-139407033D01*
X103278924Y-139200476D01*
X103154712Y-139014580D01*
X102996620Y-138856488D01*
X102810724Y-138732276D01*
X102604167Y-138646717D01*
X102384888Y-138603100D01*
X102248258Y-138603100D01*
X97772907Y-134127750D01*
X97748324Y-134097796D01*
X97628793Y-133999698D01*
X97492420Y-133926806D01*
X97344447Y-133881919D01*
X97229121Y-133870560D01*
X97229113Y-133870560D01*
X97190560Y-133866763D01*
X97152007Y-133870560D01*
X93690152Y-133870560D01*
X93593540Y-133773948D01*
X93407644Y-133649736D01*
X93201087Y-133564177D01*
X92981808Y-133520560D01*
X92758232Y-133520560D01*
X92538953Y-133564177D01*
X92332396Y-133649736D01*
X92146500Y-133773948D01*
X91988408Y-133932040D01*
X91864196Y-134117936D01*
X91778637Y-134324493D01*
X91735020Y-134543772D01*
X86402566Y-134543772D01*
X92693149Y-128253190D01*
X92906447Y-128210763D01*
X93113004Y-128125204D01*
X93298900Y-128000992D01*
X93456992Y-127842900D01*
X93581204Y-127657004D01*
X93603464Y-127603263D01*
X93646290Y-127646089D01*
X93688717Y-127859387D01*
X93774276Y-128065944D01*
X93898488Y-128251840D01*
X94056580Y-128409932D01*
X94242476Y-128534144D01*
X94449033Y-128619703D01*
X94668312Y-128663320D01*
X94891888Y-128663320D01*
X95111167Y-128619703D01*
X95317724Y-128534144D01*
X95498550Y-128413320D01*
X98223522Y-128413320D01*
X99353670Y-129543468D01*
X99396097Y-129756767D01*
X99481656Y-129963324D01*
X99605868Y-130149220D01*
X99763960Y-130307312D01*
X99949856Y-130431524D01*
X100156413Y-130517083D01*
X100375692Y-130560700D01*
X100599268Y-130560700D01*
X100818547Y-130517083D01*
X101025104Y-130431524D01*
X101211000Y-130307312D01*
X101369092Y-130149220D01*
X101493304Y-129963324D01*
X101578863Y-129756767D01*
X101622480Y-129537488D01*
X101622480Y-129313912D01*
X101578863Y-129094633D01*
X101493304Y-128888076D01*
X101369092Y-128702180D01*
X101211000Y-128544088D01*
X101025104Y-128419876D01*
X100818547Y-128334317D01*
X100605248Y-128291890D01*
X99246632Y-126933274D01*
X99218917Y-126899503D01*
X99084159Y-126788909D01*
X98930413Y-126706731D01*
X98763590Y-126656125D01*
X98633577Y-126643320D01*
X98633569Y-126643320D01*
X98590100Y-126639039D01*
X98546631Y-126643320D01*
X95498550Y-126643320D01*
X95317724Y-126522496D01*
X95111167Y-126436937D01*
X94897869Y-126394510D01*
X94027693Y-125524335D01*
X93999976Y-125490562D01*
X93865218Y-125379968D01*
X93711472Y-125297790D01*
X93544649Y-125247184D01*
X93414636Y-125234379D01*
X93414628Y-125234379D01*
X93371159Y-125230098D01*
X93327690Y-125234379D01*
X89549240Y-125234379D01*
X94006619Y-120777000D01*
X94415182Y-120777000D01*
X94426808Y-120794400D01*
M02*
