M48
; DRILL file {KiCad (5.1.4)-1} date 11/30/20 14:55:28
; FORMAT={-:-/ absolute / inch / decimal}
; #@! TF.CreationDate,2020-11-30T14:55:28+01:00
; #@! TF.GenerationSoftware,Kicad,Pcbnew,(5.1.4)-1
FMAT,2
INCH
T1C0.0236
T2C0.0315
T3C0.0394
T4C0.1260
%
G90
G05
T1
X2.2705Y-4.3
X2.2899Y-5.1178
X2.3061Y-3.736
X2.3111Y-3.993
X2.3159Y-3.6619
X2.325Y-4.515
X2.3301Y-4.6442
X2.3897Y-5.0412
X2.42Y-4.96
X2.44Y-4.58
X2.4403Y-5.1207
X2.4425Y-5.4551
X2.4624Y-5.2598
X2.4778Y-4.9169
X2.4894Y-5.502
X2.5712Y-5.0322
X2.5894Y-5.2622
X2.73Y-5.865
X2.7674Y-5.4585
X2.7944Y-5.0593
X2.81Y-4.56
X2.9319Y-5.4575
X3.0516Y-5.8204
X3.052Y-5.722
X3.052Y-5.774
X3.055Y-4.5
X3.0675Y-3.7833
X3.07Y-3.7256
X3.095Y-6.0695
X3.155Y-6.0695
X3.17Y-4.5
X3.206Y-6.0695
X3.21Y-5.36
X3.245Y-3.965
X3.251Y-6.0695
X3.26Y-5.15
X3.26Y-5.27
X3.26Y-5.44
X3.26Y-5.49
X3.26Y-5.58
X3.295Y-6.068
X3.3Y-5.07
X3.3Y-5.22
X3.31Y-5.41
X3.31Y-5.46
X3.31Y-5.57
X3.3376Y-4.8594
X3.3671Y-5.0419
X3.39Y-4.27
X3.505Y-5.515
X3.532Y-3.9771
X3.5974Y-4.7261
X3.6447Y-5.0047
X3.6461Y-3.9942
X3.6563Y-5.3014
X3.6785Y-4.5846
X3.6863Y-4.8601
X3.7Y-3.94
X3.7Y-4.19
X3.71Y-4.12
X3.7116Y-4.449
X3.7314Y-4.6285
X3.7315Y-5.0208
X3.7523Y-4.7272
X3.79Y-4.08
X3.8312Y-4.3902
X3.8325Y-3.7908
X3.9562Y-5.0955
X4.0265Y-5.5015
X4.0353Y-3.946
X4.0951Y-5.5026
X4.2865Y-4.3142
X4.3064Y-4.0522
X4.3404Y-4.0018
X4.36Y-4.0771
T2
X3.487Y-4.1821
X3.487Y-4.375
X3.584Y-5.657
X3.6824Y-5.657
T3
X2.424Y-5.673
X2.524Y-5.673
X2.624Y-5.673
X3.839Y-4.491
X3.939Y-4.491
X4.039Y-4.491
X4.139Y-4.491
X4.239Y-4.491
X4.339Y-4.491
X4.151Y-5.67
X4.251Y-5.67
X4.351Y-5.67
X3.826Y-5.667
X3.926Y-5.667
X3.93Y-3.858
X4.03Y-3.858
X4.13Y-3.858
T4
X3.03Y-4.61
X4.279Y-3.593
T0
M30
